<svg xmlns="http://www.w3.org/2000/svg" width="140.978" height="162.486" viewBox="0 0 140.978 162.486"><defs><style>.a{fill:#c2d6ff;}.b{fill:#fd5e5a;}.c{fill:#18287d;}.d{fill:#111f59;}.e{fill:#22346d;}.f{fill:#653870;}.g{fill:#38ab01;}.h{fill:#301f36;}.i{fill:#ecab01;}.j{fill:#603e6b;}.k{fill:#c68a05;}.l{fill:#fc7575;}.m{fill:#555699;}.n{fill:#6265a8;}.o{fill:#ffcb57;}.p{fill:#0f1d5b;}.q{fill:#2846a6;}.r{fill:#fff;}.s{fill:#6077bd;}.t{fill:#172866;}.u{fill:#f9b406;}.v{fill:#498bea;}.w{fill:#5971ad;}.x{fill:#522b5b;}.y{fill:#f98a8a;}.z{fill:#2d1e66;}.aa{fill:#c0b4fe;}.ab{fill:#e3e4ff;}.ac{fill:#2a417f;}</style></defs><g transform="translate(-2017.03 -1126.169)"><path class="a" d="M2158.714,1709.906c0,1.78-31.5,3.222-70.359,3.222s-70.359-1.442-70.359-3.222,31.5-3.222,70.359-3.222S2158.714,1708.126,2158.714,1709.906Z" transform="translate(-0.707 -424.472)"/><g transform="translate(2017.03 1126.169)"><path class="b" d="M2201.631,1244.592a77.767,77.767,0,0,1,14.123,24.682s-5.846,9.9-9.907,12.358-1.624,7.177-1.624,7.177,1.192,1.385.792,1.508a3.064,3.064,0,0,1-2.077-1.379,8.18,8.18,0,0,1,1.319,1.7c.138.449-1.523-.114-1.585-.169-.605-.543.062.055.062.055s.182.381-.318.535-.721.148-1.059-.951a34.206,34.206,0,0,1-.469-7.337c.231-.436,7.794-11.35,6.42-15.818s-9.647-14.022-9.49-17.9A4.649,4.649,0,0,1,2201.631,1244.592Z" transform="translate(-2149.22 -1212.76)"/><g transform="translate(14.691 14.507)"><path class="c" d="M2080.1,1392.833s-3.4,10.886-8.057,12.029l2.56,2.666s5.759-9.819,6.135-13.724Z" transform="translate(-2071.947 -1335.661)"/><path class="d" d="M2084.671,1307.241a24.434,24.434,0,0,0-5.817,0c-1.792.439-5.448,11.191-5.448,11.191l7.623,2.517Z" transform="translate(-2072.942 -1272.934)"/><path class="c" d="M2074.05,1347.67s-3.183,4.936-2.166,9.08-.962,5.519.921,6.66,6.1-.783,6.1-.783l1.481-14.3Z" transform="translate(-2071.684 -1302.638)"/><path class="e" d="M2118.953,1184.636c0-2.483-.718-4.5-1.6-4.5a.6.6,0,0,0-.218.042c-1.81.344-14.382,2.7-18.743,2.7-4.7,0-16.09-2.744-17.24-2.744v10.7s31.749-.67,36.208-1.7a.651.651,0,0,0,.313-.089c.134-.05.2-.1.2-.151v-.005C2118.5,1188.278,2118.953,1186.605,2118.953,1184.636Z" transform="translate(-2078.604 -1180.14)"/><path class="f" d="M2078.388,1185.488c0,2.954-.718,5.349-1.6,5.349s-1.6-2.395-1.6-5.349.718-5.349,1.6-5.349S2078.388,1182.534,2078.388,1185.488Z" transform="translate(-2074.24 -1180.139)"/><path class="g" d="M2114.446,1212.882a6.91,6.91,0,0,0-6.452-6.469c-6.729-.437-16.852-1.01-18.425-.624-2.389.586-8.18,19.578-8.18,19.578l4.432,1.288s3.333,5.2-1.221,14.389-5.543,21.94,2.878,23.357,26.691.215,28.382-2.574C2117.193,1259.628,2115.305,1226.717,2114.446,1212.882Z" transform="translate(-2078.604 -1198.801)"/><g transform="translate(1.649 1.009)"><path class="h" d="M2078.954,1191.816h-.008c-.763-.027-1.071-5.7-.212-5.338.348.151.348,1.754.317,2.7a.13.13,0,0,1-.26-.008,8.932,8.932,0,0,0-.144-2.417c-.325.554-.1,4.49.312,4.807a.931.931,0,0,0,.1-.169c.58-1.215.355-5.654-.213-6.945-.479-1.089-.774,1.187-.774,2.457a.129.129,0,0,1-.13.13h0a.129.129,0,0,1-.13-.13c0-3.329.906-3.389,1.271-2.561.6,1.362.825,5.873.209,7.161C2079.261,1191.577,2079.147,1191.816,2078.954,1191.816Z" transform="translate(-2077.818 -1183.893)"/></g></g><path class="i" d="M2109.013,1719.643v.581l7.287.215-.223-1.151-6.122-.458Z" transform="translate(-2084.288 -1559.523)"/><path class="j" d="M2136.929,1148.958c2.568-.95,4.451,1.705,4.491,1.727a7.567,7.567,0,0,0-1-.734,3.211,3.211,0,0,0-2.949-.312.715.715,0,0,0-.173.1Z" transform="translate(-2104.7 -1142.682)"/><path class="k" d="M2185.226,1225.955c6.249,1.176,14.812,14.939,14.812,14.939l-6.1,7.393s-5.744-2.424-6.814-6.411S2181.287,1225.214,2185.226,1225.955Z" transform="translate(-2138.893 -1199.11)"/><path class="b" d="M2145.46,1375.394c.57,6.352,6.572,45.324,6.572,45.324l-7.385,42s.577,1.726,4.412,1.726,8.246,3.068,8.246,3.068h-16.491l.959-4.794.959-39.311-9.492-26.368s-4.89-11.6-7.1-12.848l-4.314-9.205s0-.174-.009-.491C2129.723,1374.743,2137.512,1375.637,2145.46,1375.394Z" transform="translate(-2093.653 -1307.743)"/><path class="l" d="M2075.023,1222.692s-22.819,11.079-23.833,31.988c0,0,8.431,11.428,13.582,14.946s1.6,9.537,1.6,9.537-1.667,1.73-1.15,1.921,2.552-.917,2.826-1.657a10.724,10.724,0,0,0-1.855,2.138c-.215.579,2.007-.038,2.091-.106.834-.669-.084.068-.084.068s-.267.486.378.724.935.248,1.459-1.171,1.425-9,1.154-9.593-13.01-15.668-10.879-21.429,17.3-17.489,17.383-22.591S2075.023,1222.692,2075.023,1222.692Z" transform="translate(-2042.008 -1196.743)"/><path class="i" d="M2065.128,1236.926l9.508,7.593s14.438-12.255,13.845-15.659,4.279-8.925-1.287-8.925C2080.233,1219.935,2065.128,1236.926,2065.128,1236.926Z" transform="translate(-2052.199 -1194.731)"/><path class="m" d="M2168.106,1369.416l1.931,2.266,8.182,42.453-13.787,3.153-9-30.964,3.963-16.909Z" transform="translate(-2118.23 -1304.031)"/><path class="l" d="M2129.485,1387.153s-8.182,24.545-8.182,31.065-5.177,45.831-5.177,45.831l1.041,5.377-2.118.126-4.7-.354s2.837-6.491,2.837-9.176v-37.969l.256-45.735h18.026Z" transform="translate(-2085.264 -1309.078)"/><path class="n" d="M2131.4,1369.416l-2.691,18.073-5.843,29.8h-14.206l3.539-46.508Z" transform="translate(-2084.026 -1304.031)"/><path class="i" d="M2140.537,1258.313c.118-7.269.444-29.947-.038-32.76-1.234-7.2-17.65-11.038-22.791-3.313-1.862,2.8-2.182,6.383-2.009,9.656.386,7.313,1.575,6.039.831,20.3-.031.587-2.2,13.814-2.2,13.814s19.559,3.63,27.282,1.556Z" transform="translate(-2088.173 -1193.31)"/><g transform="translate(27.579 36.893)"><path class="o" d="M2144.588,1278.079c.04-4.429.061-9.024.03-12.65-10.542-3.982-20.659-1.092-24.988.567.327,4.828,1.018,5.644,1.018,11.756C2127.509,1275.666,2140.992,1277.525,2144.588,1278.079Z" transform="translate(-2119.63 -1263.42)"/></g><path class="l" d="M2164.018,1182.582s-1.678,7.383-1.438,9.445-4.746,2.589-6.568,1.246-1.432-4.267-.788-5.657,2.274-12.2,2.274-12.2Z" transform="translate(-2117.685 -1162.18)"/><path class="b" d="M2164.763,1175.418a9.906,9.906,0,0,1-.141,2.732c1.018,1.657,1.792,3.6,2.777,4.634a4.27,4.27,0,0,0,3.526,1.452c.205-.988.356-1.654.356-1.654Z" transform="translate(-2124.949 -1162.18)"/><path class="p" d="M2195.861,1227.936a14.252,14.252,0,0,0,1.875-7.4c.2-7.894-.644-35.062-7.811-38.407l.457,4.108c5.781,3.551,5.4,27.459,5.159,34.232C2195.51,1224.365,2195.861,1227.936,2195.861,1227.936Z" transform="translate(-2143.451 -1167.087)"/><path class="l" d="M2161.728,1133.728s1.63.671,2.493,4.027,1.822,11.314,0,13.135-4.89,2.877-7.287.48a38.987,38.987,0,0,1-6.232-9.78s-1.726-2.637,2.061-5.417S2161.728,1133.728,2161.728,1133.728Z" transform="translate(-2114.484 -1131.687)"/><path class="j" d="M2148.461,1131.182s4.41.432,5.369.432,2.876,1.246,5.369.575a5.529,5.529,0,0,0,3.836-4.219l-2.445-1.1a1.769,1.769,0,0,1-.527,1.822,2.048,2.048,0,0,1-1.726.719s1.63-.623,1.63-1.582l-2.3-.959s-.144,1.726-1.151,1.726c0,0,.048,0-.432-1.007s-3-1.774-5.622-1.246-3.534,2.157-4.685,2.685a10.366,10.366,0,0,0-2.789,1.438c-.595.595-.231,2.685-.231,2.685s-2.925.623-2.4,3.02,4.685,4.449,5.261,6.223a3.191,3.191,0,0,1-.919,3.126,2.983,2.983,0,0,0,2.418-2.8c0-2.326-2.205-6.305-1.294-6.641s1.582.575,1.918-1.918S2148.461,1131.182,2148.461,1131.182Z" transform="translate(-2107.161 -1126.169)"/><path class="l" d="M2160.835,1161.533c0-.192.1-2.253-1.486-2.253s-1.964,2.693-.719,4.171S2160.835,1162.828,2160.835,1161.533Z" transform="translate(-2120.027 -1150.38)"/><path class="b" d="M2162.225,1163.117c-.02-.422-.268-1.871-1.362-1.136s-.292,3.5.6,2.9A1.652,1.652,0,0,0,2162.225,1163.117Z" transform="translate(-2121.813 -1152.205)"/><path class="i" d="M2191.2,1720.535h16.835l-.256.709H2191.2Z" transform="translate(-2144.383 -1560.769)"/><path class="g" d="M2222.218,1705.807c-.247.246,0,3.959,0,3.959h4.272l.389-2.549Z" transform="translate(-2166.983 -1550)"/><path class="g" d="M2109.013,1711.313s5.141-1.807,7.177.228l-.659-3.406s-1.783-1.589-5.543.031Z" transform="translate(-2084.288 -1551.193)"/><g transform="translate(47.415 8.878)"><path class="q" d="M2193.432,1164.68c-.072-.327.451-.242,1.3-.488a37.759,37.759,0,0,0-1.294-4.739.194.194,0,0,1,.369-.123c1.527,4.565,1.3,5.083,1.323,5.172C2193.948,1164.7,2193.506,1165.014,2193.432,1164.68Zm1.5-.334h0Z" transform="translate(-2193.425 -1159.196)"/></g><path class="r" d="M2186.078,1185.5a9.293,9.293,0,0,0,3.679-.1l-.34.3-.081,1.03a7.974,7.974,0,0,1-2.269-.324A2.228,2.228,0,0,1,2186.078,1185.5Z" transform="translate(-2140.638 -1169.483)"/><path class="q" d="M2178,1153.5v.486a10.56,10.56,0,0,1,2.951-.109A6.618,6.618,0,0,0,2178,1153.5Z" transform="translate(-2134.729 -1146.142)"/><path class="q" d="M2196.573,1150.786l.183.451a6.558,6.558,0,0,0-2.192.772A4.191,4.191,0,0,1,2196.573,1150.786Z" transform="translate(-2146.843 -1144.169)"/><g transform="translate(44.743 9.213)"><path class="q" d="M2183.955,1162.1c-.259,0-.47-.37-.47-.827s.21-.827.47-.827C2184.576,1160.445,2184.576,1162.1,2183.955,1162.1Z" transform="translate(-2183.485 -1160.445)"/></g><g transform="translate(49.055 8.387)"><path class="q" d="M2199.99,1159.023c-.622,0-.622-1.653,0-1.653S2200.611,1159.023,2199.99,1159.023Z" transform="translate(-2199.524 -1157.37)"/></g><path class="p" d="M2117.616,1186.786c2.786,0,6.056,2.043,6.065,8.476.02,7.9-1.442,35.038-8.684,38.219l.551-4.1c5.86-3.418,6.021-27.329,5.937-34.105.058-3.9-3.348-8.021-7.159-8.9Z" transform="translate(-2088.173 -1170.198)"/><g transform="translate(0 73.809)"><path class="p" d="M2035.216,1424.153a.265.265,0,0,1-.067-.009c-8.437-2.251-12.915-8.417-15.186-13.193a33.345,33.345,0,0,1-2.932-9.911.26.26,0,0,1,.517-.049,32.786,32.786,0,0,0,2.891,9.752c2.224,4.672,6.6,10.7,14.844,12.9a.26.26,0,0,1-.067.51Z" transform="translate(-2017.03 -1400.756)"/></g></g><g transform="translate(2096.288 1127.362)"><path class="s" d="M2365.632,1437.8c0-.016.006-.029.009-.045l5.456-38.141a.512.512,0,0,0-.008-.186l-3.5-14.957c-7.044.545-14.087.654-21.13.67-2.118,5-4.826,11.75-4.826,13.584,0,2.85,3.843,31.455,4.419,33.865a.5.5,0,0,1-.061.38,6.265,6.265,0,0,0-.83,3.188c0,1.709,3.006,21.786,4.088,28.963q1.373,0,2.747-.008c.394-8.275,1.659-33.745,2.982-57.971a.516.516,0,0,1,.555-.482l.838.057a.515.515,0,0,1,.482.479c1.937,31.119,2,29.469,1.556,29.717a2.873,2.873,0,0,0-1.244,2.2c-.283,1.672-.528,19.12-.614,25.973q1.318-.011,2.636-.026C2360.754,1457.746,2365.453,1438.53,2365.632,1437.8Z" transform="translate(-2333.636 -1316.231)"/><path class="t" d="M2338.658,1247.82c.072,1.969-.486,4.367-2.295,5.227l-.5-1.211c1.537-.286,2.338-2.5,2.576-4.012Z" transform="translate(-2329.416 -1216.313)"/><path class="q" d="M2328.294,1242.159c-.706.483-5.913,4.381-5.913,4.381l-.489-.87,3.6-2.372-3.935,1.8-.179-1.974,4.2-.4c.074-.607-4.23-.27-4.23-.27l1.011-2.758c.893,1.373,4.37,2.487,6.54,1.657.016.064.165.14.177.2C2328.891,1241.584,2328.494,1242.022,2328.294,1242.159Z" transform="translate(-2318.803 -1210.375)"/><path class="q" d="M2367.568,1167.953c.859-5.11-4.122-7.052-5.825-7.561-.345-.1-.555-.148-.555-.148-3.039-.4-4.608,1.627-5.978,3.719s-.361,3.1-.721,4.97-1.731.512-2.525,2.644,1.226,2.485.649,3.836-2.562,3.771-2.562,5.581c0,1.3-.632,1.482-.666,1.931.063.009.361.351.423.364.128-.392.954-.748,1.253-1.047,1.934-1.934,7.081-.893,7.081-3.278s5.254-4.108,8.327-5.624S2367.568,1167.953,2367.568,1167.953Z" transform="translate(-2339.307 -1152.24)"/><path class="c" d="M2368.681,1167.953c.859-5.11-4.122-7.052-5.824-7.561-.345-.1-.555-.148-.555-.148a5.613,5.613,0,0,0-.963-.047,10.724,10.724,0,0,1,3.971,5.949c1.149,5.029-4.055,8.925-6.485,9.79s-1.028,2.455-2.144,3.571c-1.073,1.073-4.987-.058-5.772,3.416,0,.15.232.349.232.349.108-.535.645-.643,1.035-1.032,1.934-1.934,7.081-.893,7.081-3.278s5.254-4.108,8.327-5.624S2368.681,1167.953,2368.681,1167.953Z" transform="translate(-2340.42 -1152.24)"/><path class="u" d="M2345.95,1242.237a7.391,7.391,0,0,0-.847,1.135c-.12.25.062.9.329.691s1.3-.658,1.436-.9S2346.578,1241.7,2345.95,1242.237Z" transform="translate(-2336.148 -1212.133)"/><path class="p" d="M2366.661,1711.9l.2.913s3.258,1.313,4.214,1.054l.134-.6Z" transform="translate(-2351.938 -1555.645)"/><path class="p" d="M2394.644,1708.583l.252.753,7.925.554v-.514Z" transform="translate(-2372.399 -1553.222)"/><path class="c" d="M2363.564,1174.769a13.454,13.454,0,0,0-1.112-2.735c-.916-1.832-3.664-3.068-2.878-5.917s3.4-2.25,4.318-4.479,7.948-1.281,9.747.518,1.832,6.163,2.617,8.642-2.944,4.573-4.646,4.573S2363.564,1174.769,2363.564,1174.769Z" transform="translate(-2346.654 -1152.346)"/><path class="v" d="M2428.474,1260.254c0-.324-2.536-9.621-6.174-12.291a17.034,17.034,0,0,0-6.249-3.144l5.7,19.209,2.128,3.735Z" transform="translate(-2388.052 -1214.118)"/><path class="l" d="M2367.85,1686.893a.494.494,0,0,1-.026.25,19.9,19.9,0,0,0-1.249,4.628c0,1.036,2.536,1.471,3.868,1.734.364.072.763-.026.692-.384-.316-1.586-1.03-5.236-1.03-5.867,0-.079.045-1.072.127-2.779q-1.374,0-2.747.008C2367.672,1685.719,2367.8,1686.583,2367.85,1686.893Z" transform="translate(-2351.875 -1535.594)"/><path class="s" d="M2365.632,1437.8c0-.016.006-.029.009-.045l5.456-38.141a.512.512,0,0,0-.008-.186l-3.5-14.957c-7.044.545-14.087.654-21.13.67-2.118,5-4.826,11.75-4.826,13.584,0,2.85,3.843,31.455,4.419,33.865a.5.5,0,0,1-.061.38,6.265,6.265,0,0,0-.83,3.188c0,1.709,3.006,21.786,4.088,28.963q1.373,0,2.747-.008c.394-8.275,1.659-33.745,2.982-57.971a.516.516,0,0,1,.555-.482l.838.057a.515.515,0,0,1,.482.479c1.937,31.119,2,29.469,1.556,29.717a2.873,2.873,0,0,0-1.244,2.2c-.283,1.672-.528,19.12-.614,25.973q1.318-.011,2.636-.026C2360.754,1457.746,2365.453,1438.53,2365.632,1437.8Z" transform="translate(-2333.636 -1316.231)"/><path class="w" d="M2376.8,1437.8a.464.464,0,0,0,.009-.046l5.456-38.141a.507.507,0,0,0-.008-.186l-3.5-14.957c-7.044.545-14.087.654-21.13.67-.235.553-.476,1.129-.721,1.717,6.31,1.369,17.889,5.24,20.013,15.413,2.946,14.118-1.38,40.714-1.383,40.73C2376.242,1440.075,2376.742,1438.029,2376.8,1437.8Z" transform="translate(-2344.803 -1316.231)"/><path class="l" d="M2402.36,1690.98c-2.23-.817-5.326-2.3-5.1-4.164.05-.41.228-1.314.492-2.545q-1.318.016-2.636.026c-.019,1.471-.03,2.464-.033,2.7a.479.479,0,0,1-.012.1,34.182,34.182,0,0,0-.695,3.771c0,.753,1.7.184,2.884.521a28.254,28.254,0,0,0,4.98.413C2402.78,1691.737,2402.869,1691.167,2402.36,1690.98Z" transform="translate(-2372.205 -1535.445)"/><path class="f" d="M2348.675,1290.4l-3.549-25.246c.469-4.066,1.179-4.974.022-10.925-.774-3.979-1.97-8.275-3-9.284-1.907-1.877-8.264-1.277-8.853-1.217a.5.5,0,0,1-.087,0c-.719-.047-10.218-.542-14.745,6.142a89.684,89.684,0,0,0-6.579,11.968c2.325,1.719,5.815,3.2,7.61,5.442,2.2-4.556,3.048-7.156,4.5-6.407,1.67.861-4.49,23.925-4.116,28.257C2325.93,1288.644,2342.719,1289.283,2348.675,1290.4Z" transform="translate(-2311.889 -1213.221)"/><path class="x" d="M2384.473,1290.4l-3.549-25.246c.469-4.066,1.179-4.974.022-10.925-.774-3.979-1.97-8.275-3-9.284-1.907-1.877-8.264-1.277-8.853-1.217a.492.492,0,0,1-.087,0,21.66,21.66,0,0,0-8.164,1.206,49.2,49.2,0,0,1,10.776,16.88c3.277,9.267-2.747,22.921-4.854,27.23A143.553,143.553,0,0,1,2384.473,1290.4Z" transform="translate(-2347.687 -1213.221)"/><path class="l" d="M2377.667,1216.965c0,.867.128,8.628,1.22,11.443s4.782,1.106,5.4.381.514-11.823.514-11.823Z" transform="translate(-2359.986 -1193.751)"/><path class="b" d="M2377.808,1221.017a7.64,7.64,0,0,0,1.973,1.309,4.887,4.887,0,0,0,5-.6c.137-2.488.013-4.764.013-4.764h-7.129C2377.667,1217.341,2377.691,1219.014,2377.808,1221.017Z" transform="translate(-2359.986 -1193.751)"/><path class="b" d="M2369.56,1194.322s-1.246-2.409-1.818-1.331.8,5.031,1.65,4.175S2369.56,1194.322,2369.56,1194.322Z" transform="translate(-2352.629 -1176.018)"/><path class="b" d="M2409.792,1190.655s1.213-2.521,1.835-1.426-.67,5.208-1.577,4.353S2409.792,1190.655,2409.792,1190.655Z" transform="translate(-2383.311 -1173.27)"/><path class="l" d="M2374.364,1169.519a4.052,4.052,0,0,0-2.486,3.542c0,2.551.72,2.944.393,4.906s-.72,5.692,3.729,7.458,7.392-3.729,7.392-5.953-.588-1.963,0-4.383S2380.383,1166.305,2374.364,1169.519Z" transform="translate(-2355.753 -1158.41)"/><path class="m" d="M2371.7,1165.235a4.627,4.627,0,0,1-2.355,4.776c-2.944,1.57-6.276,4-6.6,6.488s.52,1.807.52,1.807l-.262,1.19s-.785.981-1.636-1.766a5.259,5.259,0,0,1,1.309-4.906s1.374-3.159,2.159-5.668S2371.7,1165.235,2371.7,1165.235Z" transform="translate(-2347.917 -1155.882)"/><path class="m" d="M2399.627,1165.143c-.443.137-.458,2.617.916,3.991s3.4,6.817,3.4,10.441a9.627,9.627,0,0,1-1.832,5.818l1.112.489s1.832-4.8,1.832-7.667S2403.635,1163.9,2399.627,1165.143Z" transform="translate(-2375.847 -1155.79)"/><path class="y" d="M2466.042,1222.448s-.246-1.985-.969-2.453-1.377.867-1.377.867a1.027,1.027,0,0,0-1.072.149c-.55.423-.25.662-.848.732s-.66-.248-.959.077,1.311,3.6,1.25,5.514-8,9.383-10.613,12.224-7.629,8.185-6.254,10.2,10.287-4.318,15.473-12.275A31.837,31.837,0,0,0,2466.042,1222.448Z" transform="translate(-2409.194 -1195.895)"/><path class="y" d="M2338.641,1243.062s2.218-.061,3.017.6-.351,1.536-.351,1.536a1.122,1.122,0,0,1,.288,1.113c-.222.626-.6.358-.427.978s.539.633.317.987-4.381-.77-6.4-.408-6.667,9.606-8.607,12.707-5.546,9.04-8.261,7.957.32-11.138,6.64-17.658A27.843,27.843,0,0,1,2338.641,1243.062Z" transform="translate(-2315.79 -1212.832)"/><g transform="translate(14.86 154.279)"><path class="z" d="M2371.345,1705.924l.006-.409c-1.515.421-3.388-.522-4.139-.956l-.042.43a7.186,7.186,0,0,0,3.356,1.032A2.853,2.853,0,0,0,2371.345,1705.924Z" transform="translate(-2367.17 -1704.559)"/></g><g transform="translate(17.439 155.489)"><path class="z" d="M2377.106,1710.367a.2.2,0,0,1-.192-.164l-.146-.918a.195.195,0,1,1,.384-.061l.146.918a.2.2,0,0,1-.162.223Z" transform="translate(-2376.766 -1709.06)"/></g><g transform="translate(27.164 154.727)"><path class="z" d="M2413.334,1707.794h-.389c0-.786,1.226-1.476,1.395-1.568l.392.235C2414.176,1706.768,2413.334,1707.373,2413.334,1707.794Z" transform="translate(-2412.945 -1706.226)"/></g><path class="q" d="M2390.5,1206.082s.943-.92,1.344-.731a4.607,4.607,0,0,1,1.038,1.037s-.849-.731-1.191-.731A4.489,4.489,0,0,0,2390.5,1206.082Z" transform="translate(-2369.367 -1185.24)"/><path class="aa" d="M2376.27,1283.725H2401.7l2.247,15.58-23.318-.907Z" transform="translate(-2358.964 -1242.566)"/><path class="s" d="M2376.27,1283.725l2.2,1.871h27.061l-3.827-1.871Z" transform="translate(-2358.964 -1242.566)"/><path class="ab" d="M2396.718,1188.942l-12.26,26.161h27.061l12.232-27.786Z" transform="translate(-2364.951 -1172.073)"/><path class="y" d="M2338.641,1243.062s2.218-.061,3.017.6-.351,1.536-.351,1.536a1.122,1.122,0,0,1,.288,1.113c-.222.626-.6.358-.427.978s.539.633.317.987-4.381-.77-6.4-.408-6.667,9.606-8.607,12.707-5.546,9.04-8.261,7.957.32-11.138,6.64-17.658A27.843,27.843,0,0,1,2338.641,1243.062Z" transform="translate(-2315.79 -1212.832)"/><path class="ab" d="M2396.718,1188.942l-12.26,26.161h27.061l12.232-27.786Z" transform="translate(-2364.951 -1172.073)"/><path class="y" d="M2400.58,1249.16c.222-.354.012-.367-.163-.987s.051-.352.272-.978a1.121,1.121,0,0,0-.288-1.113s1.149-.873.351-1.536a1.785,1.785,0,0,0-.513-.28l-2.2,4.684A7.012,7.012,0,0,0,2400.58,1249.16Z" transform="translate(-2374.885 -1213.715)"/><path class="y" d="M2506.689,1219.318c-.871-.608-1.419.762-1.419.762a1.148,1.148,0,0,0-1.176.019c-.557.388-.19.69-.849.686s-.77-.36-1.059-.045c-.275.3,1.331,3.554,1.691,5.685l3.421-6.479A2.1,2.1,0,0,0,2506.689,1219.318Z" transform="translate(-2451.011 -1195.358)"/><path class="q" d="M2382.345,1197.455c0,.391-.169.708-.377.708s-.378-.317-.378-.708.169-.708.378-.708S2382.345,1197.064,2382.345,1197.455Z" transform="translate(-2362.854 -1178.968)"/><path class="q" d="M2402.326,1197.846c0,.391-.169.708-.377.708s-.378-.317-.378-.708.169-.708.378-.708S2402.326,1197.455,2402.326,1197.846Z" transform="translate(-2377.464 -1179.254)"/><path class="q" d="M2381.288,1191.928s-.377-1.364-1.3-1.07-1.133.881-.755.881.839-.482,1.259-.367A1.981,1.981,0,0,1,2381.288,1191.928Z" transform="translate(-2361 -1174.632)"/><path class="q" d="M2400.542,1190.221s.124-1.41,1.085-1.289,1.274.661.9.729-.913-.321-1.3-.132A1.98,1.98,0,0,0,2400.542,1190.221Z" transform="translate(-2376.712 -1173.248)"/><g transform="translate(20.708 23.088)"><path class="q" d="M2390.434,1217.047a7.515,7.515,0,0,1-1.406-.132.126.126,0,0,1,.051-.246,6.271,6.271,0,0,0,3.078-.162.128.128,0,0,1,.164.07.126.126,0,0,1-.07.164A4.918,4.918,0,0,1,2390.434,1217.047Z" transform="translate(-2388.927 -1216.499)"/></g><g transform="translate(21.506 23.991)"><path class="q" d="M2392.715,1220.192a2.877,2.877,0,0,1-.729-.09.126.126,0,0,1,.069-.242,2.682,2.682,0,0,0,1.274,0,.124.124,0,0,1,.156.087.126.126,0,0,1-.087.155A2.524,2.524,0,0,1,2392.715,1220.192Z" transform="translate(-2391.895 -1219.856)"/></g><g transform="translate(21.411 1.818)"><path class="p" d="M2402.546,1147.379a.259.259,0,0,1-.244-.172c-3.146-8.795-10.442-9.317-10.516-9.322a.26.26,0,1,1,.03-.518,11.066,11.066,0,0,1,4.265,1.375,14.658,14.658,0,0,1,6.711,8.29.26.26,0,0,1-.245.347Z" transform="translate(-2391.541 -1137.367)"/></g><g transform="translate(28.601 0)"><path class="p" d="M2426.476,1141.224a.26.26,0,0,1-.248-.183,17.188,17.188,0,0,0-7.793-9.944.26.26,0,1,1,.23-.466,17.756,17.756,0,0,1,8.059,10.256.259.259,0,0,1-.171.324A.245.245,0,0,1,2426.476,1141.224Z" transform="translate(-2418.291 -1130.605)"/></g><path class="ac" d="M2341.631,1434.864c0,.314.047.944.131,1.817l7.108,3.027v-1.472l-7.1-4.342A4.862,4.862,0,0,0,2341.631,1434.864Z" transform="translate(-2333.636 -1352.37)"/></g></g></svg>