<svg xmlns="http://www.w3.org/2000/svg" width="203.103" height="147.851" viewBox="0 0 203.103 147.851"><defs><style>.a{fill:#c2d6ff;}.b{fill:#18287d;}.c{fill:#ff9739;}.d{fill:#fd5e5a;}.e{fill:#0f1d5b;}.f{fill:#cd3179;}.g{fill:#749cfe;}.h{fill:#2846a6;}.i{fill:#6068b2;}.j{fill:#fc7575;}.k{fill:#757ad8;}.l{fill:#9195e0;}.m{fill:#fff;}.n{fill:#111f59;}.o{fill:#ffcb57;}.p{fill:#4c3115;}.q{fill:#38200a;}.r{fill:#474644;}.s{fill:#282725;}.t{fill:#6ba843;}.u{fill:#31511c;}.v{fill:#5a9136;}.w{fill:#282b25;}.x{fill:#0b0c0a;}.y{fill:#a02060;}.z{fill:#552e5d;}.aa{fill:#fb8603;}.ab{fill:#1d329e;}.ac{fill:#ecab01;}.ad{fill:#ffda88;}.ae{fill:#4f80ff;}.af{fill:#47254f;}</style></defs><g transform="translate(-234.002 -1106.79)"><g transform="translate(248.966 1248.23)"><path class="a" d="M478.921,1699.546c0,1.77-40.864,3.205-91.272,3.205s-91.272-1.435-91.272-3.205,40.864-3.206,91.272-3.206S478.921,1697.775,478.921,1699.546Z" transform="translate(-296.377 -1696.34)"/></g><g transform="translate(234.002 1106.79)"><path class="b" d="M887.577,1133.522c5.95-3.813,11.664-.537,10.632,2.359.605-2.8-4.936-5.132-9.67-1.12Z" transform="translate(-730.777 -1125.796)"/><path class="b" d="M890.472,1141.606s-.337-1.762-1.6-2.075-4.8-.645-6.672,2.075a6.111,6.111,0,0,1-4.8,2.667,17.064,17.064,0,0,1,1.655,1.3,3.029,3.029,0,0,0,2.372-1.042s-.111.979-2.262,1.636a3.518,3.518,0,0,0,2.7.656,4.4,4.4,0,0,0,2.068-1.146l-.867,1.928a2.658,2.658,0,0,0,2.285-.938C886.617,1145.477,890.472,1141.606,890.472,1141.606Z" transform="translate(-723.04 -1131.52)"/><path class="c" d="M922.558,1148.553s-.382-.987-1.21-.987-3.112.4-3.31,1.511,1.214,1.459,2.593,1.459S922.558,1148.553,922.558,1148.553Z" transform="translate(-753.916 -1137.783)"/><path class="d" d="M937.937,1246.03s2.952-.363,4.193.808,3,20.208,7.787,21.178c0,0,5.722-1.478,8.3-3.314,2.824-2.011,3.679-3.8,3.679-4.729a3.521,3.521,0,0,1,1.541-2.465c.385,0,.342.687.342.687s3.123-3.435,3.637-2.95-1.754,2.708-1.754,2.708,2.439-2.708,2.952-2.708-.168,1.284-.9,1.974c0,0,1.155-.653,1.5,0s-2.61,3.442-3.38,5.1-1.934,1-2.31,1.576c-5.648,8.568-15.7,11.3-18.141,7.841S933.958,1247,937.937,1246.03Z" transform="translate(-768.293 -1212.584)"/><path class="e" d="M942.13,1246.839c-1.241-1.172-4.193-.808-4.193-.808-1.741.424-1,4.736.588,9.741,1.754-.743,3.457-1.8,5.241-2.5C943.08,1249.943,942.573,1247.256,942.13,1246.839Z" transform="translate(-768.293 -1212.584)"/><path class="f" d="M1057.515,1292.157c-.474.494-.837.9-.837.9S1057.085,1292.654,1057.515,1292.157Z" transform="translate(-859.308 -1247.685)"/><path class="g" d="M1047,1278.544l-3.658,7.4,2.728,1.3,5.423-7.184Z" transform="translate(-849.175 -1237.338)"/><path class="h" d="M1060.92,1279.13l-4.5-1.6-.77.242,4.493,1.516-5.423,7.184.642-.172Z" transform="translate(-857.817 -1236.57)"/><path class="d" d="M1043.444,1294.042a1.124,1.124,0,0,1,.984.748c.214.707,0,.93-.321.93s-.556-.687-.813-.687a4.642,4.642,0,0,0-1.1.472S1042.845,1294.224,1043.444,1294.042Z" transform="translate(-848.299 -1249.118)"/><path class="d" d="M770.87,1605.526l-1.6,1.93s-.578.485.578,1.819a6.742,6.742,0,0,1,1.5,4c0,.829,2.075,1.5,2.075,1.5s-1.348-5.6-.77-7.255c.3-.86,6.688-9.046,13.081-17.186a44,44,0,0,0-5.325-3.483C776.068,1595.266,770.87,1605.526,770.87,1605.526Z" transform="translate(-640.746 -1471.676)"/><path class="i" d="M846.557,1427.306a38.407,38.407,0,0,1-12.652-5.818c-2.635,7.005-4.914,15.557-4.914,24.026,0,0-5.446,1.206-7.885,5.45-.865,1.5-3.124,5.573-5.508,10.2a43.709,43.709,0,0,0,5.457,4.088c5.934-7.554,11.872-15.672,12.954-17.248C835.572,1445.722,841.97,1435.345,846.557,1427.306Z" transform="translate(-676.066 -1345.988)"/><path class="j" d="M927.133,1213.235a5.442,5.442,0,0,1-.689-1.936s1.826-4.042,2.582-6.143-4.183-2.639-4.183-2.639-1,5.927-3.817,8.615C922.793,1213.009,924.907,1213.266,927.133,1213.235Z" transform="translate(-756.201 -1179.55)"/><path class="d" d="M935.625,1202.516s-.128.748-.413,1.824a6.987,6.987,0,0,0,3.286,2.821l.446.185c.331-.8.644-1.576.865-2.19C940.564,1203.054,935.625,1202.516,935.625,1202.516Z" transform="translate(-766.983 -1179.55)"/><path class="k" d="M886.441,1389.089c3.773,2.725,9.419,5.845,13.963,7.056.587-1.028,1.145-2.019,1.658-2.949a28.355,28.355,0,0,0,3.01-8.283c-4.544-.812-8.781-3.073-12.989-4.422C890.741,1383.131,887.883,1385.256,886.441,1389.089Z" transform="translate(-729.913 -1314.828)"/><path class="j" d="M982.206,1609.71a32.861,32.861,0,0,0-6.414,2.416c4.453,9.3,9.565,19.532,9.565,19.532s-1,2.389-.632,2.738,4.258.138,4.868.138,4.37.181,4.37.181l-5.627-2.566C987.873,1631.549,984.954,1620.437,982.206,1609.71Z" transform="translate(-797.828 -1489.054)"/><path class="k" d="M907.325,1430.325c-.642-2.485-6.013-18.148-8.662-25.831a6.956,6.956,0,0,0-7.321-4.5c-4.137.416-8.682,2.44-7.071,9.68,0,0,13.555,18.626,14.411,20.888s-.856,2.749,1.027,8.245a118.9,118.9,0,0,0,5.5,14.763,44.48,44.48,0,0,1,7.286-3.293C910.1,1440.929,907.723,1431.868,907.325,1430.325Z" transform="translate(-728.011 -1329.626)"/><path class="l" d="M930.782,1430.159c-1.022-2.864-5.566-14.9-8.957-25.651a6.924,6.924,0,0,0-7.026-4.675,7.014,7.014,0,0,1,7.672,4.476C924.81,1410.559,929.333,1423.8,930.782,1430.159Z" transform="translate(-751.468 -1329.46)"/><path class="m" d="M1050.181,1281.366l3.22,1.081-4.278,6.09-2.094-1.053,2.049.911,4.142-5.891Z" transform="translate(-851.974 -1239.483)"/><path class="d" d="M1055.029,1303.826a9.891,9.891,0,0,1,1.573-1.283c.813-.505,1.857-1.812,1.541-2.223s-3.209-.243-3.551.364,1.659.307,1.8.444A15.826,15.826,0,0,1,1055.029,1303.826Z" transform="translate(-857.692 -1253.72)"/><g transform="translate(138.691 41.316)"><path class="n" d="M823.489,1279.032c-.1.073-9.556,7.352-11.393,17.278a.128.128,0,0,0,.11.148l.023,0a.133.133,0,0,0,.133-.106c1.82-9.829,11.2-17.05,11.3-17.122a.123.123,0,0,0,.02-.18A.142.142,0,0,0,823.489,1279.032Z" transform="translate(-812.094 -1279.004)"/></g><path class="j" d="M937.955,1168.1s2.888-.243,3.337,1.88-1.262,4.062-.834,4.87a3.444,3.444,0,0,0,1.637,1.359c.257.106-.225.8-.642.955,0,0-.184.387-.064.5s.417.318.321.591-.594.409-.594.409.49.477.241.712a2.118,2.118,0,0,1-.77.364s.129,1.076-.417,1.394-2.193-.1-3.6-.667c-.342-.137-.816-.322-1.339-.522a6.507,6.507,0,0,1-4.318-6.076C930.959,1170.541,932.226,1166.858,937.955,1168.1Z" transform="translate(-763.711 -1153.202)"/><path class="h" d="M921.069,1154.457a2.428,2.428,0,0,1,.874,2c0,1.3-.161,1.455-.161,1.455h1.733a7.159,7.159,0,0,0,.192-2.091,16.159,16.159,0,0,1,.225,2.091h4.212s.858-4.971-3.218-7.76-8.824-.3-8.824-.3-3.209-.3-4.461,2.031-1.731,8.647.283,10.8c.977,1.045,5.844,1.593,6.261-1.105a6.169,6.169,0,0,1,1.766-3.787,2.786,2.786,0,0,1,.77,2.061,13.207,13.207,0,0,0,.032-3.486C920.5,1154.76,921.069,1154.457,921.069,1154.457Z" transform="translate(-748.244 -1138.744)"/><path class="h" d="M968.413,1210.184c-.275.271.645.494,1.089.569-.345-.029-1.16-.115-1.244-.432-.028-.116.055-.3.149-.233a.061.061,0,0,1,.013.089l-.005.005Z" transform="translate(-792.098 -1185.295)"/><path class="h" d="M968.571,1195.706a.486.486,0,0,1-.317.588Z" transform="translate(-792.098 -1174.374)"/><path class="e" d="M964.345,1193.967a3.2,3.2,0,0,0,2.187-.256C966.259,1194.274,965.015,1194.343,964.345,1193.967Z" transform="translate(-789.127 -1172.858)"/><path class="o" d="M923.075,1248.78c-1.426-1.347-6.226-4.937-8.039-8.249-2.226.031-4.34-.226-6.107-2.1a5.232,5.232,0,0,1-1,.773c-3.594,2.062,0,13.216,0,13.216s2.8,13.169,1.854,14.065a21.463,21.463,0,0,0-4.673,6.029c3.337,3.152,11.229,6.3,15.774,7.116.13-.665.794-21.2,1.675-23.248C923.845,1253.387,924.786,1250.4,923.075,1248.78Z" transform="translate(-744.103 -1206.847)"/><g transform="translate(0 71.977)"><path d="M245.331,1530.689c-5.577-3.326-8-9.306-5.408-13.6s9.281-5.367,15.15-2.525l.718-1.188c-6.576-3.214-14.129-1.92-17.122,3.036s-.329,11.757,5.945,15.469Z" transform="translate(-236.615 -1486.468)"/><path d="M245.331,1530.689c-5.577-3.326-8-9.306-5.408-13.6s9.281-5.367,15.15-2.525l.718-1.188c-6.576-3.214-14.129-1.92-17.122,3.036s-.329,11.757,5.945,15.469Z" transform="translate(-236.615 -1486.468)"/><path d="M249.107,1536.742c-6.048-3.5-9.338-8.817-7.37-12.075s8.485-3.287,14.755-.151l.544-.9c-7.029-3.538-14.38-3.434-16.649.323s1.376,9.789,8.177,13.7Z" transform="translate(-238.342 -1493.633)"/><path class="p" d="M234.361,1523.085l3.928-.835s-1.024-4.612,4.3-6.917l-1.562-3.687a10.856,10.856,0,0,0-6.075,5.093A8.6,8.6,0,0,0,234.361,1523.085Z" transform="translate(-234.002 -1486.493)"/><path class="q" d="M249.5,1532.884l.48-.1s-1.024-4.612,4.3-6.917l-.154-.362C248.866,1527.552,249.277,1531.725,249.5,1532.884Z" transform="translate(-245.698 -1497.025)"/><path class="r" d="M437.05,1410.619l-17.25,28.56-2.772-1.494,17.25-28.56Z" transform="translate(-373.117 -1408.568)"/><path class="s" d="M439.4,1409.125h0l1.618.872-17.25,28.56,1.155.623,17.25-28.56Z" transform="translate(-378.243 -1408.568)"/><path class="t" d="M304.434,1499.391a2.958,2.958,0,0,0-1.061-4.091q-.532-.32-1.086-.619c-12.48-6.726-28.37-2.622-35.49,9.167s-2.776,26.8,9.7,33.525q.554.3,1.117.568a3.335,3.335,0,0,0,4.268-1.218Z" transform="translate(-256.326 -1471.141)"/><path class="u" d="M359.556,1494.775a27.125,27.125,0,0,0-22.2-2.33,27.475,27.475,0,0,1,21.995,2.644,2.786,2.786,0,0,1,1.334,3.525c-.169.452-13.637,22.457-22.564,37.827,4.692-7.475,22.648-36.864,22.951-37.687A3.156,3.156,0,0,0,359.556,1494.775Z" transform="translate(-312.557 -1470.86)"/><path class="v" d="M336.133,1495.3q-.532-.32-1.086-.619a27.324,27.324,0,0,0-22.648-1.437,26.928,26.928,0,0,1,12.146,2.89q.873.442,1.694.937a2.967,2.967,0,0,1,1.051,4.1l-20.816,34.465a26.441,26.441,0,0,0,2.788,1.732q.554.3,1.116.568a3.334,3.334,0,0,0,4.268-1.218l22.549-37.332A2.958,2.958,0,0,0,336.133,1495.3Z" transform="translate(-289.086 -1471.142)"/><path class="w" d="M335.709,1530.393c-.113-.063-.226-.127-.341-.189-9.4-5.067-20.981-2.62-25.864,5.464s-1.22,18.746,8.181,23.813c.116.062.232.118.349.177Z" transform="translate(-289.746 -1498.592)"/><path class="x" d="M356.209,1530.21c-7.2-3.882-15.68-3.349-21.449.745a21.2,21.2,0,0,1,18.073,1.127c.115.062.228.126.341.189l-15.968,26.437c.428.271.865.532,1.32.778.116.062.232.118.349.177L356.55,1530.4C356.437,1530.336,356.324,1530.272,356.209,1530.21Z" transform="translate(-310.587 -1498.599)"/><path d="M463.3,1417.54l2.772,1.494,6.148-10.179-3.806-2.051Z" transform="translate(-408.292 -1406.805)"/><path d="M319.141,1665.486a4.895,4.895,0,0,1,1.991,6.878,5.51,5.51,0,0,1-7.282,1.881,4.895,4.895,0,0,1-1.991-6.878A5.51,5.51,0,0,1,319.141,1665.486Z" transform="translate(-292.647 -1602.921)"/><path class="r" d="M324.937,1673.754a2.907,2.907,0,0,1,1.182,4.084,3.272,3.272,0,0,1-4.324,1.117,2.907,2.907,0,0,1-1.182-4.085A3.272,3.272,0,0,1,324.937,1673.754Z" transform="translate(-299.517 -1609.41)"/></g><g transform="translate(83.791 74.578)"><path d="M659.649,1668.024a3.794,3.794,0,0,1,1.337,5.072,3.517,3.517,0,0,1-4.89,1.387,3.793,3.793,0,0,1-1.337-5.072A3.517,3.517,0,0,1,659.649,1668.024Z" transform="translate(-637.247 -1607.584)"/><path class="f" d="M600.512,1519.2l-14.978-7.162a3.818,3.818,0,0,1-1.827-5.265l16.184-30.2c3.71-6.922,12.658-9.693,19.986-6.188l9.7,4.638-22.6,42.175A4.944,4.944,0,0,1,600.512,1519.2Z" transform="translate(-583.26 -1456.579)"/><path class="f" d="M658.556,1486.256l-22.464-10.743a2.9,2.9,0,0,1-1.388-4l3.337-6.226a11.621,11.621,0,0,1,15.185-4.7l15.194,7.266Z" transform="translate(-622.104 -1449.408)"/><path class="y" d="M642.065,1535.6l-4.176-2a2.809,2.809,0,0,1-1.344-3.873L655,1495.3a11.253,11.253,0,0,1,14.7-4.553l.123.059-23.262,43.4A3.443,3.443,0,0,1,642.065,1535.6Z" transform="translate(-623.51 -1472.357)"/><g transform="translate(16.75)"><path class="z" d="M751.712,1417.906l-3.935-.237a2.534,2.534,0,0,0-2.379,1.269l-12.844,23.625h2.832l12.468-23.016a2.448,2.448,0,0,1,2.378-1.251l1.209.1-13.284,24.146,1.433.019,12.589-23.046a1.2,1.2,0,0,0-.467-1.612Z" transform="translate(-713.487 -1417.661)"/><path class="z" d="M747.777,1417.656c-2.9-.092-1.864,2.122-15.223,24.894,1.15-2.291,12.179-23.467,13.4-24.363A2.641,2.641,0,0,1,747.777,1417.656Z" transform="translate(-713.487 -1417.647)"/><path class="z" d="M669.405,1521.233l9.776.052-16.052,29.95H653.077Z" transform="translate(-653.077 -1496.382)"/></g><path d="M617.369,1658.291a4.984,4.984,0,0,1,1.757,6.664,4.621,4.621,0,0,1-6.425,1.822,4.984,4.984,0,0,1-1.757-6.664A4.62,4.62,0,0,1,617.369,1658.291Z" transform="translate(-603.831 -1600.069)"/><path class="r" d="M622.482,1666.3a2.96,2.96,0,0,1,1.043,3.957,2.743,2.743,0,0,1-3.815,1.082,2.959,2.959,0,0,1-1.044-3.957A2.744,2.744,0,0,1,622.482,1666.3Z" transform="translate(-609.892 -1606.356)"/></g><path class="d" d="M509.179,1213.926s-1.63-.88-5.97,2.678a71.346,71.346,0,0,0-24.341,40.659l-4.157,4.347s-1.117.389.91,1.025c0,0,.5.993,1.149.872a1.077,1.077,0,0,0,1.036.325c.54-.2.354-.824.354-.824l2.5-5.761s9.192-16.189,13.839-21.853S512.895,1217,509.179,1213.926Z" transform="translate(-416.728 -1188.149)"/><path class="aa" d="M540.328,1228.254l6.325,6.259s12.576-14.994,13.264-17.925.13-3.936-1.276-3.873C552.74,1212.98,540.328,1228.254,540.328,1228.254Z" transform="translate(-466.837 -1187.3)"/><path class="b" d="M574.764,1215.581a7.6,7.6,0,0,0-6.712-1.208c-3.763,1.2-10.423,20.24-12.183,29.3-.271,1.394-2.911,12.469-2.086,15.33,4.534,15.725,22.114,39.675,22.114,39.675l11.957,31.516s-1.012,3.324-.647,4.184,2.246,0,3.824,0,5.645.688,5.948.688,3.277-.745,3.277-.745-6.433-.917-8.619-4.7-6.858-35.089-6.858-35.089-8.6-43.115-8.882-47.415,3.358-27.406,1.841-29.47S574.764,1215.581,574.764,1215.581Z" transform="translate(-476.943 -1188.307)"/><path class="ab" d="M493.568,1391.048l.283,31.916s-11.775,31.419-13.475,33.025-5.974,5.092-5.974,5.092,2.827,1.9,4.489,3.237c2.106,1.7,3.912,1.623,9.01,1.623s-1.475-1.254-2.67-2.384c-2.2-2.079-.971-6.651-.971-6.651l18.816-29.482s8.943-25.633,12.6-26.591l.912-13.072Z" transform="translate(-416.728 -1320.353)"/><path class="g" d="M546.759,1413.78c-3.671,1.342-11.55,23.084-12.755,26.573-.772,1.231-11.938,18.737-18.509,29.614,5.819-8.643,14.759-22.563,19.121-29.347l.013-.036c10.2-28.354,12.3-26.3,12.446-26.576,0-.034.368-6.866.465-9.063C547.258,1407.889,547.019,1410.835,546.759,1413.78Z" transform="translate(-447.961 -1333.414)"/><g transform="translate(64.271 71.433)"><path class="h" d="M519.444,1437.516l.017-.053c.154-1.262,3.762-30.935,3.762-32.761a.171.171,0,0,0-.342,0c0,1.783-3.624,31.61-3.756,32.7l-16.16,30.656-.92-.591q-.078.155-.151.293l3.278,2.109c-.01-.132-.015-.2-.015-.2l.088-.139-2-1.284Z" transform="translate(-501.895 -1404.539)"/></g><path class="o" d="M571.986,1244.413c-.284-4.3,1.209-27.37-.308-29.434s-2.973-2.064-2.973-2.064a6.357,6.357,0,0,0-7.1-2.007c-3.744,1.258-12.079,20.526-13.839,29.585-.271,1.394-2.771,16-1.945,18.866.005.021,29.431,1.782,29.431,1.782C574.389,1256.418,572.057,1245.5,571.986,1244.413Z" transform="translate(-470.883 -1185.641)"/><path class="ac" d="M570.125,1392.808a9.941,9.941,0,0,0,4.041-1.907c-.113-.562-.228-1.13-.343-1.7-8.159,4.946-19.459,3.947-27.9.925-.062.716-.109,1.393-.138,2.014a48.911,48.911,0,0,0,7.463,1.534,3.979,3.979,0,0,0,1.189,2.014c4.162.252,9.125.551,13.177.794A4.058,4.058,0,0,0,570.125,1392.808Z" transform="translate(-470.983 -1321.45)"/><path class="j" d="M630.417,1187.95s-4.928,4.141-6.173,6.083c-.63.983,2.118,2.653,4.456,3.769a1.811,1.811,0,0,0,2.305-.659l3.912-6.378Z" transform="translate(-530.551 -1168.479)"/><path class="d" d="M643.84,1187.95s-.9.756-2.027,1.773c1.172,1.013,1.813,3.04,3.085,4.876a3.01,3.01,0,0,0,.665.694l2.778-4.529Z" transform="translate(-543.974 -1168.479)"/><path class="n" d="M644.88,1120.588c-.567,1.482-.712,3.516.366,4.833l-.086.081c-1.453-1.193-1.737-3.431-1.458-5.2Z" transform="translate(-545.337 -1117.059)"/><path class="n" d="M632.859,1133.061c1.072.806,3.431,2.359,4.777,2.11l.025.112c-1.4.372-3.987-1.026-5.179-1.787Z" transform="translate(-536.882 -1126.758)"/><path class="j" d="M651.837,1139.836a5.908,5.908,0,0,1,2.994,4.816,35.214,35.214,0,0,1-1.5,8.065l-1.3-.305s.263.86-.2,1.3c0,0,.152.277,0,.421a4.109,4.109,0,0,0-1.558,1.318c-.506.86-3.662,1.452-5.058-.344s-1.457-3.268-2.934-3.956S641.822,1136.874,651.837,1139.836Z" transform="translate(-543.921 -1131.588)"/><path class="b" d="M636.847,1126.455s4.37,3.669,6.677,3.669,6.457-2.683,5.463-5.964a33.026,33.026,0,0,0-1.639-3.439,4.767,4.767,0,0,1-6.009,3.039l2.185-3.039-1.942-1.376-3.945,2.408a3.735,3.735,0,0,0-3.885-.459,3.227,3.227,0,0,0-1.657,3.44s-4.595-.344-5.384,2.179,0,5.1,0,7.052,3.413,3.561,3.413,3.561l1.971-1.722a7.134,7.134,0,0,1,.322-4.247c.911-1.949,1.76-.4,1.76-.4Z" transform="translate(-532.229 -1116.334)"/><path class="j" d="M642.362,1161.623a2.487,2.487,0,0,0-2.4-2.265c-2.245-.144-2.776,2.625-1.7,3.643a2.6,2.6,0,0,0,3.338.2A2.848,2.848,0,0,0,642.362,1161.623Z" transform="translate(-540.87 -1146.742)"/><path class="d" d="M646.25,1165.7a1.115,1.115,0,0,0-1.366-1.232,1.056,1.056,0,0,0-.223,2.093A1.514,1.514,0,0,0,646.25,1165.7Z" transform="translate(-545.485 -1150.619)"/><path class="h" d="M680.318,1197.359c-1.551-.356-1.046-.6-.951-.5A3.486,3.486,0,0,0,680.318,1197.359Z" transform="translate(-572.402 -1175.235)"/><path class="h" d="M683.012,1190.45a.565.565,0,0,1-.52-.633c.028-.546.248-.327.22-.247C682.559,1190.005,682.529,1190.273,683.012,1190.45Z" transform="translate(-574.894 -1169.626)"/><path class="m" d="M649.31,1168.433a.752.752,0,1,0-.75.725.78.78,0,0,0,.187-.022v1.49h.564v-2.193Z" transform="translate(-548.532 -1153.117)"/><path class="h" d="M685.256,1174.777a.612.612,0,0,1-.741.332c-.222-.122-.252-.467-.066-.772a.612.612,0,0,1,.741-.332C685.413,1174.126,685.442,1174.472,685.256,1174.777Z" transform="translate(-576.289 -1157.847)"/><g transform="translate(106.822 14.081)"><path class="h" d="M679.317,1166.49c.9-.741,2.4-1.528,3-.545.112.185-.184.347-.3.161-.457-.752-1.844.1-2.474.626C679.373,1166.873,679.148,1166.631,679.317,1166.49Z" transform="translate(-679.257 -1165.484)"/></g><g transform="translate(21.244 74.067)"><path class="n" d="M322.6,1416.885c3.669-2.942,11.091-.238,11.405-.122a.119.119,0,0,1,.072.157.131.131,0,0,1-.166.069c-.076-.028-7.593-2.767-11.145.081C322.636,1417.173,322.471,1416.988,322.6,1416.885Z" transform="translate(-322.553 -1415.517)"/></g><g transform="translate(8.879 83.529)"><path class="n" d="M271.035,1460.949c7.3-9.593,17.962-4.808,18.069-4.759.153.07.04.288-.113.218-.105-.048-10.58-4.742-17.748,4.683a.133.133,0,0,1-.179.027A.117.117,0,0,1,271.035,1460.949Z" transform="translate(-271.011 -1454.954)"/></g><g transform="translate(113.589 0)"><path class="b" d="M712.172,1116.408c1.5-5.187-4.59-9.355-4.652-9.4-.138-.093.01-.29.149-.2.063.043,6.294,4.309,4.75,9.658C712.375,1116.626,712.127,1116.563,712.172,1116.408Z" transform="translate(-707.465 -1106.79)"/></g><path class="j" d="M515.29,1229.8c3.586,3.21-11.441,12.829-16.316,18.319s-13.23,22.248-13.23,22.248l-3.729,5.259-.89.3a1.073,1.073,0,0,1-1.022-.363c-.657.1-1.113-.914-1.113-.914-.766-.272-1.07-.49-1.157-.657l0,0c-.41-.335.162-3.234.613-3.384.319-.107.466,1.323.526,2.17l3.49-3.375c4.811-19.846,12.012-31.736,20.891-38.407S515.29,1229.8,515.29,1229.8Z" transform="translate(-419.224 -1198.677)"/><path class="ad" d="M549.045,1244.24l-9.433-5.689s9.127-10.529,14.217-12.768,8.944-.951,9.582.752,1.112,2.8-2.149,6.174S549.045,1244.24,549.045,1244.24Z" transform="translate(-466.293 -1196.326)"/><path class="m" d="M588.148,1224.565c1.861-.18,4.407.159,5.213,1.731.58,1.363.847,2.279.161,3.6-1.569,3.071-11.905,11.99-14.592,14.289,14.347-13.957,15.642-14.018,14.179-17.786a2.723,2.723,0,0,0-1.283-1.181A7.462,7.462,0,0,0,588.148,1224.565Z" transform="translate(-496.177 -1196.276)"/><path class="j" d="M825.379,1245.289a4.912,4.912,0,0,0-2.872-1.085c-1.611,0-12.264,13.331-15.024,17.817-2.642,4.3-10.622,17.067-12.329,19.744l-1.286,2.76a2.48,2.48,0,0,0,.368,2.666l.209.247a5.639,5.639,0,0,0,1.119.122,5.226,5.226,0,0,0,.955-.417,2.1,2.1,0,0,0,.534.018,3.985,3.985,0,0,0,.814-.607l-.523-3.082c10.973-18.536,25.167-29.257,29.222-31.393C828.991,1250.8,825.379,1245.289,825.379,1245.289Z" transform="translate(-659.372 -1211.237)"/><path class="b" d="M881.148,1241.1c-.51-.728-1.518-1.529-3.66-.47-1.046.517-6.958,7.623-11.185,13.213a23.461,23.461,0,0,1,3.919,4.212,62.161,62.161,0,0,1,11.58-9.079C884.225,1247.693,882.3,1242.743,881.148,1241.1Z" transform="translate(-714.606 -1208.128)"/><path class="ae" d="M914.655,1254.638a28.866,28.866,0,0,1,2.67-2c.44-.322.995-.573,1.4-.872a2.129,2.129,0,0,0,.746-1.307,7.208,7.208,0,0,0-.308-3.2,13.791,13.791,0,0,0-1.262-3.051,10.475,10.475,0,0,1,1.52,2.972,7.106,7.106,0,0,1,.394,3.352,2.466,2.466,0,0,1-.9,1.492,6.183,6.183,0,0,1-.732.435l-.717.411C916.517,1253.429,915.591,1254.038,914.655,1254.638Z" transform="translate(-751.358 -1211.237)"/><path class="af" d="M544.662,1383.7c7.782,1.662,22.046,3.3,27.951-1.765l.627,2.171c-2.14,2.03-3.715,2.157-6.378,2.864-6.986,1.627-16.449.585-22.512-1.322Z" transform="translate(-469.893 -1315.924)"/><path class="z" d="M3.767,0h7.69a3.767,3.767,0,0,1,3.767,3.767v0a3.767,3.767,0,0,1-3.767,3.767H3.767A3.767,3.767,0,0,1,0,3.768v0A3.767,3.767,0,0,1,3.767,0Z" transform="translate(83.034 67.048)"/><g transform="translate(84.082 69.654)"><path d="M590.745,1399.273a12.472,12.472,0,0,1-4.969-1.033l-1.175-.511a.2.2,0,0,1-.108-.277.229.229,0,0,1,.293-.1l1.175.511a11.959,11.959,0,0,0,10.925-.706.231.231,0,0,1,.3.063.2.2,0,0,1-.068.288A12.354,12.354,0,0,1,590.745,1399.273Z" transform="translate(-584.474 -1397.124)"/></g><path class="z" d="M765.839,1667.063l-2.713,1.622a7.96,7.96,0,0,1,1.765,2.605c.386,1.25.91,4.031,2.483,4.452a5.788,5.788,0,0,0,2.51.212,14.474,14.474,0,0,1-1.324-2.006,2.4,2.4,0,0,1-1.434-1.251C766.711,1671.733,766.542,1667.063,765.839,1667.063Z" transform="translate(-636.183 -1532.647)"/><path class="z" d="M1011.881,1705.682l-.664,1.979h10.26s-3.1-1.546-3.979-1.546a18.383,18.383,0,0,1-3.781.263A5.086,5.086,0,0,1,1011.881,1705.682Z" transform="translate(-824.754 -1562.001)"/><path class="j" d="M940.244,1180.473c-.956.9-1.177,3.229-.4,3.507a1.75,1.75,0,0,0,2.226-1.856S941.2,1179.57,940.244,1180.473Z" transform="translate(-770.146 -1162.649)"/><path class="d" d="M942.986,1185.8s-.368-1.355-.956-.8-.866,1.585-.441,1.987S942.87,1187.058,942.986,1185.8Z" transform="translate(-771.675 -1166.139)"/></g></g></svg>