<svg xmlns="http://www.w3.org/2000/svg" width="448.697" height="224.807" viewBox="0 0 448.697 224.807"><defs><style>.a{fill:#97ccdb;}.b{fill:#85b3c6;}.c{fill:#e9feff;}.d{fill:#daf7f7;}.e{fill:#fff;}.f{fill:#83b9cc;}.g{fill:#6b9caf;}.h{fill:#5ecacc;}.i{fill:#198974;}.j{fill:#938548;}.k{fill:#498c44;}.l{fill:#7bce05;}.m{fill:#8de00a;}.n{fill:#47ad2f;}.o{fill:#7a5c41;}.p{fill:#5cc13a;}.q{fill:#237c11;}.r{fill:#3fa541;}.s{fill:#6599a5;}.t{fill:#518393;}.u{fill:#ffef7d;}.v{fill:#10725f;}.w{fill:#54cc06;}.x{fill:#7cba04;opacity:0.56;}.y{fill:#3e9626;}.z{fill:#53ad31;}.aa{fill:#876d33;}.ab{fill:#c4b08d;}.ac{fill:#49ad07;}.ad{fill:#359b3c;}.ae{fill:#56c437;}.af{fill:#fce0a4;}.ag{fill:#ffce78;}.ah{fill:#bfa77c;}.ai{fill:#aad5e8;}.aj{fill:#9e8a6a;}.ak{fill:#d81d1d;}.al{fill:#c41818;}.am{fill:#a81313;}.an{fill:#4f4e4d;opacity:0.46;mix-blend-mode:multiply;isolation:isolate;}.ao{fill:#7a6851;}.ap{fill:#f9f29d;}.aq{fill:#eae27f;}.ar{fill:#fffa9c;}.as{fill:#fc8317;}.at{fill:#cf905d;}.au{fill:#ed0f0f;}.av{fill:#ffbe1d;}.aw{fill:#9c602f;}.ax{fill:#04b1ba;}.ay{fill:#048989;}.az{fill:#2a80b9;}.ba{fill:#fbfcfa;}.bb{fill:#d8a936;}.bc{fill:#ddd;}.bd{fill:#e84c3d;}.be{fill:#efba43;}.bf{fill:#f5f5f5;opacity:0.5;}</style></defs><g transform="translate(-91.766 -146.418)"><g transform="translate(258.818 199.472)"><g transform="translate(0 2.727)"><path class="a" d="M339.815,328.071,400.8,229.246l60.984,98.825Z" transform="translate(-339.815 -229.246)"/><path class="b" d="M491.349,328.071l-60.984-98.825v98.825Z" transform="translate(-369.383 -229.246)"/></g><path class="c" d="M435.485,242.141c.326.249.793-.088.593-.426l-9.571-16.006a1.15,1.15,0,0,0-1.914,0l-9.573,16.006c-.192.322.262.641.567.4l2.049-1.613a1.041,1.041,0,0,1,1.391.112l1.127,1.275a1.49,1.49,0,0,0,2.294-.134l2.462-3.7a.683.683,0,0,1,1.082-.027l1.752,2.33a1.74,1.74,0,0,0,2.523.182l.675-.645a1.164,1.164,0,0,1,1.47-.075Z" transform="translate(-364.357 -225.196)"/><path class="d" d="M430.566,225.209a1.106,1.106,0,0,1,1.032.5l9.571,16.006c.2.337-.267.674-.593.426L437.5,239.82a1.164,1.164,0,0,0-1.47.075l-.675.645a1.74,1.74,0,0,1-2.523-.182l-1.752-2.33a.666.666,0,0,0-.517-.251Z" transform="translate(-369.448 -225.2)"/></g><path class="e" d="M142.81,296.313a7.116,7.116,0,0,1-.275-14.226,8.52,8.52,0,0,1,16.633,1.15,3.77,3.77,0,0,1,4.128,4.072,4.572,4.572,0,0,1-1.127,9Z" transform="translate(-14.343 -42.28)"/><g transform="translate(172.847 151.383)"><path class="f" d="M380.321,298.177l-84.08-135.506L212.161,298.177Z" transform="translate(-212.161 -156.69)"/><path class="g" d="M337.821,298.6V163.979L421.354,298.6Z" transform="translate(-253.193 -157.117)"/><path class="c" d="M294.188,202.7c-.371.256-.871-.119-.651-.49L322.185,154.3a1.15,1.15,0,0,1,1.913,0l28.648,47.906c.232.389-.285.787-.681.527l-6.22-4.07a1.46,1.46,0,0,0-1.614.03l-1.684,1.2a2.188,2.188,0,0,1-2.845-.291l-1.636-1.854a.644.644,0,0,0-1.033.122l-2.072,4.271a1.012,1.012,0,0,1-1.733.049l-9.557-16.67a.483.483,0,0,0-.835.036L312.3,209.491a.622.622,0,0,1-1.146-.092l-1.971-8.692a.424.424,0,0,0-.742-.121l-2.715,3.86a.9.9,0,0,1-1.566-.224l-1.71-6.182a.69.69,0,0,0-1.047-.325Z" transform="translate(-238.715 -153.79)"/><path class="d" d="M337.821,153.823a1.056,1.056,0,0,1,.755.489l28.648,47.906c.232.389-.285.787-.681.527l-6.22-4.07a1.46,1.46,0,0,0-1.614.03l-1.684,1.2a2.188,2.188,0,0,1-2.845-.291l-1.636-1.854a.644.644,0,0,0-1.033.122l-2.072,4.271a1.012,1.012,0,0,1-1.733.049l-9.557-16.67a.45.45,0,0,0-.327-.215Z" transform="translate(-253.193 -153.801)"/></g><path class="h" d="M220.255,266.5a7.029,7.029,0,0,0-9.422-3.164,6.847,6.847,0,0,0-1.3.844,6.924,6.924,0,0,0-1.422-.9,7.03,7.03,0,0,0-9.354,3.362,7.159,7.159,0,0,0-.444,1.252,7.029,7.029,0,0,1,8.666-2.209,13.675,13.675,0,0,1,1.2.758,6.886,6.886,0,0,1,1.309,1.317c.02,0,.658-.7,1.009-1.011a8.925,8.925,0,0,1,.9-.687c.2-.125.4-.243.62-.351a7.027,7.027,0,0,1,8.711,2.026A6.941,6.941,0,0,0,220.255,266.5Z" transform="translate(-34.791 -37.937)"/><path class="h" d="M181.3,254.852a5.2,5.2,0,0,0-6.972-2.342,5.075,5.075,0,0,0-.962.626,5.016,5.016,0,0,0-1.052-.665,5.18,5.18,0,0,0-7.251,3.414,5.2,5.2,0,0,1,6.412-1.635,10.219,10.219,0,0,1,.891.561,5.175,5.175,0,0,1,.969.976c.014,0,.487-.521.746-.748a6.594,6.594,0,0,1,.663-.509,5.184,5.184,0,0,1,6.9,1.24A5.01,5.01,0,0,0,181.3,254.852Z" transform="translate(-23.933 -34.465)"/><path class="h" d="M208.942,231.236a5.2,5.2,0,0,0-6.972-2.343,5.058,5.058,0,0,0-.962.626,5.092,5.092,0,0,0-1.053-.665,5.182,5.182,0,0,0-7.251,3.414,5.2,5.2,0,0,1,6.413-1.635,10.047,10.047,0,0,1,.89.561,5.152,5.152,0,0,1,.969.975c.014,0,.486-.52.746-.748a6.479,6.479,0,0,1,.663-.508c.147-.093.3-.18.459-.261a5.2,5.2,0,0,1,6.444,1.5A4.967,4.967,0,0,0,208.942,231.236Z" transform="translate(-32.96 -26.753)"/><g transform="translate(100.702 244.234)"><path class="i" d="M217.8,298.439a24.459,24.459,0,0,0-32.68-1L136.06,336.87a55.7,55.7,0,0,1-10.3,5.337c-6.362,2.542-14.954,4.733-20.729,4.733H280.226Z" transform="translate(-105.035 -291.662)"/></g><path class="e" d="M257.107,255.541a7.247,7.247,0,1,1,1.586-14.324,9.723,9.723,0,0,1,18.9-1.848,6.424,6.424,0,0,1,8.368,5.609,4.066,4.066,0,0,1,5.787,3.693,3.436,3.436,0,0,1-.053,6.871Z" transform="translate(-51.632 -28.16)"/><g transform="translate(166.954 278.4)"><path class="j" d="M218.64,368.933c.02.519.88.442.881-.042l.009-9.123a.443.443,0,1,0-.884,0l-.011,6.843c0,.02,0,.04.005.062Z" transform="translate(-208.381 -347.912)"/><path class="j" d="M220.693,364.559v1.576c.021.673-.059.853-.519,1.18l-.855.432.235.479.871-.442a1.665,1.665,0,0,0,.8-1.653v-1.572Z" transform="translate(-208.604 -349.631)"/><path class="j" d="M216.709,367.321V365.7h-.55v1.626a1.723,1.723,0,0,0,.84,1.715l.888.448.243-.494-.867-.436C216.77,368.206,216.687,368.022,216.709,367.321Z" transform="translate(-207.572 -350.002)"/><path class="k" d="M222.511,357.106a4.483,4.483,0,1,1-4.483-4.483A4.483,4.483,0,0,1,222.511,357.106Z" transform="translate(-206.719 -345.733)"/><path class="l" d="M222.562,351.968a4.136,4.136,0,0,0-2.731-5.835,4.084,4.084,0,0,0-7.091-2.4,3.953,3.953,0,0,0-5.122,1.6,5.282,5.282,0,0,0-1.985,9.479c0,.051-.008.1-.008.156a5.213,5.213,0,0,0,8.921,3.664,5.418,5.418,0,0,0,8.016-6.658Z" transform="translate(-203.409 -342.393)"/><path class="m" d="M219.682,351.724a3.6,3.6,0,0,0-3.6-3.6,3.556,3.556,0,0,0-1.169.2,2.648,2.648,0,0,0-5.074,1.061c0,.051,0,.1,0,.152a3.559,3.559,0,0,0,2.074,6.8,2.394,2.394,0,0,0,4.493.349h.028a2.18,2.18,0,0,0,2.179-2.14h0v-.277A3.588,3.588,0,0,0,219.682,351.724Z" transform="translate(-204.729 -343.812)"/></g><g transform="translate(137.812 261.13)"><path class="n" d="M174.321,327.241a.463.463,0,0,0,.407-.682l-5.114-9.592a.411.411,0,0,0-.725,0l-5.115,9.592a.464.464,0,0,0,.409.682Z" transform="translate(-161.307 -316.749)"/><g transform="translate(0 4.509)"><path class="o" d="M170.627,354.713a.917.917,0,1,0,1.833,0v-8.045h-1.833Z" transform="translate(-163.563 -331.028)"/><path class="n" d="M175.562,345.365a.462.462,0,0,0,.409-.679l-7.527-14.116a.411.411,0,0,0-.725,0l-7.527,14.116a.462.462,0,0,0,.409.679Z" transform="translate(-160.138 -325.7)"/><path class="p" d="M167.72,330.57a.4.4,0,0,1,.354-.215v15.011H160.6a.462.462,0,0,1-.409-.679Z" transform="translate(-160.138 -325.701)"/><path class="n" d="M174.842,335.993a.554.554,0,0,0,.489-.814l-6.117-11.472a.491.491,0,0,0-.869,0l-6.118,11.472a.554.554,0,0,0,.49.814Z" transform="translate(-160.798 -323.445)"/><path class="p" d="M168.345,323.71a.477.477,0,0,1,.39-.255V336h-6.019a.554.554,0,0,1-.49-.814Z" transform="translate(-160.798 -323.448)"/></g><path class="p" d="M168.889,316.969a.405.405,0,0,1,.326-.213v10.487h-5.032a.464.464,0,0,1-.409-.682Z" transform="translate(-161.307 -316.752)"/></g><g transform="translate(187.902 232.135)"><path class="o" d="M242.935,302.727a.736.736,0,1,0,1.472,0v-2.206h-1.472Z" transform="translate(-237.264 -282.455)"/><path class="q" d="M246.9,296.669a.372.372,0,0,0,.328-.546l-6.043-11.334a.33.33,0,0,0-.582,0l-6.042,11.334a.371.371,0,0,0,.327.546Z" transform="translate(-234.515 -277.261)"/><path class="r" d="M240.6,284.79a.326.326,0,0,1,.285-.173V296.67h-6a.371.371,0,0,1-.327-.546Z" transform="translate(-234.515 -277.262)"/><path class="q" d="M245.9,282.117a.372.372,0,0,0,.329-.546l-4.107-7.7a.33.33,0,0,0-.582,0l-4.106,7.7a.371.371,0,0,0,.328.546Z" transform="translate(-235.454 -273.695)"/><path class="q" d="M246.319,289.144a.444.444,0,0,0,.393-.653l-4.911-9.212a.4.4,0,0,0-.7,0l-4.913,9.212a.444.444,0,0,0,.394.653Z" transform="translate(-235.045 -275.45)"/><path class="r" d="M241.1,279.28a.388.388,0,0,1,.313-.205v10.07h-4.832a.444.444,0,0,1-.394-.653Z" transform="translate(-235.045 -275.452)"/><path class="r" d="M241.541,273.87a.331.331,0,0,1,.261-.172v8.42h-4.039a.371.371,0,0,1-.328-.546Z" transform="translate(-235.454 -273.696)"/></g><g transform="translate(213.691 252.418)"><path class="o" d="M281.516,333.838a.761.761,0,1,0,1.521,0v-2.282h-1.521Z" transform="translate(-275.651 -312.873)"/><path class="q" d="M285.614,327.573a.385.385,0,0,0,.34-.565l-6.249-11.72a.341.341,0,0,0-.6,0l-6.249,11.72a.384.384,0,0,0,.339.565Z" transform="translate(-272.808 -307.501)"/><path class="r" d="M279.1,315.287a.337.337,0,0,1,.294-.18v12.466h-6.2a.384.384,0,0,1-.339-.565Z" transform="translate(-272.808 -307.502)"/><path class="q" d="M284.583,312.524a.386.386,0,0,0,.339-.567l-4.246-7.963a.342.342,0,0,0-.6,0l-4.247,7.963a.386.386,0,0,0,.34.567Z" transform="translate(-273.779 -303.814)"/><path class="q" d="M285.015,319.79a.459.459,0,0,0,.406-.675l-5.079-9.527a.409.409,0,0,0-.721,0l-5.081,9.527a.46.46,0,0,0,.407.675Z" transform="translate(-273.356 -305.629)"/><path class="r" d="M279.622,309.59a.4.4,0,0,1,.323-.211v10.413h-5a.46.46,0,0,1-.407-.675Z" transform="translate(-273.356 -305.631)"/><path class="r" d="M280.074,304a.339.339,0,0,1,.271-.177v8.707h-4.177a.386.386,0,0,1-.34-.567Z" transform="translate(-273.779 -303.815)"/></g><path class="e" d="M452.093,177.68a9.047,9.047,0,1,0-3.808-17.246,10.827,10.827,0,0,0-21.3.355,5.224,5.224,0,0,0-6.6,5.317,5.809,5.809,0,1,0-.659,11.57Z" transform="translate(-105.167 -1.737)"/><path class="e" d="M684.274,307.686a6.068,6.068,0,1,1,2.555-11.568,7.263,7.263,0,0,1,14.285.238,3.5,3.5,0,0,1,4.429,3.567,3.9,3.9,0,1,1,.44,7.76Z" transform="translate(-191.494 -46.978)"/><g transform="translate(331.585 185.095)"><path class="s" d="M447.863,306.811l60.983-98.824,60.981,98.824Z" transform="translate(-447.863 -205.2)"/><path class="t" d="M599.4,306.811l-60.981-98.824v98.824Z" transform="translate(-477.431 -205.2)"/><path class="c" d="M546.7,231.3c.237.216.626-.039.467-.306L531.24,204.359a1.15,1.15,0,0,0-1.913,0L513.4,230.992c-.175.292.243.573.51.346l4.006-3.431a.723.723,0,0,1,1.107.216l1.238,2.783a1.4,1.4,0,0,0,2.172.391l3.976-3.612a1.13,1.13,0,0,1,1.451-.028l3.738,3.125a1.665,1.665,0,0,0,2.44-.359l3.646-6.09a.8.8,0,0,1,1.191-.15Z" transform="translate(-469.25 -203.848)"/><path class="d" d="M539.442,204.36a1.094,1.094,0,0,0-.964-.51v25.827l1.323,1.107a1.665,1.665,0,0,0,2.44-.359l3.646-6.09a.8.8,0,0,1,1.191-.15L554.9,231.3c.237.216.626-.039.467-.306Z" transform="translate(-477.452 -203.849)"/></g><path class="u" d="M247.439,163.865a14.709,14.709,0,1,1-14.709-14.71A14.71,14.71,0,0,1,247.439,163.865Z" transform="translate(-41.226 -0.894)"/><g transform="translate(188.189 229.064)"><path class="v" d="M378.522,277.764a31.147,31.147,0,0,0-41.613-1.278L274.445,326.7a71.006,71.006,0,0,1-13.11,6.8c-8.1,3.237-19.042,6.027-26.394,6.027H458.01Z" transform="translate(-234.94 -269.136)"/></g><g transform="translate(369.963 250.609)"><path class="v" d="M560.745,307.2a21.9,21.9,0,0,1,29.26-.9L633.929,341.6a49.845,49.845,0,0,0,9.218,4.778c5.7,2.278,13.39,4.239,18.561,4.239H504.85Z" transform="translate(-504.85 -301.128)"/></g><g transform="translate(250.794 259.845)"><path class="w" d="M408.82,319.705a17.552,17.552,0,0,0-23.453-.72l-25.326,20.648A87.258,87.258,0,0,1,343.9,349.76c-4.474,2.039-11.856,4.749-16,4.749H453.617Z" transform="translate(-327.901 -314.842)"/></g><g transform="translate(296.697 252.614)"><path class="m" d="M492.842,309.919a21,21,0,0,0-28.05-.861L429.99,337.4s-9.033,7.4-16.138,10.084c-5.5,2.078-12.836,4.064-17.792,4.064H546.422Z" transform="translate(-396.06 -304.104)"/></g><g transform="translate(171.795 258.598)"><path class="m" d="M294.061,318.005a18.1,18.1,0,0,0-24.189-.741l-26.122,21.3A90.168,90.168,0,0,1,227.1,349.008c-4.615,2.1-12.229,4.9-16.5,4.9H340.267Z" transform="translate(-210.598 -312.99)"/></g><path class="x" d="M315.889,312.991V353.9h58.76l-46.206-35.9a18.053,18.053,0,0,0-12.508-5.015Z" transform="translate(-73.184 -54.392)"/><path class="x" d="M518.5,351.55h67.9l-53.579-41.629a20.944,20.944,0,0,0-14.32-5.811Z" transform="translate(-139.345 -51.493)"/><g transform="translate(411.074 271.663)"><path class="j" d="M585.6,366.72c.026.672,1.14.57,1.142-.056l.011-11.8a.574.574,0,1,0-1.144,0l-.016,8.852a.776.776,0,0,0,.007.079Z" transform="translate(-572.325 -339.528)"/><path class="j" d="M588.255,361.061V363.1c.025.873-.077,1.1-.672,1.527l-1.106.558.3.619,1.129-.571a2.151,2.151,0,0,0,1.034-2.137v-2.035Z" transform="translate(-572.615 -341.752)"/><path class="j" d="M583.1,364.634v-2.1h-.713v2.1a2.232,2.232,0,0,0,1.088,2.221l1.148.579.313-.638-1.122-.565C583.177,365.778,583.072,365.541,583.1,364.634Z" transform="translate(-571.28 -342.233)"/><path class="k" d="M590.605,351.422a5.8,5.8,0,1,1-5.8-5.8A5.8,5.8,0,0,1,590.605,351.422Z" transform="translate(-570.176 -336.711)"/><path class="n" d="M596.766,351.572a7.012,7.012,0,1,1-7.012-7.012A7.012,7.012,0,0,1,596.766,351.572Z" transform="translate(-571.395 -336.364)"/><path class="n" d="M598.289,344.7a5.367,5.367,0,1,1-5.37-5.369A5.366,5.366,0,0,1,598.289,344.7Z" transform="translate(-572.967 -334.657)"/><path class="n" d="M592.341,337.682a5.292,5.292,0,1,1-5.292-5.292A5.292,5.292,0,0,1,592.341,337.682Z" transform="translate(-571.073 -332.39)"/><path class="n" d="M579.569,344.652a6.837,6.837,0,1,1-6.838-6.836A6.837,6.837,0,0,1,579.569,344.652Z" transform="translate(-565.894 -334.162)"/><path class="n" d="M583.216,339.358a5.134,5.134,0,1,1-5.136-5.135A5.136,5.136,0,0,1,583.216,339.358Z" transform="translate(-568.197 -332.989)"/><path class="n" d="M583.641,353.261a6.745,6.745,0,1,1-6.744-6.745A6.745,6.745,0,0,1,583.641,353.261Z" transform="translate(-567.284 -337.003)"/><path class="p" d="M589.453,344.462a4.651,4.651,0,0,0-6.165-4.4,3.426,3.426,0,0,0-6.564,1.372c0,.067,0,.133.006.2a4.6,4.6,0,0,0,2.685,8.8,3.1,3.1,0,0,0,5.81.455h.035a2.82,2.82,0,0,0,2.819-2.77h0v-.358A4.633,4.633,0,0,0,589.453,344.462Z" transform="translate(-568.422 -334.226)"/></g><g transform="translate(245.737 275.708)"><path class="j" d="M337.537,368.271c.022.585.991.5.993-.048l.009-10.269a.5.5,0,1,0-1,0l-.012,7.7a.591.591,0,0,0,.005.069Z" transform="translate(-325.989 -344.608)"/><path class="j" d="M339.849,363.348v1.775c.022.758-.067.96-.585,1.328l-.964.486.265.537.981-.5a1.872,1.872,0,0,0,.9-1.86v-1.77Z" transform="translate(-326.24 -346.544)"/><path class="j" d="M335.364,366.457v-1.828h-.62v1.828a1.942,1.942,0,0,0,.946,1.932l1,.505.273-.556-.977-.492C335.432,367.453,335.339,367.247,335.364,366.457Z" transform="translate(-325.078 -346.962)"/><path class="k" d="M341.895,354.959a5.047,5.047,0,1,1-5.047-5.048A5.046,5.046,0,0,1,341.895,354.959Z" transform="translate(-324.117 -342.156)"/><path class="y" d="M341.952,349.177a4.655,4.655,0,0,0-3.072-6.569,4.6,4.6,0,0,0-7.991-2.7,4.407,4.407,0,0,0-5.739,1.789,5.946,5.946,0,0,0-2.254,10.674c0,.059-.009.116-.009.174a5.868,5.868,0,0,0,10.043,4.125,6.1,6.1,0,0,0,9.022-7.492Z" transform="translate(-320.392 -338.396)"/><path class="z" d="M340.892,348.9a4.048,4.048,0,0,0-5.365-3.827,2.98,2.98,0,0,0-5.712,1.195c0,.058,0,.114.006.172a4.006,4.006,0,0,0,2.334,7.658,2.694,2.694,0,0,0,5.057.4h.032a2.454,2.454,0,0,0,2.452-2.412h0v-.31A4.044,4.044,0,0,0,340.892,348.9Z" transform="translate(-322.591 -339.993)"/></g><g transform="translate(461.609 284.187)"><path class="j" d="M651.73,369.8c.013.368.624.312.625-.031l.007-6.466a.315.315,0,1,0-.628,0l-.007,4.851a.23.23,0,0,0,0,.042Z" transform="translate(-644.457 -354.898)"/><path class="j" d="M653.185,366.7v1.117c.015.48-.042.606-.367.836l-.607.308.167.339.618-.314a1.18,1.18,0,0,0,.567-1.172V366.7Z" transform="translate(-644.615 -356.117)"/><path class="j" d="M650.36,368.658v-1.153h-.389v1.153a1.223,1.223,0,0,0,.6,1.217l.63.317.171-.349-.614-.31C650.4,369.285,650.345,369.155,650.36,368.658Z" transform="translate(-643.884 -356.38)"/><path class="k" d="M654.474,361.416a3.177,3.177,0,1,1-3.177-3.178A3.179,3.179,0,0,1,654.474,361.416Z" transform="translate(-643.279 -353.354)"/><path class="n" d="M654.508,357.767a2.912,2.912,0,0,0-1.944-4.128,2.881,2.881,0,0,0-5.015-1.7,2.757,2.757,0,0,0-1.2-.279,2.8,2.8,0,0,0-2.42,1.4,3.745,3.745,0,0,0-1.42,6.723c0,.036,0,.073,0,.109a3.7,3.7,0,0,0,6.324,2.6,3.842,3.842,0,0,0,5.68-4.727Z" transform="translate(-640.932 -350.986)"/></g><g transform="translate(183.234 259.756)"><path class="aa" d="M243.757,348.7l-1.785-1.812a3.653,3.653,0,0,1-1.157-3.193v-8.038h-.3v8.375a3.868,3.868,0,0,0,1.292,3.346c1.2,1.2,1.508,1.658,2.035,2.185v-.649Z" transform="translate(-231.807 -321.549)"/><rect class="aa" width="1.811" height="22.159" transform="translate(11.463 16.987)"/><path class="aa" d="M247.184,352.166h0a3.26,3.26,0,0,0,.952-2.3v-10.22h.467v10.48a5.14,5.14,0,0,1-1.5,3.623h0Z" transform="translate(-233.957 -322.852)"/><path class="ab" d="M249.328,343.129l1.278-1.3a2.618,2.618,0,0,0,.83-2.286v-5.755h.212v6a2.768,2.768,0,0,1-.925,2.4c-.86.859-1.079,1.187-1.457,1.566v-.465Z" transform="translate(-234.663 -320.939)"/><path class="l" d="M250.506,325.4a6.448,6.448,0,0,0-4.847-6.242,4.553,4.553,0,0,0-7.455-3.4,4.966,4.966,0,0,0-2.115-.473,5.009,5.009,0,0,0-4.687,6.8,7.071,7.071,0,0,0,2.751,13.332,4.379,4.379,0,0,0,.527.033,5.615,5.615,0,0,0,11.035-1.558v-.371a3.4,3.4,0,0,0,2.161-2.93A6.437,6.437,0,0,0,250.506,325.4Z" transform="translate(-227.583 -314.709)"/><path class="m" d="M248.965,324.655A5.254,5.254,0,0,0,242,319.686a3.868,3.868,0,0,0-7.412,1.549c0,.077,0,.15.007.225a5.2,5.2,0,0,0,3.031,9.942,3.5,3.5,0,0,0,6.564.511l.041,0a3.185,3.185,0,0,0,3.183-3.128h0v-.406A5.233,5.233,0,0,0,248.965,324.655Z" transform="translate(-228.73 -315.577)"/></g><g transform="translate(223.69 267.35)"><path class="aa" d="M300.985,354l-1.471-1.5a3.006,3.006,0,0,1-.954-2.631v-6.625h-.246v6.9a3.189,3.189,0,0,0,1.066,2.758c.99.985,1.243,1.366,1.678,1.8v-.535Z" transform="translate(-291.136 -331.623)"/><rect class="aa" width="1.493" height="18.266" transform="translate(9.447 14)"/><path class="aa" d="M303.81,356.859h0a2.686,2.686,0,0,0,.786-1.9V346.54h.385v8.637a4.235,4.235,0,0,1-1.236,2.985h0Z" transform="translate(-292.909 -332.697)"/><path class="ab" d="M305.577,349.41l1.053-1.069a2.162,2.162,0,0,0,.684-1.884v-4.745h.175v4.943a2.282,2.282,0,0,1-.762,1.974c-.709.707-.89.978-1.2,1.29v-.383Z" transform="translate(-293.49 -331.12)"/><path class="n" d="M306.55,334.794a5.319,5.319,0,0,0-4-5.146,3.754,3.754,0,0,0-6.145-2.8,4.128,4.128,0,0,0-5.607,5.216,5.829,5.829,0,0,0,2.268,10.99,3.831,3.831,0,0,0,.433.026,4.629,4.629,0,0,0,9.1-1.282v-.308a2.8,2.8,0,0,0,1.781-2.413A5.31,5.31,0,0,0,306.55,334.794Z" transform="translate(-287.655 -325.985)"/><path class="p" d="M305.278,334.183a4.33,4.33,0,0,0-4.33-4.331,4.271,4.271,0,0,0-1.41.237,3.188,3.188,0,0,0-6.109,1.277c0,.062,0,.123.005.184a4.286,4.286,0,0,0,2.5,8.194,2.883,2.883,0,0,0,5.411.422h.032A2.623,2.623,0,0,0,304,337.589h0v-.334A4.317,4.317,0,0,0,305.278,334.183Z" transform="translate(-288.6 -326.701)"/></g><g transform="translate(316.898 248.263)"><path class="o" d="M436.252,327.831a.765.765,0,0,1-1.531,0v-2.294h1.531Z" transform="translate(-428.885 -306.752)"/><path class="ac" d="M426.442,321.532a.387.387,0,0,1-.341-.568l6.282-11.782a.345.345,0,0,1,.607,0l6.281,11.782a.386.386,0,0,1-.342.568Z" transform="translate(-426.055 -301.352)"/><path class="ad" d="M436.208,309.182a.334.334,0,0,0-.3-.18v12.53h6.238a.386.386,0,0,0,.342-.568Z" transform="translate(-429.273 -301.353)"/><path class="ac" d="M429.431,306.4a.386.386,0,0,1-.342-.567l4.27-8.009a.346.346,0,0,1,.607,0l4.267,8.009a.385.385,0,0,1-.34.567Z" transform="translate(-427.031 -297.644)"/><path class="ac" d="M428.119,313.707a.462.462,0,0,1-.409-.679l5.106-9.577a.41.41,0,0,1,.725,0l5.108,9.577a.461.461,0,0,1-.409.679Z" transform="translate(-426.578 -299.469)"/><path class="ad" d="M436.236,303.453a.4.4,0,0,0-.326-.214v10.469h5.025a.461.461,0,0,0,.409-.679Z" transform="translate(-429.273 -299.472)"/><path class="ad" d="M436.22,297.827a.341.341,0,0,0-.273-.177V306.4h4.2a.385.385,0,0,0,.34-.567Z" transform="translate(-429.285 -297.646)"/></g><g transform="translate(325.078 256.373)"><path class="o" d="M446.447,334.094a.618.618,0,1,1-1.236,0v-1.855h1.236Z" transform="translate(-440.491 -317.051)"/><path class="ac" d="M438.516,329a.314.314,0,0,1-.277-.46l5.081-9.526a.278.278,0,0,1,.49,0l5.08,9.526a.313.313,0,0,1-.276.46Z" transform="translate(-438.202 -312.685)"/><path class="ad" d="M446.413,319.016a.276.276,0,0,0-.239-.147V329h5.043a.313.313,0,0,0,.276-.46Z" transform="translate(-440.805 -312.685)"/><path class="ac" d="M440.934,316.766a.312.312,0,0,1-.276-.458l3.451-6.476a.279.279,0,0,1,.49,0l3.452,6.476a.312.312,0,0,1-.276.458Z" transform="translate(-438.992 -309.686)"/><path class="ac" d="M439.871,322.674a.373.373,0,0,1-.331-.548l4.129-7.746a.33.33,0,0,1,.584,0l4.132,7.746a.373.373,0,0,1-.33.548Z" transform="translate(-438.625 -311.161)"/><path class="ad" d="M446.434,314.382a.321.321,0,0,0-.26-.171v8.465h4.062a.373.373,0,0,0,.33-.548Z" transform="translate(-440.805 -311.164)"/><path class="ad" d="M446.423,309.833a.281.281,0,0,0-.22-.144v7.078H449.6a.312.312,0,0,0,.276-.458Z" transform="translate(-440.815 -309.687)"/></g><g transform="translate(490.344 265.609)"><path class="o" d="M696.283,371.051a1.108,1.108,0,1,0,2.216,0v-7.242h-2.216Z" transform="translate(-687.74 -336.595)"/><path class="q" d="M702.254,358.007a.559.559,0,0,0,.493-.822l-9.1-17.072a.5.5,0,0,0-.878,0l-9.1,17.072a.559.559,0,0,0,.495.822Z" transform="translate(-683.598 -328.771)"/><path class="r" d="M692.769,340.115a.49.49,0,0,1,.428-.261v18.154H684.16a.559.559,0,0,1-.495-.822Z" transform="translate(-683.598 -328.772)"/><path class="q" d="M700.75,336.086a.559.559,0,0,0,.494-.822l-6.184-11.6a.5.5,0,0,0-.877,0L688,335.264a.56.56,0,0,0,.5.822Z" transform="translate(-685.013 -323.4)"/><path class="q" d="M701.381,346.672a.67.67,0,0,0,.592-.985l-7.4-13.875a.6.6,0,0,0-1.05,0l-7.4,13.875a.669.669,0,0,0,.592.985Z" transform="translate(-684.397 -326.044)"/><path class="r" d="M693.525,331.815a.583.583,0,0,1,.47-.308v15.168h-7.278a.669.669,0,0,1-.592-.985Z" transform="translate(-684.397 -326.047)"/><path class="r" d="M694.183,323.666a.5.5,0,0,1,.395-.259v12.681h-6.086a.56.56,0,0,1-.5-.822Z" transform="translate(-685.013 -323.402)"/></g><g transform="translate(342.495 253.444)"><path class="aa" d="M483.175,345.5l-2.11-2.146a4.311,4.311,0,0,1-1.366-3.77v-9.5h-.351v9.9a4.576,4.576,0,0,0,1.525,3.954c1.421,1.413,1.783,1.959,2.406,2.583v-.768Z" transform="translate(-469.055 -313.418)"/><rect class="aa" width="2.14" height="26.184" transform="translate(13.543 20.069)"/><path class="aa" d="M487.223,349.594h0a3.852,3.852,0,0,0,1.127-2.717V334.8h.552v12.38a6.083,6.083,0,0,1-1.773,4.282h0Z" transform="translate(-471.596 -314.958)"/><path class="ab" d="M489.756,338.915l1.51-1.534a3.094,3.094,0,0,0,.979-2.7v-6.8h.251v7.085A3.269,3.269,0,0,1,491.4,337.8c-1.017,1.012-1.274,1.4-1.723,1.849V339.1Z" transform="translate(-472.429 -312.698)"/><path class="ae" d="M491.149,317.964a7.62,7.62,0,0,0-5.727-7.376,5.383,5.383,0,0,0-8.809-4.019,5.916,5.916,0,0,0-8.036,7.477,8.356,8.356,0,0,0,3.25,15.754,5.264,5.264,0,0,0,.622.038A6.635,6.635,0,0,0,485.488,328v-.439a4.008,4.008,0,0,0,2.553-3.459A7.617,7.617,0,0,0,491.149,317.964Z" transform="translate(-464.064 -305.337)"/><path class="l" d="M489.329,317.089a6.214,6.214,0,0,0-8.23-5.872,4.571,4.571,0,0,0-8.758,1.831c0,.089,0,.177.007.266a6.144,6.144,0,0,0,3.581,11.745,4.132,4.132,0,0,0,7.755.6h.049a3.762,3.762,0,0,0,3.761-3.695h0v-.48A6.189,6.189,0,0,0,489.329,317.089Z" transform="translate(-465.419 -306.363)"/></g><g transform="translate(286.254 248.167)"><path class="o" d="M388.575,325.155a.7.7,0,1,0,1.4,0v-2.1h-1.4Z" transform="translate(-383.173 -305.845)"/><path class="r" d="M392.348,319.382a.352.352,0,0,0,.313-.519l-5.755-10.794a.313.313,0,0,0-.555,0L380.6,318.864a.352.352,0,0,0,.312.519Z" transform="translate(-380.554 -300.898)"/><path class="r" d="M386.351,308.07a.309.309,0,0,1,.273-.167v11.48h-5.715a.352.352,0,0,1-.312-.519Z" transform="translate(-380.554 -300.898)"/><path class="r" d="M391.4,305.523a.353.353,0,0,0,.313-.519l-3.911-7.337a.316.316,0,0,0-.555,0L383.335,305a.353.353,0,0,0,.313.519Z" transform="translate(-381.449 -297.502)"/><path class="r" d="M391.8,312.216a.423.423,0,0,0,.373-.622l-4.677-8.773a.376.376,0,0,0-.665,0l-4.679,8.773a.423.423,0,0,0,.374.622Z" transform="translate(-381.059 -299.173)"/><path class="r" d="M386.829,302.822a.365.365,0,0,1,.3-.2v9.591h-4.6a.423.423,0,0,1-.374-.622Z" transform="translate(-381.059 -299.175)"/><path class="r" d="M387.245,297.668a.312.312,0,0,1,.25-.162v8.018h-3.847a.353.353,0,0,1-.313-.519Z" transform="translate(-381.449 -297.503)"/></g><g transform="translate(278.472 245.199)"><path class="o" d="M375.367,315.053a.556.556,0,0,0,1.113,0v-1.669h-1.113Z" transform="translate(-371.078 -299.72)"/><path class="r" d="M378.363,310.47a.28.28,0,0,0,.249-.411l-4.57-8.572a.25.25,0,0,0-.441,0l-4.569,8.572a.28.28,0,0,0,.248.411Z" transform="translate(-368.998 -295.792)"/><path class="r" d="M373.6,301.487a.247.247,0,0,1,.217-.132v9.115h-4.538a.28.28,0,0,1-.248-.411Z" transform="translate(-368.998 -295.792)"/><path class="r" d="M377.609,299.466a.282.282,0,0,0,.249-.415l-3.106-5.823a.25.25,0,0,0-.441,0l-3.105,5.823a.283.283,0,0,0,.249.415Z" transform="translate(-369.708 -293.095)"/><path class="r" d="M377.925,304.78a.336.336,0,0,0,.3-.494l-3.714-6.968a.3.3,0,0,0-.528,0l-3.715,6.968a.337.337,0,0,0,.3.494Z" transform="translate(-369.399 -294.422)"/><path class="r" d="M373.981,297.32a.3.3,0,0,1,.238-.155v7.617h-3.656a.337.337,0,0,1-.3-.494Z" transform="translate(-369.399 -294.424)"/><path class="r" d="M374.311,293.229a.25.25,0,0,1,.2-.131v6.369h-3.055a.283.283,0,0,1-.249-.415Z" transform="translate(-369.708 -293.096)"/></g><g transform="translate(301.159 229.712)"><path class="o" d="M408.408,289.827a.5.5,0,1,0,1,0v-1.5h-1Z" transform="translate(-404.554 -276.05)"/><path class="r" d="M411.1,285.708a.252.252,0,0,0,.223-.371l-4.107-7.7a.224.224,0,0,0-.4,0l-4.105,7.7a.252.252,0,0,0,.223.371Z" transform="translate(-402.686 -272.521)"/><path class="r" d="M406.822,277.637a.222.222,0,0,1,.195-.117v8.189h-4.077a.252.252,0,0,1-.223-.371Z" transform="translate(-402.686 -272.522)"/><path class="r" d="M410.422,275.821a.253.253,0,0,0,.224-.372l-2.79-5.233a.225.225,0,0,0-.4,0l-2.79,5.233a.254.254,0,0,0,.223.372Z" transform="translate(-403.324 -270.098)"/><path class="r" d="M410.707,280.6a.3.3,0,0,0,.267-.442l-3.336-6.261a.269.269,0,0,0-.474,0l-3.339,6.261a.3.3,0,0,0,.269.442Z" transform="translate(-403.046 -271.291)"/><path class="r" d="M407.163,273.893a.265.265,0,0,1,.214-.14V280.6h-3.284a.3.3,0,0,1-.269-.442Z" transform="translate(-403.046 -271.292)"/><path class="r" d="M407.46,270.216a.221.221,0,0,1,.178-.116v5.722h-2.745a.254.254,0,0,1-.223-.372Z" transform="translate(-403.324 -270.099)"/></g><path class="m" d="M540.463,381.526a7.762,7.762,0,0,1-7.762,7.762H99.528a7.76,7.76,0,0,1-7.762-7.762h0a7.762,7.762,0,0,1,7.762-7.76H532.7a7.764,7.764,0,0,1,7.762,7.76Z" transform="translate(0 -74.237)"/><g transform="translate(432.104 276.766)"><rect class="af" width="23.796" height="17.298" transform="translate(2.756 6.428)"/><rect class="ag" width="23.796" height="17.298" transform="translate(2.756 6.428)"/><rect class="e" width="10.336" height="10.068" transform="translate(4.343 8.578)"/><path class="ah" d="M603.262,351.877h10.591v.6a.419.419,0,0,1-.418.418H603.68a.417.417,0,0,1-.418-.418Z" transform="translate(-599.126 -343.856)"/><path class="ah" d="M613.783,368.417H603.191v-.6a.42.42,0,0,1,.42-.419h9.755a.418.418,0,0,1,.417.419Z" transform="translate(-599.103 -348.923)"/><rect class="ai" width="4.272" height="9.429" transform="translate(4.833 9.043)"/><rect class="ai" width="4.274" height="9.429" transform="translate(9.918 9.043)"/><g transform="translate(18.486 8.78)"><rect class="e" width="6.195" height="13.386"/><rect class="ai" width="3.373" height="13.386" transform="translate(1.39)"/><g transform="translate(0.23 6.835)"><path class="aj" d="M625.851,363.623a.47.47,0,1,1-.469-.469A.471.471,0,0,1,625.851,363.623Z" transform="translate(-624.912 -363.154)"/><path class="aj" d="M627.177,363.806a.174.174,0,0,1-.175.174h-1.531v-.349H627A.174.174,0,0,1,627.177,363.806Z" transform="translate(-625.094 -363.31)"/></g></g><path class="ak" d="M631.122,353.125H623.18v-.717a.224.224,0,0,1,.225-.224H630.9a.224.224,0,0,1,.224.224Z" transform="translate(-605.63 -343.957)"/><path class="al" d="M631.736,354.774H621.4l1.2-1.193h7.943Z" transform="translate(-605.05 -344.412)"/><path class="ak" d="M631.736,355.565a.224.224,0,0,1-.225.223h-9.884a.225.225,0,0,1-.225-.223v-.214h10.334Z" transform="translate(-605.05 -344.991)"/><rect class="am" width="7.944" height="0.471" transform="translate(17.548 8.698)"/><path class="ak" d="M626.115,341.818H602.389v-1.543a.307.307,0,0,1,.306-.308h23.112a.307.307,0,0,1,.308.308Z" transform="translate(-598.841 -339.967)"/><rect class="am" width="23.726" height="1.208" transform="translate(3.548 0.643)"/><path class="al" d="M624.4,342.715h-23.74l-3.534,3.535h15.544l15.3,0Z" transform="translate(-597.121 -340.864)"/><path class="ak" d="M627.961,348.6a.667.667,0,0,1-.676.64H597.766a.644.644,0,0,1-.645-.644v-.636l30.84,0Z" transform="translate(-597.121 -342.578)"/><rect class="an" width="23.796" height="0.647" transform="translate(2.756 6.665)"/><g transform="translate(15.08 21.323)"><path class="ao" d="M632.791,373.535H619.758a.246.246,0,0,0-.246.246v.9h13.526v-.9A.246.246,0,0,0,632.791,373.535Z" transform="translate(-619.512 -372.251)"/><path class="aj" d="M632.238,371.628H621.355a.247.247,0,0,0-.248.246v1.038h11.375v-1.038A.246.246,0,0,0,632.238,371.628Z" transform="translate(-620.033 -371.628)"/></g></g><path class="ap" d="M12.239,0H92.617a12.239,12.239,0,0,1,12.239,12.239v0a12.24,12.24,0,0,1-12.24,12.24H12.239A12.239,12.239,0,0,1,0,12.24v0A12.239,12.239,0,0,1,12.239,0Z" transform="translate(345.193 314.458)"/><path class="ap" d="M485.866,400.305a4.371,4.371,0,0,1-4.37,4.37H244.927a4.37,4.37,0,0,1-4.37-4.37h0a4.37,4.37,0,0,1,4.37-4.37H481.5a4.371,4.371,0,0,1,4.37,4.37Z" transform="translate(-48.586 -81.476)"/><g transform="translate(469.133 279.387)"><path class="j" d="M664.877,368.9c.017.434.738.371.739-.036l.007-10.439a.372.372,0,1,0-.741,0l-.009,5.739c0,.018,0,.034,0,.053Z" transform="translate(-656.273 -348.486)"/><path class="j" d="M666.6,362.447v1.321c.018.566-.05.714-.435.99l-.717.363.2.4.731-.37a1.394,1.394,0,0,0,.671-1.387v-1.317Z" transform="translate(-656.46 -349.928)"/><path class="j" d="M663.258,364.762V363.4H662.8v1.363a1.442,1.442,0,0,0,.7,1.439l.744.376.2-.414-.727-.366C663.309,365.5,663.24,365.35,663.258,364.762Z" transform="translate(-655.595 -350.239)"/><path class="k" d="M668.123,356.2a3.76,3.76,0,1,1-3.761-3.759A3.759,3.759,0,0,1,668.123,356.2Z" transform="translate(-654.879 -346.659)"/><path class="l" d="M668.165,351.889a5.486,5.486,0,0,0-8.236-6.911,3.319,3.319,0,0,0-4.3,1.342,4.429,4.429,0,0,0-1.664,7.949c0,.043-.005.084-.005.129a4.37,4.37,0,0,0,7.481,3.072,4.541,4.541,0,0,0,6.721-5.581Z" transform="translate(-652.103 -343.858)"/><path class="m" d="M664.6,351.684a3.012,3.012,0,0,0-4-2.85,2.221,2.221,0,0,0-4.256.889c0,.043,0,.086,0,.127a2.985,2.985,0,0,0,.977,5.805,2.914,2.914,0,0,0,.763-.1,2.007,2.007,0,0,0,3.767.295h.024a1.829,1.829,0,0,0,1.827-1.8h0v-.233A3.008,3.008,0,0,0,664.6,351.684Z" transform="translate(-652.835 -345.048)"/></g><g transform="translate(387.696 258.743)"><path class="o" d="M540.463,345.21a.811.811,0,0,0,1.622,0v-2.433h-1.622Z" transform="translate(-534.211 -322.861)"/><path class="q" d="M544.833,338.53a.409.409,0,0,0,.36-.6l-6.661-12.493a.364.364,0,0,0-.643,0l-6.661,12.493a.41.41,0,0,0,.362.6Z" transform="translate(-531.18 -317.135)"/><path class="r" d="M537.89,325.436a.357.357,0,0,1,.314-.191v13.286H531.59a.41.41,0,0,1-.362-.6Z" transform="translate(-531.18 -317.136)"/><path class="q" d="M543.732,322.489a.41.41,0,0,0,.362-.6l-4.526-8.491a.366.366,0,0,0-.643,0l-4.526,8.491a.41.41,0,0,0,.363.6Z" transform="translate(-532.215 -313.205)"/><path class="q" d="M544.194,330.234a.488.488,0,0,0,.432-.719l-5.414-10.156a.434.434,0,0,0-.766,0l-5.417,10.156a.489.489,0,0,0,.434.719Z" transform="translate(-531.765 -315.139)"/><path class="r" d="M538.446,319.362a.423.423,0,0,1,.343-.225v11.1h-5.326a.489.489,0,0,1-.434-.719Z" transform="translate(-531.765 -315.142)"/><path class="r" d="M538.925,313.4a.358.358,0,0,1,.289-.187v9.28h-4.452a.41.41,0,0,1-.363-.6Z" transform="translate(-532.215 -313.207)"/></g><g transform="translate(379.527 242.737)"><path class="o" d="M528.717,318.059a.725.725,0,0,1-1.451,0v-2.177h1.451Z" transform="translate(-521.733 -298.073)"/><path class="ac" d="M519.417,312.086a.367.367,0,0,1-.323-.539l5.956-11.171a.324.324,0,0,1,.575,0l5.956,11.171a.367.367,0,0,1-.323.539Z" transform="translate(-519.05 -292.954)"/><path class="ad" d="M528.676,300.378a.318.318,0,0,0-.282-.171v11.881h5.914a.367.367,0,0,0,.323-.539Z" transform="translate(-522.101 -292.955)"/><path class="ac" d="M522.25,297.741a.366.366,0,0,1-.323-.537l4.047-7.594a.327.327,0,0,1,.575,0L530.6,297.2a.366.366,0,0,1-.323.537Z" transform="translate(-519.976 -289.439)"/><path class="ac" d="M521.007,304.667a.439.439,0,0,1-.389-.644l4.843-9.08a.388.388,0,0,1,.686,0l4.843,9.08a.438.438,0,0,1-.388.644Z" transform="translate(-519.545 -291.169)"/><path class="ad" d="M528.7,294.945a.38.38,0,0,0-.308-.2v9.926h4.763a.438.438,0,0,0,.388-.644Z" transform="translate(-522.101 -291.171)"/><path class="ad" d="M528.687,289.611a.328.328,0,0,0-.259-.168v8.3h3.983a.366.366,0,0,0,.323-.537Z" transform="translate(-522.113 -289.44)"/></g><g transform="translate(456.903 252.348)"><path class="o" d="M642.07,331.735a.711.711,0,1,0,1.422,0V329.6H642.07Z" transform="translate(-636.597 -312.165)"/><path class="n" d="M645.9,325.888a.359.359,0,0,0,.317-.527l-5.832-10.94a.32.32,0,0,0-.564,0l-5.831,10.94a.358.358,0,0,0,.316.527Z" transform="translate(-633.943 -307.152)"/><path class="p" d="M639.818,314.421a.319.319,0,0,1,.276-.168v11.635H634.3a.358.358,0,0,1-.316-.527Z" transform="translate(-633.943 -307.152)"/><path class="n" d="M644.936,311.841a.359.359,0,0,0,.315-.528l-3.962-7.434a.32.32,0,0,0-.564,0l-3.963,7.434a.359.359,0,0,0,.317.528Z" transform="translate(-634.849 -303.709)"/><path class="n" d="M645.338,318.623a.429.429,0,0,0,.379-.632l-4.742-8.892a.38.38,0,0,0-.671,0l-4.743,8.892a.429.429,0,0,0,.379.632Z" transform="translate(-634.455 -305.404)"/><path class="p" d="M640.3,309.1a.372.372,0,0,1,.3-.2v9.72H635.94a.429.429,0,0,1-.379-.632Z" transform="translate(-634.455 -305.406)"/><path class="p" d="M640.724,303.88a.323.323,0,0,1,.254-.166v8.128h-3.9a.359.359,0,0,1-.317-.528Z" transform="translate(-634.849 -303.711)"/></g><g transform="translate(259.806 261.983)"><rect class="af" width="26.295" height="19.111" transform="translate(25.093 17.899)"/><rect class="aq" width="26.295" height="19.111" transform="translate(25.093 17.899)"/><g transform="translate(38.956 20.516)"><rect class="e" width="9.876" height="9.619" transform="translate(0.044 0.533)"/><path class="ah" d="M409.245,348.48H399.126v.578a.4.4,0,0,0,.4.4h9.319a.4.4,0,0,0,.4-.4Z" transform="translate(-399.126 -348.48)"/><path class="ah" d="M399.192,364.284h10.117v-.577a.4.4,0,0,0-.4-.4h-9.32a.4.4,0,0,0-.4.4Z" transform="translate(-399.148 -353.322)"/><rect class="ai" width="4.083" height="9.008" transform="translate(5.37 0.977)"/><rect class="ai" width="4.082" height="9.008" transform="translate(0.51 0.977)"/></g><g transform="translate(27.162 20.497)"><rect class="e" width="6.844" height="14.793"/><rect class="ai" width="3.727" height="14.793" transform="translate(1.581)"/><g transform="translate(4.289 7.551)"><path class="aj" d="M389.856,360.184a.52.52,0,1,0,.52-.519A.521.521,0,0,0,389.856,360.184Z" transform="translate(-388.594 -359.665)"/><path class="aj" d="M387.982,360.386a.194.194,0,0,0,.194.194h1.692v-.387h-1.692A.193.193,0,0,0,387.982,360.386Z" transform="translate(-387.982 -359.837)"/></g></g><path class="ak" d="M380.282,348.585h8.777v-.791a.248.248,0,0,0-.249-.246h-8.28a.249.249,0,0,0-.249.246Z" transform="translate(-354.017 -327.659)"/><path class="al" d="M378.324,350.407h11.415l-1.319-1.319h-8.777Z" transform="translate(-353.377 -328.162)"/><path class="ak" d="M378.324,351.281a.249.249,0,0,0,.249.249h10.92a.248.248,0,0,0,.247-.249v-.234H378.324Z" transform="translate(-353.377 -328.802)"/><rect class="am" width="8.777" height="0.519" transform="translate(26.265 20.406)"/><rect class="an" width="26.295" height="0.714" transform="translate(25.093 18.161)"/><g transform="translate(22.825 34.354)"><path class="ao" d="M375.445,371.138h14.4a.271.271,0,0,1,.272.271v.995H375.174v-.995A.271.271,0,0,1,375.445,371.138Z" transform="translate(-375.174 -369.717)"/><path class="aj" d="M377.21,369.028h12.025a.272.272,0,0,1,.271.273v1.148H376.938V369.3A.272.272,0,0,1,377.21,369.028Z" transform="translate(-375.75 -369.028)"/></g><path class="ak" d="M375.856,342.887l1.745,1.41h28.69a.713.713,0,0,0,.714-.713v-.7Z" transform="translate(-352.571 -326.136)"/><path class="al" d="M400.117,337.083H366.726l5.934,3.909,14.187,0h17.176Z" transform="translate(-349.59 -324.242)"/><path class="ak" d="M399.763,334.046H366.726v2.045H400.1v-1.705A.338.338,0,0,0,399.763,334.046Z" transform="translate(-349.59 -323.251)"/><rect class="am" width="33.376" height="1.334" transform="translate(17.136 11.506)"/><path class="ar" d="M367.285,357.283H343.659V333.836l11.866-12.73,11.76,12.73Z" transform="translate(-342.058 -319.026)"/><g transform="translate(8.402 23.182)"><rect class="e" width="9.571" height="9.319" transform="translate(0.043 0.516)"/><path class="ah" d="M363.562,352.439h-9.8V353a.387.387,0,0,0,.387.388h9.031a.386.386,0,0,0,.387-.388Z" transform="translate(-353.757 -352.439)"/><path class="ah" d="M353.82,367.75h9.8v-.558a.388.388,0,0,0-.387-.389h-9.03a.388.388,0,0,0-.388.389Z" transform="translate(-353.778 -357.13)"/><rect class="ai" width="3.956" height="8.729" transform="translate(5.204 0.945)"/><rect class="ai" width="3.956" height="8.729" transform="translate(0.495 0.945)"/></g><g transform="translate(8.402 9.777)"><rect class="e" width="9.571" height="9.321" transform="translate(0.043 0.515)"/><path class="ah" d="M363.562,332.534h-9.8v.558a.387.387,0,0,0,.387.388h9.031a.387.387,0,0,0,.387-.388Z" transform="translate(-353.757 -332.534)"/><path class="ah" d="M353.82,347.848h9.8v-.56a.386.386,0,0,0-.387-.386h-9.03a.386.386,0,0,0-.388.386Z" transform="translate(-353.778 -337.226)"/><rect class="ai" width="3.956" height="8.73" transform="translate(5.204 0.946)"/><rect class="ai" width="3.956" height="8.73" transform="translate(0.495 0.946)"/></g><path class="ak" d="M354.751,318.017,341.282,332.53l1.156,1.157,12.313-13.208,12.2,13.208,1.193-1.27Z" transform="translate(-341.282 -318.017)"/></g><g transform="translate(309.289 280.931)"><path class="j" d="M428.183,369.543c.016.457.775.389.777-.038l.008-8.04a.391.391,0,1,0-.779,0l-.01,6.032a.28.28,0,0,0,0,.053Z" transform="translate(-419.139 -351.015)"/><path class="j" d="M429.991,365.687v1.391c.018.593-.051.751-.457,1.039l-.754.381.205.421.769-.389a1.464,1.464,0,0,0,.705-1.456v-1.387Z" transform="translate(-419.336 -352.53)"/><path class="j" d="M426.48,368.122V366.69h-.486v1.432a1.519,1.519,0,0,0,.741,1.513l.783.4.213-.435-.764-.385C426.533,368.9,426.459,368.74,426.48,368.122Z" transform="translate(-418.426 -352.858)"/><path class="k" d="M431.593,359.121a3.952,3.952,0,1,1-3.951-3.953A3.95,3.95,0,0,1,431.593,359.121Z" transform="translate(-417.674 -349.095)"/><path class="y" d="M431.637,354.592a5.764,5.764,0,0,0-8.661-7.257,3.449,3.449,0,0,0-4.493,1.4,4.654,4.654,0,0,0-1.765,8.356c0,.048-.007.092-.007.138a4.593,4.593,0,0,0,7.862,3.229,4.774,4.774,0,0,0,7.065-5.866Z" transform="translate(-414.757 -346.151)"/><path class="z" d="M430.807,354.376a3.167,3.167,0,0,0-4.2-2.995,2.333,2.333,0,0,0-4.471.935c0,.046,0,.09,0,.133a3.137,3.137,0,0,0,1.828,6,2.108,2.108,0,0,0,3.958.309h.025a1.922,1.922,0,0,0,1.92-1.888h0v-.243A3.16,3.16,0,0,0,430.807,354.376Z" transform="translate(-416.479 -347.402)"/></g><path class="e" d="M589.889,267.13a6.4,6.4,0,1,0-1.4-12.644,8.582,8.582,0,0,0-16.68-1.629,5.673,5.673,0,0,0-7.387,4.951,3.588,3.588,0,0,0-5.108,3.261,3.031,3.031,0,0,0,.047,6.061Z" transform="translate(-151.697 -32.822)"/><g transform="translate(455.256 146.418)"><g transform="translate(22.021 51.419)"><path class="as" d="M668.428,226.923c.679-1.168-.322-2.461-1.273-3.423l-.726-.733-.733.737c-.952.956-1.951,2.235-1.283,3.4a2.312,2.312,0,0,0,4.015.015Z" transform="translate(-664.196 -222.767)"/><path class="e" d="M667.969,228.5c.392-.678-.185-1.421-.737-1.98l-.421-.424-.424.425c-.548.551-1.126,1.292-.74,1.97a1.337,1.337,0,0,0,2.321.009Z" transform="translate(-664.629 -223.853)"/></g><path class="at" d="M666.62,231.523a1.578,1.578,0,0,0-1.5-1.108l-2.378-.008a1.576,1.576,0,0,0-1.507,1.094l-4.758-.019,0,1.148,14.9.058,0-1.146Z" transform="translate(-639.654 -173.843)"/><g transform="translate(12.897 46.802)"><path class="at" d="M655.432,231.106l-4.784-14.931.771-.263,4.785,14.933Z" transform="translate(-650.648 -215.912)"/></g><g transform="translate(30.19 46.886)"><path class="at" d="M677.1,231.2,682,216.3l-.771-.268-4.9,14.9Z" transform="translate(-676.326 -216.036)"/></g><g transform="translate(0 0.127)"><path class="au" d="M641.4,171.475a32.281,32.281,0,0,1,11.72-24.792A24.531,24.531,0,0,0,631.5,170.94a25.188,25.188,0,0,0,7.842,18.07s6.945,7.917,12.13,7.937l2.2.007A32.282,32.282,0,0,1,641.4,171.475Z" transform="translate(-631.498 -146.631)"/><path class="au" d="M671.633,146.606a32.338,32.338,0,0,1,.175,50.344l1.564.009c4.659.018,12.31-7.843,12.31-7.843a24.529,24.529,0,0,0-14.049-42.51Z" transform="translate(-644.603 -146.606)"/></g><path class="av" d="M656.177,146.6c-8.355,5.9-13.693,14.8-13.734,24.783-.039,10.324,5.6,19.532,14.411,25.491l5.9.025c8.509-5.9,13.962-14.886,14-24.975.041-10.253-5.527-19.409-14.24-25.371-.923-.081-1.867-.126-2.818-.13A33.39,33.39,0,0,0,656.177,146.6Z" transform="translate(-635.072 -146.418)"/><path class="au" d="M662.967,146.6c-3.581,5.921-5.879,14.834-5.916,24.814-.042,10.325,2.345,19.521,6.09,25.46l2.519.009c3.647-5.92,5.994-14.915,6.031-25,.042-10.254-2.314-19.4-6.019-25.339a6.148,6.148,0,0,0-1.2-.124A6.4,6.4,0,0,0,662.967,146.6Z" transform="translate(-639.842 -146.418)"/><path class="aw" d="M671.192,246.112a1.915,1.915,0,0,1-1.92,1.9l-10.094-.04a1.911,1.911,0,0,1-1.9-1.918l.033-8.4a.382.382,0,0,1,.384-.382l13.149.054a.382.382,0,0,1,.381.383Z" transform="translate(-639.916 -176.086)"/></g><path class="ax" d="M484.453,408.913H244.326a7.9,7.9,0,0,1,.04,15.8h-9.781a6.6,6.6,0,1,0,0,13.2l96.629.024a5.149,5.149,0,0,1,0,10.3H305.305a4.351,4.351,0,1,0,0,8.7l86.391-.09a4.356,4.356,0,0,0,.93-8.612h62.316a5.149,5.149,0,1,0,0-10.3h-19.77l-6.518-.024a6.6,6.6,0,0,1-.038-13.2h55.836a7.9,7.9,0,0,0,0-15.8Z" transform="translate(-44.48 -85.714)"/><path class="ay" d="M474.723,446.588a1.745,1.745,0,0,1-1.639-1.74,1.751,1.751,0,0,0-1.751-1.75h-4.58a1.766,1.766,0,0,0-.453.066H428.912a1.716,1.716,0,1,0,0,3.433h17.894a1.457,1.457,0,0,1,1.108,1.412,1.459,1.459,0,0,0,1.459,1.459h2.055a1.528,1.528,0,0,1-.2.02h27.51a1.45,1.45,0,1,0,0-2.9h-4.012Z" transform="translate(-109.53 -96.877)"/><g transform="translate(323.761 298.171)"><path class="az" d="M467.807,417.845a.624.624,0,0,1-1.248,0v-25.3a.624.624,0,0,1,1.248,0Z" transform="translate(-446.144 -378.338)"/><path class="ba" d="M439.334,409.973l18.482-32.061L476.3,409.973Z" transform="translate(-437.254 -373.762)"/><path class="bb" d="M455.543,429.5H436.707a.453.453,0,0,0-.345.752,25.73,25.73,0,0,0,19.182,8.549H467.9a5.786,5.786,0,0,0,5.786-5.786V430.5a1,1,0,0,0-1-1Z" transform="translate(-436.246 -390.607)"/><path class="bc" d="M485.261,409.973l-18.483-32.061v32.061Z" transform="translate(-446.216 -373.762)"/><path class="bd" d="M470.631,373.825l2.074-2.074h-5.928v4.15h5.928Z" transform="translate(-446.216 -371.75)"/><path class="bb" d="M441.967,435.684a25.673,25.673,0,0,0,15.445,5.136h12.353a5.785,5.785,0,0,0,5.748-5.136Z" transform="translate(-438.114 -392.627)"/><path class="be" d="M475.89,435.321a.672.672,0,0,1-.672.673H442.524a3.373,3.373,0,0,1-2.02-.673.4.4,0,0,1,.225-.674h34.489A.674.674,0,0,1,475.89,435.321Z" transform="translate(-437.599 -392.288)"/></g><path class="bf" d="M361.029,419.876H301.961a2.542,2.542,0,0,0-2.542,2.542,2.336,2.336,0,0,1-2.562,2.159h-4.228a1.99,1.99,0,1,0,0,3.98h31.883a2.541,2.541,0,0,1,2.51,2.54,2.541,2.541,0,0,0,2.542,2.542h18.6a2.542,2.542,0,1,0,0-5.084H334.278a1.978,1.978,0,1,1,0-3.957s19.228-.01,26.751-.01a2.356,2.356,0,0,0,0-4.712Z" transform="translate(-64.939 -89.294)"/></g></svg>