<svg xmlns="http://www.w3.org/2000/svg" width="103" height="103" viewBox="0 0 103 103"><defs><style>.a{fill:#80cbc4;}</style></defs><g transform="translate(-994 -1323)"><circle class="a" cx="51.5" cy="51.5" r="51.5" transform="translate(994 1323)"/><g transform="translate(635.246 1276.439)"><path d="M403.78,120.813h3.579a2.731,2.731,0,0,0,5.19,0h3.668l4.027,13.333H399.753Zm14.227-43.846-1.79,6.98H403.78l-1.79-6.98h6.174v1.79h3.669v-1.79Zm0,8.769-1.79,7.069H403.78l-1.79-7.069h6.174v1.79h3.669v-1.79Zm0,8.86-1.79,6.89H403.78l-1.79-6.89h6.174v1.7h3.669V94.6Zm0,8.679-1.79,6.98H403.78l-1.79-6.98h6.174v1.79h3.669v-1.79Zm-9.843,8.769v1.7h3.669v-1.7h6.174l-1.79,6.98h-3.668a2.731,2.731,0,0,0-5.19,0H403.78l-1.79-6.98Zm5.28-36.866h-6.891V71.33h1.253l.447-1.611h.627v-1.61h.447V62.561h1.253v5.548h.537v1.61h.627l.358,1.611h1.342Z"/></g></g></svg>