<svg xmlns="http://www.w3.org/2000/svg" width="103" height="103" viewBox="0 0 103 103"><defs><style>.a{fill:#fff59d;}</style></defs><g transform="translate(-1180 -1323)"><circle class="a" cx="51.5" cy="51.5" r="51.5" transform="translate(1180 1323)"/><g transform="translate(635.309 1276.421)"><path d="M627.279,122.948v1.859H565.768v-.852l-.077-.078v-.929c12.008-7.205,27.5-37.185,27.5-46.172v-6.2h1.782V72.9h1.472v1.549H594.9c0,17.508-6.353,35.4-10.459,48.806h8.289V116.13l3.874-3.486,3.8,3.486v7.128h8.134c-4.106-13.4-10.458-31.3-10.458-48.806h-1.55V72.9h1.472V70.579h1.782v6.2C599.777,85.763,615.271,115.743,627.279,122.948Zm-52.834.31c7.747-7.128,13.557-20.839,17.663-36.566-4.493,13.712-11.466,27.579-22.776,36.566Zm49.192,0c-11.31-8.987-18.282-22.854-22.775-36.566,4.106,15.727,9.916,29.438,17.663,36.566Z"/></g></g></svg>