<svg xmlns="http://www.w3.org/2000/svg" width="103" height="103" viewBox="0 0 103 103"><defs><style>.a{fill:#90caf9;opacity:0.7;}</style></defs><g transform="translate(-987 -1561.048)"><circle class="a" cx="51.5" cy="51.5" r="51.5" transform="translate(987 1561.048)"/><g transform="translate(635.118 1276.447)"><path d="M421.113,326.409c0,8.268-6.063,17.822-11.852,24.62l-.918,5.237-.46,7.9h-9l-.459-7.9-.919-5.237c-5.788-6.8-11.851-16.352-11.851-24.62,0-10.658,7.9-18.375,17.731-18.375S421.113,315.751,421.113,326.409Zm-22.967,22.783h1.561c-3.307-6.982-6.8-14.7-6.8-22.783,0-7.993,2.388-12.771,5.971-16.078-6.8,2.205-11.024,8.452-11.024,16.078C387.856,334.309,393.735,343.037,398.146,349.192Zm9.278,1.837H399.34l.918,5.237h6.247Zm-7.993-24.62c0,6.89,1.562,16.536,2.94,22.783h2.021c1.379-6.247,2.941-15.893,2.941-22.783,0-6.615-1.287-13.781-3.951-16.538C400.718,312.628,399.431,319.794,399.431,326.409Zm19.477,0c0-7.626-4.226-13.873-11.025-16.078,3.584,3.307,5.972,8.085,5.972,16.078,0,8.084-3.491,15.8-6.8,22.783h1.562C413.029,343.037,418.908,334.309,418.908,326.409Z"/></g></g></svg>