<svg xmlns="http://www.w3.org/2000/svg" width="103" height="103" viewBox="0 0 103 103"><defs><style>.a{fill:#f48fb1;}</style></defs><g transform="translate(-1777.336 -1322.045)"><circle class="a" cx="51.5" cy="51.5" r="51.5" transform="translate(1777.336 1322.045)"/><g transform="translate(635.118 1276.447)"><path d="M1222.449,105.667c-1.863,9.545-9.8,15.154-18.759,13.723-.72-.115-1.441-.243-2.167-.3-5.317-.423-6.964.773-8.249,5.965-1.521-2.646-.625-7.947,1.7-10.424,3.434-3.663,7.886-5.146,12.649-5.875a41.6,41.6,0,0,1,6.813-.515C1217.254,108.277,1219.9,107.982,1222.449,105.667Z"/><path d="M1164.986,105.455c2.8,2.578,5.472,2.678,8.275,2.767,6.317.2,12.617.71,17.844,4.944,1.083.877.949,5.414-.182,6.181a.67.67,0,0,1-.5.119c-4.292-1.513-8.633,1.041-13-.3C1170.807,117.129,1166.757,112.937,1164.986,105.455Z"/><path d="M1193.627,79.429c4.209-.083,8.019,3.931,8.109,8.544.068,3.532-4.383,7.545-8.386,7.559-3.517.012-9.483-4.568-9.646-7.4C1183.505,84.668,1189.386,79.513,1193.627,79.429Z"/><path d="M1212.32,84.587a2.094,2.094,0,0,1-1.615,2.272c-3.557,1.137-8.155-1.28-9.371-4.889a2.444,2.444,0,0,1,.969-3.1c1.849-1.2,3.885-2.476,6.04-1.108C1210.756,79.289,1211.761,81.871,1212.32,84.587Z"/><path d="M1218.612,102.4c-.221,3.444-1.51,4.636-4.685,4.588-7.316-.112-14.354,1.119-20.074,6.568-1.1-1.542.014-2.439.794-3.311,2.881-3.219,6.7-4.607,10.823-5.254a38.779,38.779,0,0,1,6.245-.547C1214.145,104.46,1216.426,104.217,1218.612,102.4Z"/><path d="M1169.058,102.448c3.586,2.977,7.726,1.621,11.514,2.274,3.9.672,7.72,1.395,10.879,4.017.725.6,1.545,1.139.743,2.215-.84,1.126-1.437.029-2.036-.308A30.548,30.548,0,0,0,1173.805,107C1170.632,107.11,1169.239,105.993,1169.058,102.448Z"/><path d="M1199.515,74.451c-.013,2.88-.637,3.376-3.464,2.668a28.182,28.182,0,0,1-4.089-1.452c-1.589-.671-2.272-1.532-2.094-3.277.183-1.789.943-2.576,2.782-2.983C1197.055,68.434,1199.535,70.126,1199.515,74.451Z"/><path d="M1197.661,96.58c3.748.082,4.747.79,4.714,3.342-.035,2.754-2.033,4.52-5.012,4.432s-5.329-1.963-5.391-4.3C1191.934,98.584,1195.3,96.528,1197.661,96.58Z"/><path d="M1177.673,76.879a2.285,2.285,0,0,1,1.312-2.579c1.763-.967,6.348-.353,7.768,1.067a1.869,1.869,0,0,1,.409,2.673,9.512,9.512,0,0,1-1.289,1.758c-1.189,1.023-1.757,3.084-4.158,2.087S1177.552,79.619,1177.673,76.879Z"/><path d="M1182.558,90.621a3.438,3.438,0,0,1-3.26,2.762c-2.093.148-5.234-2.554-5.262-4.384-.033-2.13,2.434-4.4,4.777-4.393C1181.517,84.612,1182.611,86.276,1182.558,90.621Z"/><path d="M1188.695,98.148c-.036,2.609-1.816,5-3.717,4.994-2.282-.008-4.535-2.672-4.491-5.31.023-1.4,2.7-3.5,4.432-3.465C1187.785,94.42,1188.733,95.369,1188.695,98.148Z"/><path d="M1206.622,98.753c-1.8.011-4.438-3.989-4.141-6.8.19-1.8,2.009-1.883,3.418-1.962,2.287-.127,4.577,1.69,4.549,3.425C1210.4,96.659,1208.9,98.74,1206.622,98.753Z"/></g></g></svg>