<svg xmlns="http://www.w3.org/2000/svg" width="103" height="103" viewBox="0 0 103 103"><defs><style>.a{fill:#ffcc80;}</style></defs><g transform="translate(-1582.523 -1322)"><circle class="a" cx="51.5" cy="51.5" r="51.5" transform="translate(1582.523 1322)"/><g transform="translate(635.118 1276.447)"><path d="M1028.788,125.855h-24.771l-1.439-13.321H996.1l-1.8,13.321H969.022l2.521-14.041h4.1V89.276h10.009v22.538h5.328v-1.44h1.44V101.3h30.6v9.073h1.44v1.44h2.233ZM989.329,78.043H971.975l8.712-9.793Zm-16.418,1.44h2.952s.721,3.24,1.008,4.32c.216,1.08.864,1.08,1.656,1.08h4.033c.863,0,1.44,0,1.728-1.08l.936-4.32h3.168L986.3,87.836H975Zm9.073,12.673h-2.665v3.1h2.665Zm0,7.129h-2.665v3.1h2.665Zm0,7.848h-2.665v4.681h2.665Zm42.556-7.272H990.984v-1.3l4.033-3.168h25.2l4.321,3.168Zm-24.411,5.544c0-1.008-1.224-1.8-2.664-1.8s-2.592.792-2.592,1.8v4.969h5.256Zm18.866-12.889v1.44H996.1v-1.44ZM1007.042,105.4c0-1.008-1.153-1.8-2.592-1.8s-2.593.792-2.593,1.8v4.969h5.185Zm6.984,0c0-1.008-1.151-1.8-2.592-1.8s-2.592.792-2.592,1.8v4.969h5.184Zm6.7,0c0-1.008-1.152-1.8-2.593-1.8s-2.591.792-2.591,1.8v4.969h5.184Z"/></g></g></svg>