<svg xmlns="http://www.w3.org/2000/svg" width="103" height="103" viewBox="0 0 103 103"><defs><style>.a{fill:#c5e1a5;}</style></defs><g transform="translate(-1385.763 -1324.556)"><circle class="a" cx="51.5" cy="51.5" r="51.5" transform="translate(1385.763 1324.556)"/><g transform="translate(635.118 1276.447)"><path d="M784.286,110.844h35.728a20.893,20.893,0,0,1-5.031,5.554,20.412,20.412,0,0,1-10.718,4.255,21.157,21.157,0,0,1-19.979-9.809Z"/><path d="M803.11,78.524a20.088,20.088,0,0,1,7.1,1.566,20.869,20.869,0,0,1,10,8.647,21.093,21.093,0,0,1,.527,20.8L803.073,78.6Z"/><path d="M783.591,109.615a21.115,21.115,0,0,1,9.5-29.058,20.711,20.711,0,0,1,8-2.029l.054.058Z"/><path d="M820.726,109.7c-.168.291-.317.554-.469.814s-.176.259-.444.107l-2.58-1.467q-7.4-4.217-14.8-8.438a.4.4,0,0,0-.453.029q-8.052,4.536-16.108,9.068c-.494.278-.989.553-1.479.837-.135.079-.211.063-.284-.078-.116-.22-.238-.439-.373-.648-.1-.152-.065-.231.086-.319.934-.543,1.862-1.095,2.793-1.643q7.2-4.247,14.41-8.488a.463.463,0,0,0,.265-.461q-.011-10.059-.006-20.118c0-.4,0-.4.416-.413.332-.006.665,0,1-.015.15-.006.206.05.192.2a2.148,2.148,0,0,0,0,.227q0,10.071,0,20.141a.4.4,0,0,0,.225.411q8.7,5.049,17.393,10.112C820.57,109.592,820.636,109.639,820.726,109.7Z"/><path d="M802.144,126.27A26.661,26.661,0,1,1,828.8,99.609,26.692,26.692,0,0,1,802.144,126.27Zm0-50.742a24.081,24.081,0,1,0,24.081,24.081A24.108,24.108,0,0,0,802.144,75.528Z"/></g></g></svg>