<svg id="圖層_1" data-name="圖層 1" xmlns="http://www.w3.org/2000/svg" xmlns:xlink="http://www.w3.org/1999/xlink" viewBox="0 0 1570 1574"><defs><style>.cls-1{fill:none;}.cls-2{fill:#fff;}.cls-3{fill:#83c5d1;}.cls-4{clip-path:url(#clip-path);}.cls-5{fill:#5c452e;}.cls-6{fill:#e6bd58;}.cls-7{fill:#951e23;}.cls-8{fill:#91407c;}.cls-9{fill:#e4bcc7;}.cls-10{fill:#9d708f;}.cls-11{fill:#f3f3e8;}.cls-12{fill:#8e3723;}.cls-13{fill:#df7d66;}.cls-14{fill:#954f23;}</style><clipPath id="clip-path"><rect class="cls-1" x="187.78" y="259.8" width="1124.04" height="1124.04"/></clipPath></defs><title>標章</title><circle class="cls-2" cx="785.24" cy="791.8" r="785.06" transform="translate(-329.89 787.16) rotate(-45)"/><circle class="cls-3" cx="785.24" cy="791.8" r="676.61" transform="translate(-329.89 787.16) rotate(-45)"/><path class="cls-2" d="M1224.23,791.8c0,242.45-196.54,439-439,439s-439-196.52-439-439,196.54-439,439-439S1224.23,549.35,1224.23,791.8Z"/><path class="cls-2" d="M388.09,408.72l-7.15-8q-4.76-4.6-4.52-8.74t5.48-8.16l26.16-23.33-5-5.65c-2.33-2.62-2.16-5.11.51-7.5s5.09-2.19,7.42.42l5,5.65L443.33,329q4.59-4.75,8.73-4.52t8.16,5.48l7.16,8a6.24,6.24,0,0,1,1.93,4,5.68,5.68,0,0,1-5.47,4.88,6.25,6.25,0,0,1-3.75-2.38L454.31,338a5.27,5.27,0,0,0-3.6-2,4.8,4.8,0,0,0-3.64,1.61L390,388.51q-3.91,3.5-.32,7.16l5.77,6.47q3.73,4.2.1,7.44T388.09,408.72Zm114-5.33q-10,2-27.58,7.42-4.79,24.88-29.85,47.25c-1.83,1.62-3.48,2.5-4.95,2.61a4.87,4.87,0,0,1-4.09-1.92,4,4,0,0,1-1.05-4.3q.69-1.59,7.46-8a90.58,90.58,0,0,0,14-16.15,59.71,59.71,0,0,0,7.65-15.74,256,256,0,0,0-25.89,11,12.58,12.58,0,0,1-5.53,1.5,5.28,5.28,0,0,1-4-1.87,12.5,12.5,0,0,1-2.4-4.9l-4-14.93-16.77,15q-4.29,3.82-7.29.45t1.19-7.29l20.14-18-6.07-17.82q-1.42-4,.95-6.09a6.16,6.16,0,0,1,3.95-1.81,4.7,4.7,0,0,1,3.58,1.81q1.13,1.28,6,16.43L471,349.36q4.27-3.81,7.37-.35t-1.28,7.19l-11.75,10.49q9.68,16.89,10.05,32.92a276,276,0,0,1,28.87-8.73q4.56-1.12,6.84,1.42a5.57,5.57,0,0,1-.56,8.36C509.54,401.53,506.74,402.44,502.13,403.39Zm-66.89,11.23q1.38,1.54,3.78.39,7.58-3.81,23.7-10.5c.83-.42,1.8-.85,2.92-1.3q1.07-13.87-8.08-29.62L430.4,397.82l3.9,15A4.38,4.38,0,0,0,435.24,414.62Z"/><path class="cls-2" d="M537.61,355.22a3.77,3.77,0,0,1-2.74-1.64,14.07,14.07,0,0,1-1.52-5.75,94.25,94.25,0,0,0-2.55-16.66q-2-8-5.54-18.27a5.91,5.91,0,0,1-.14-4,4.9,4.9,0,0,1,2.76-2.65,5.41,5.41,0,0,1,4.33-.34A5.2,5.2,0,0,1,535,309a167.73,167.73,0,0,1,6.36,19,113.13,113.13,0,0,1,3.54,18.43,11,11,0,0,1-.59,5.09,5.11,5.11,0,0,1-2.64,2.92A7.18,7.18,0,0,1,537.61,355.22Zm41.49,1.28q-5.51,1.61-8.86.24t-5.67-6.49L537.9,291q-1.39-3.12-.83-5.12a5.17,5.17,0,0,1,3.14-3.15c3.34-1.51,5.91-.25,7.72,3.75l24.66,54.79c1,2.23,2.18,3.6,3.52,4.11a8.29,8.29,0,0,0,5.31-.25,105.53,105.53,0,0,0,10.76-4.37q12.92-5.82,14.59-8a6.31,6.31,0,0,0,.71-4.68,37.31,37.31,0,0,0-2.74-8.47,5.74,5.74,0,0,1-.43-4.23,6.11,6.11,0,0,1,7.24-3.26,7.12,7.12,0,0,1,3,3.35q4.17,9,4.4,14.69c.15,3.82-1,6.8-3.4,9q-4.31,3.81-20.12,10.93A139.22,139.22,0,0,1,579.1,356.5Zm-13.59-87.16q-7.32-1.39-19.91-3.49a6.18,6.18,0,0,1-3.07-1.17,5.44,5.44,0,0,1-1.65-2.47,5.3,5.3,0,0,1,.28-3.54,4.93,4.93,0,0,1,2.65-2.73,5.52,5.52,0,0,1,2.32-.51,75.22,75.22,0,0,1,10.86.47q6.25.66,12,1.83a9.31,9.31,0,0,1,3.7,1.21,5.79,5.79,0,0,1,2,2.52,5.53,5.53,0,0,1,.38,4,4.86,4.86,0,0,1-2.13,2.84A10.64,10.64,0,0,1,565.51,269.34Zm59.22,39.9q-1.72-.56-9-8.4A128.88,128.88,0,0,0,600.27,287q-7.95-6.06-8.76-7.85-1.9-4.23,3.11-6.48,3.45-1.56,19.13,10.67,15.42,11.94,18.33,18.4a4.64,4.64,0,0,1-.21,4,6.64,6.64,0,0,1-3.25,3.2A5.45,5.45,0,0,1,624.73,309.24Z"/><path class="cls-2" d="M712.06,259.79l2,24.73.37,10.77a82.63,82.63,0,0,1-.29,13.07,10.16,10.16,0,0,1-2.58,5.95,16.45,16.45,0,0,1-5.35,3.19,25.69,25.69,0,0,1-6.85,1.89c-2,.23-3.48,0-4.38-.67s-1.45-1.94-1.66-3.8a4.9,4.9,0,0,1,1-4c.83-1,2.29-1.56,4.4-1.8,3.56-.41,5.63-1.95,6.23-4.64q.5-2.14.25-9.68t-1.34-23.51l-.48-6.34q-.15-3.42-3.79-3l-10.43,1.2a229.53,229.53,0,0,1,.27,23.32A99.25,99.25,0,0,1,687,303.72a41.82,41.82,0,0,1-3.89,11.14q-2.25,3.94-4.8,4.23a4.73,4.73,0,0,1-3.7-1.11,5.06,5.06,0,0,1-1.86-3.41,6.05,6.05,0,0,1,0-1.6,9.83,9.83,0,0,1,.7-1.93,69.17,69.17,0,0,0,4.73-13.44,73.86,73.86,0,0,0,2.18-14.27q.76-13.72-2.66-43.7l-7.89.91q-5.46.61-6-4.11t4.93-5.24l12.74-1.45-1.58-13.84c-.4-3.47,1.1-5.41,4.5-5.8s5.17,1.18,5.57,4.65l1.59,13.83L705.72,227a6,6,0,0,1,4.07.64,4.42,4.42,0,0,1,1.67,3.37q.56,4.74-4.67,5.33l-20,2.29,1.6,15.06,13-1.48Q711.42,251,712.06,259.79Zm6.56-17.34c-1.56,2.47-3.11,3.8-4.65,4a4.48,4.48,0,0,1-3.45-1.14,4.62,4.62,0,0,1-1.82-3.05,3.93,3.93,0,0,1,.55-2.15q.64-1.31,2.51-4.35a76.57,76.57,0,0,0,5.11-10.17,98,98,0,0,0,4-12.74,47.33,47.33,0,0,1,1.57-5.1,4.8,4.8,0,0,1,1.41-2.13,4.88,4.88,0,0,1,2.25-.75,5.08,5.08,0,0,1,3.55.89,3.89,3.89,0,0,1,1.79,2.81,8.5,8.5,0,0,1-.32,3c-.32,1.23-1.11,3.76-2.39,7.59l38.82-4.44c3.72-.42,5.77,1,6.14,4.22q.52,4.61-5.06,5.24l-43.67,5A99.06,99.06,0,0,1,718.62,242.45ZM775.32,261q-2.05,2.94-9.48,11.16l-4.55,5.32a58.48,58.48,0,0,0,17.19,21.38,24,24,0,0,1,3.15,2.84,4.71,4.71,0,0,1,1,2.59,5.76,5.76,0,0,1-1.12,4.18,5,5,0,0,1-3.57,2.13,9.36,9.36,0,0,1-5.89-1.54q-3.11-1.86-7.61-8a99.15,99.15,0,0,1-12.28-22.44,135.28,135.28,0,0,1-7.83-27.62l-1.16.62-7.52,4.06a3.7,3.7,0,0,0-1.7,1.85,4.9,4.9,0,0,0-.38,2.56L738.05,299q4.89-2.4,8.33-4.52c1.15-.7,2-1.21,2.54-1.52a3.56,3.56,0,0,1,1.29-.51,3.84,3.84,0,0,1,3,.88,4.13,4.13,0,0,1,1.48,2.78,3.64,3.64,0,0,1-.35,2.26,6.52,6.52,0,0,1-1.87,1.93q-1.26.89-8.51,5.16-2.41,1.38-8,4.35a16.61,16.61,0,0,0-2.22,1,16.68,16.68,0,0,1-1.62.86c-1.62.84-3.06,1.56-4.3,2.16a10.31,10.31,0,0,1-2.84,1,4.19,4.19,0,0,1-3.18-1,4.33,4.33,0,0,1-1.7-3,4,4,0,0,1,.92-3.24,12,12,0,0,1,4.19-2.63l3.28-1.36-5-44.05a10.63,10.63,0,0,1,.83-6.18,10.87,10.87,0,0,1,4.85-4.3q5.93-3,14.84-8.4t12.31-7.86a23,23,0,0,1,2.12-1.35,5.29,5.29,0,0,1,1.73-.44,4.24,4.24,0,0,1,3.4,1.21,5.38,5.38,0,0,1,1.81,3.48,4.12,4.12,0,0,1-.66,2.84,12.11,12.11,0,0,1-3.23,2.89c-1.6,1.09-4.13,2.6-7.59,4.56L752,247q2.94,15,5.61,22.22l1.58-2.27,6.8-9.39a20,20,0,0,1,2.91-4.14,4.28,4.28,0,0,1,2.49-1.27,5.29,5.29,0,0,1,3.75,1.05,4.23,4.23,0,0,1,2,3C777.31,257.45,776.69,259.08,775.32,261Z"/><path class="cls-2" d="M850.41,311.62a33.4,33.4,0,0,1-13.24-10.76l-.22-.16q-13.44,8.06-17.05,7.42-4.7-.83-3.72-6.36.68-3.84,6.47-5.06A76.36,76.36,0,0,0,833,293.44l3.91-22.25c.44-2.49-.59-3.95-3.07-4.39l-6.49-1.14A5,5,0,0,1,824,264a4.48,4.48,0,0,1-.55-3.57,4.28,4.28,0,0,1,1.72-3.1,5.28,5.28,0,0,1,3.73-.4l9.38,1.65c3.45.61,5.84,1.79,7.19,3.56s1.65,4.24.92,7.41l-4.29,24.42,2.82,3.72q6.72,7.64,33.9,12.41l42.78,7q4.57.8,3.79,5.25-.87,4.94-7.84,3.71l-37.15-6.66Q858.89,315.6,850.41,311.62Zm-8.22-66.79-9.2-6.2a7.61,7.61,0,0,1-2.49-2.43,4.23,4.23,0,0,1-.42-2.92q.81-4.58,5.5-3.75a13.46,13.46,0,0,1,3.56,1.62q2.48,1.42,5.83,3.51,7.24,4.62,6.59,8.35c-.58,3.29-2.43,4.65-5.56,4.1A9.26,9.26,0,0,1,842.19,244.83ZM852.53,223a24.4,24.4,0,0,1-2-1.54L843.29,216c-2.56-1.94-3.66-3.87-3.32-5.79.55-3.13,2.34-4.43,5.39-3.89q1.56.27,8.89,5.16a20.3,20.3,0,0,1,5,4.54,5.49,5.49,0,0,1,1.26,4.13q-.88,5.06-5.58,4.23A7.76,7.76,0,0,1,852.53,223Zm6,73.17q.75-4.21,5.92-3.3l3.58.75a3.52,3.52,0,0,0,3.93-1.17q2-2.87,4.89-15.13l3.16-14.45q.69-3.22-2.55-3.8L870,257.79a121.37,121.37,0,0,1-5.32,17.54,52.14,52.14,0,0,1-8,13.48c-3.31,4.3-6.14,6.24-8.46,5.83-2.81-.5-3.95-2.22-3.43-5.19a7.42,7.42,0,0,1,2.18-3.22q12.15-12,18.2-44.29l1.23-7-6-1.06c-3.21-.56-4.56-2.29-4.05-5.17s2.38-4.17,5.59-3.61l11.19,2,2.26-12.87q.88-5.05,5.58-4.23t3.68,5.86l-2.26,12.87,7.82,1.37c3.28.58,4.67,2.35,4.14,5.32s-2.4,4-5.69,3.46l-14.07-2.47-.45,3.27-2.12,9.92,10.59,1.86q8.17,1.44,7,8.29l-1.76,7.88q-3.35,14.78-5.67,22.37t-4.53,9.56q-4.73,4.26-14.1,2.6Q857.71,301.13,858.57,296.2Zm28.91-48.74a6.2,6.2,0,0,1,1.57-2.57q9-9.46,17.7-25.91,2.18-3.94,5.55-3.36c3,.52,4.2,2.19,3.71,5q-.42,2.41-5.33,9.85l25.26,4.45c3.29.57,4.67,2.35,4.15,5.31s-2.41,4-5.7,3.47l-29.22-5.14q-10.15,14.7-14.24,14T887.48,247.46Zm1.07,56q.8-4.57,5.61-3.72l4.09.71c2.57.46,4.12-.63,4.67-3.27l2.3-13.11-12.14-2.13q-4.7-.82-4-5t5.43-3.38l12.14,2.13.81-4.57a9.84,9.84,0,0,1,6.31-7.69l8.75-3.92-22.25-3.91c-2.65-.47-3.74-2-3.27-4.67s2-3.73,4.66-3.27l26.46,4.65q7.83,1.38,7,6.07c-.24,1.36-1.73,2.76-4.46,4.18l-10.81,5.78c-2.19,1.19-3.44,2.66-3.75,4.43l-.79,4.45,12.87,2.26q4.82.84,4.07,5.06t-5.55,3.36l-12.87-2.26-2.62,14.91q-1.07,6-4.19,8.32t-8.94.78l-5.41-1Q887.78,307.78,888.55,303.45Z"/><path class="cls-2" d="M960.43,331.77a6.24,6.24,0,0,1,.32-5,20.07,20.07,0,0,1,8.44-9.14A42.08,42.08,0,0,1,980.5,313a169,169,0,0,1,17.59-3.06q8.32-1.09,14.14-2.31Q1024.79,305,1028,298q3.09-6.64.34-12.16T1017,276.26a50.77,50.77,0,0,0-20.79-4.82,6.48,6.48,0,0,1-2.36-.43,4.58,4.58,0,0,1-2.45-2.69,4.72,4.72,0,0,1,.2-3.75,5,5,0,0,1,4.5-3,59.7,59.7,0,0,1,27.21,5.8,32,32,0,0,1,11.66,8.79,24.58,24.58,0,0,1,5.57,12.36,23.55,23.55,0,0,1-2.17,13.34,23.05,23.05,0,0,1-9.43,10.42,49.64,49.64,0,0,1-12.8,5.36,171.93,171.93,0,0,1-19.35,3.52q-11.1,1.85-16.06,3.1a19.92,19.92,0,0,0-7.8,3.58l38.31,17.83a5.44,5.44,0,0,1,2.61,7.14,5,5,0,0,1-3,2.71,5.28,5.28,0,0,1-4.07-.22L964,335.39A6.58,6.58,0,0,1,960.43,331.77Z"/><path class="cls-2" d="M1047.84,378.44a6.73,6.73,0,0,1,1-5.21l.42-.6a7.09,7.09,0,0,1,9.67-1.82l1,.69a7.1,7.1,0,0,1,1.82,9.68l-.42.6a7.09,7.09,0,0,1-9.67,1.82l-1-.69A6.68,6.68,0,0,1,1047.84,378.44Z"/><path class="cls-2" d="M1099.74,406q1.79-14.43,15.86-29.36T1144,359.13q14.31-2.62,26,8.35,11.46,10.81,9.85,25.24t-15.85,29.54q-14.23,15.11-28.55,17.55t-25.78-8.35Q1098,420.48,1099.74,406Zm34.79,22.48q10.15-2.41,21.14-14t12.71-21.84a19.24,19.24,0,0,0-23.46-22.12q-10.17,2.42-21.06,14t-12.79,21.93a19.25,19.25,0,0,0,23.46,22.12Z"/><path class="cls-2" d="M522.28,1320.94q-2.89,4-8.49-.09l-14.63-10.65q-7.35-5.35-14.57-10.76-17.29-12.89-22.68-19.41a27.81,27.81,0,0,1-4-6.84,42.31,42.31,0,0,1-2.22-7.7,65.57,65.57,0,0,1-12.08.26q-4.89-.43-6.41-1.55a4.49,4.49,0,0,1-2.08-3.11,6.16,6.16,0,0,1,1.53-4.1q2.22-3,7.78-1.73c.35.06,1.51.33,3.48.8a48.84,48.84,0,0,0,7.22,1l12.69-17.44a3.24,3.24,0,0,0-.77-4.91l-5.5-4a5.07,5.07,0,0,1-2.27-3,4.55,4.55,0,0,1,1.1-3.41,4.33,4.33,0,0,1,2.83-2,5,5,0,0,1,3.51,1.25l8.15,5.93q4.17,3,4.71,6.18c.35,2.1-.45,4.36-2.42,6.8l-13.93,19.13L464,1266q3,9.84,23.25,24.61,8.14,5.92,14.33,10.29t10.32,7.22c3.75,2.54,6.49,4.43,8.19,5.68l1.14.82Q524.9,1317.35,522.28,1320.94ZM477.1,1202.23a4.66,4.66,0,0,1,2.85-2.13,4.52,4.52,0,0,1,3.28,1.08q1.51,1.11,6,8.45,4.28,6.87,2.13,9.81-2.76,3.8-6.45,1.1a16.16,16.16,0,0,1-2.32-3.58l-5.29-9.06Q475.37,1204.6,477.1,1202.23ZM492,1220.77q.9-1.23,7-2.87a88.06,88.06,0,0,0,25.67-11.16q4.34-2.79,6.81-1a5.27,5.27,0,0,1,2.3,2.91,3.81,3.81,0,0,1-.86,3.07q-1.8,2.46-11.53,6.68l17.15,12.48,10.87-6.57a4.51,4.51,0,0,1,2.82-.78,5.38,5.38,0,0,1,2.77,1.07,3.82,3.82,0,0,1,1,6.22c-.92,1.27-4.33,3-10.23,5.31l17.9,13q3.69,2.7,1.21,6.1a4.07,4.07,0,0,1-2.68,1.89,5,5,0,0,1-3.43-1.26l-17-12.42-7,9.57,15.82,11.52c2.34,1.7,2.73,3.63,1.16,5.77s-3.65,2.56-6,.86l-15.83-11.52-7.1,9.76L538.64,1281c2.34,1.7,2.72,3.63,1.16,5.77s-3.51,2.37-5.85.67l-15.82-11.52-7.11,9.76,18.57,13.52q3.6,2.63,1.19,5.94t-6,.69l-42.91-31.25c-3-2.21-4.73-4.48-5.1-6.83s.64-5,3-7.86l25.94-35.62c-4.92,1.45-8.22,2.35-9.89,2.73s-2.8.36-3.37-.06Q489.26,1224.56,492,1220.77Zm11.72,59.56,7.1-9.76-18-13.11-4.42,6.07a4.61,4.61,0,0,0-1,3.39,4.31,4.31,0,0,0,1.93,2.92Zm-9.67-93.44q2.63-3.6,6.13-1.05c.89.65,2.74,3.4,5.58,8.27a17.41,17.41,0,0,1,2.36,5.92,5.33,5.33,0,0,1-.63,4q-2.82,3.89-6.42,1.26c-.64-.46-1.54-1.93-2.71-4.43q-3-5.93-3.91-7.78C493,1190.55,492.92,1188.47,494.06,1186.89Zm3.47,64.13,18,13.11,7.1-9.76-18-13.11Zm19-24.93a3.1,3.1,0,0,0-1.85,1.34l-5.24,7.2,18,13.11,7-9.57-15.73-11.45A2.76,2.76,0,0,0,516.55,1226.09Z"/><path class="cls-2" d="M677.11,1368.64q-1.14,3.58-5.27,2.26l-42.54-13.56-2.1,6.59a7.18,7.18,0,0,1-10,5.17l-11.06-3.52c-2.9-.93-3.94-2.69-3.11-5.3s2.7-3.44,5.6-2.52l6.26,2c2.45.79,4.12-.08,5-2.58l.82-2.57-43.21-13.77q-4.12-1.32-3-5c.76-2.38,2.52-3.14,5.27-2.26L623,1347.34l1.68-5.24L589,1330.71c-2.61-.83-3.54-2.4-2.81-4.71s2.41-3,5-2.21l35.73,11.38,1.53-4.8q-16.59-5-36-11.23-4.8-1.53-3.66-5.11a3.3,3.3,0,0,1,2-2.17,5.39,5.39,0,0,1,3.67.06l6.78,2.28a24.68,24.68,0,0,1,2.53.93l2.57.82q34.6,11,53,14.94l11.11,2.19c2,.54,3.24,1.21,3.84,2a3.57,3.57,0,0,1,.23,3.33c-.83,2.61-2.75,3.6-5.74,3q-14-3.11-31.76-8.4l-1.57,4.91,35.17,11.21q3.92,1.25,2.8,4.71a3.39,3.39,0,0,1-1.82,2.25,4.43,4.43,0,0,1-3.19,0l-35.17-11.2-1.67,5.24,42.54,13.56Q678.28,1365,677.11,1368.64Zm-87.86-77.81c.57-1.79,1.89-2.35,4-1.69l18.08,5.77.86-2.68-11.95-3.81q-3.35-1.07-4.41-2.94a5.85,5.85,0,0,1-.14-4.78l2.92-9.16a6.12,6.12,0,0,1,3.1-3.93,7.47,7.47,0,0,1,5.52,0l11.61,3.7.93-2.9-17.31-5.52a3.74,3.74,0,0,1-2.19-1.43,2.92,2.92,0,0,1,0-2.36,3.07,3.07,0,0,1,1.43-2,3.68,3.68,0,0,1,2.62.1l17.3,5.51.18-.56c.9-2.82,2.58-3.85,5-3.06s3.12,2.55,2.22,5.38l-.18.55,17,5.41a3.68,3.68,0,0,1,2.19,1.44,3.08,3.08,0,0,1,0,2.46,2.88,2.88,0,0,1-1.4,1.89,3.64,3.64,0,0,1-2.61-.09l-17-5.41-.93,2.9,12.39,3.95c4.4,1.4,6,4.07,4.71,8l-2.89,9q-1.87,5.92-8.81,3.71l-12.05-3.84-.86,2.68,18.09,5.77a4.14,4.14,0,0,1,2.26,1.39,2.61,2.61,0,0,1,.12,2.32c-.61,1.93-2,2.56-4.16,1.87l-18.09-5.77-2.1,6.59,7.37,2.35a16.38,16.38,0,0,0,3.72.88,1.35,1.35,0,0,0,1.39-1.1c.79-2.45,2.29-3.32,4.53-2.61a3.46,3.46,0,0,1,2.34,1.91,5.57,5.57,0,0,1-.19,3.69q-1.11,3.46-3.67,4.37t-6.92-.49l-26.8-8.54c-3-.94-5-2.16-6-3.64s-1.19-3.41-.43-5.79a5,5,0,0,1,2-3.05,3.73,3.73,0,0,1,3.05-.14c2.24.72,3,2.26,2.22,4.65a1.35,1.35,0,0,0,.33,1.64,12.74,12.74,0,0,0,2.78,1.32l7,2.24,2.1-6.59-18.09-5.76Q588.32,1293.72,589.25,1290.83Zm24.56-3.37,1.1-3.46-11.61-3.7-.6,1.9a1.44,1.44,0,0,0,1.06,2.06Zm-9.09-11.63,11.62,3.71,1-3.24-10-3.21a1.41,1.41,0,0,0-2,1Zm29.4,14.29L622,1286.24l-1.07,3.35,10.61,3.38a1.44,1.44,0,0,0,2.06-1.06Zm-9.72-11.58-1,3.24,12.17,3.88.57-1.79a1.4,1.4,0,0,0-1.1-1.95Zm16.16,36.51a96.28,96.28,0,0,0,12.65.84q-4.23-6.39-3.59-8.41A2.11,2.11,0,0,1,651,1306a3.54,3.54,0,0,1,2.27,0,5.89,5.89,0,0,1,3.72,3.76,22.88,22.88,0,0,0,3.59,5.7q10.67-.66,17.41-3.31l-31.15-9.92a3.65,3.65,0,0,1-2.28-1.72,4,4,0,0,1,1.57-4.91,3.65,3.65,0,0,1,2.85-.07l34.27,10.92q6.15,2,4.72,6.43-1.71,5.35-21.12,8.39c.42.22,1.57.91,3.45,2.09s3.94,2.32,6.16,3.44,4.55,2.14,7,3.07a8.39,8.39,0,0,1,3.32,2.29,3.05,3.05,0,0,1,.53,3q-1.14,3.57-5.94,2A46.88,46.88,0,0,1,671,1332a97,97,0,0,1-12.6-9.67Q641,1323.57,636,1322q-3.24-1-2.13-4.49C634.6,1315.24,636.82,1314.44,640.56,1315.05Zm4.78-25.41a4.14,4.14,0,0,1,1.44-1.82,6.58,6.58,0,0,1,2.75-1.27q4.11-2.13,6.74-8.43c1.41-3.41,4.17-4.45,8.26-3.15l15.41,4.91q6.69,2.13,4.35,9.51l-1.1,3.46c-.53,1.64.25,2.78,2.34,3.45l2.12.68a3.52,3.52,0,0,0,2.74-.11,4.06,4.06,0,0,0,1.82-2.25,7.27,7.27,0,0,1,2.17-3.13,3.23,3.23,0,0,1,3-.28c2.45.79,3.18,2.74,2.19,5.87q-3.34,10.5-13,7.55l-4.47-1.43a13.48,13.48,0,0,1-6.2-3.51,5.27,5.27,0,0,1-1-5.18l1.28-4a3.16,3.16,0,0,0-1.65-4.09l-10.5-3.34c-1.34-.43-2.23-.06-2.69,1.11a18.2,18.2,0,0,1-7,8.58q-4.44,2.76-6.68,2Q644.06,1293.66,645.34,1289.64Z"/><path class="cls-2" d="M760.11,1301.82l-5.93,12.68-1.13,74.64q-.07,5.74-5,5.67c-3.13,0-4.66-2-4.6-5.81l.82-55.07-1.31,1.85-2.88,4.06q-3.83,5.22-5.26,7c-1,1.2-1.71,1.79-2.25,1.79q-4.34-.08-4.26-5.46,0-2.12,4.11-8.26a189.68,189.68,0,0,0,19.84-41.19,11.77,11.77,0,0,1,2.35-4.36,4.28,4.28,0,0,1,3.25-1.42q5.63.09,5.55,4.66Q763.38,1294.48,760.11,1301.82Zm74.43,85.27c0,3-1.94,4.42-5.69,4.36l-65.74-1q-5.5-.09-5.44-4.54a4.22,4.22,0,0,1,1.4-3.43,6.52,6.52,0,0,1,4.18-1.06l28.47.43.41-26.83-20.16-.3q-4.92-.08-4.85-4.65t5-4.49l20.15.3.35-23.2-25.07-.38c-3.6,0-5.37-1.6-5.33-4.65s1.87-4.54,5.46-4.49l60.7.91q5.75.09,5.67,4.66t-5.81,4.48l-25.66-.38-.35,23.2,21.09.32c3.29.05,4.9,1.59,4.86,4.64s-1.71,4.54-5,4.5l-21.09-.32-.41,26.83,27.3.41C832.73,1382.49,834.59,1384,834.54,1387.09Zm-49-93.09q.08-4.57,5.23-4.5,2.57,0,10,6.6l4.62,4.05c2.32,2.07,3.46,3.85,3.44,5.33q-.07,5-5.35,5-2,0-6.15-4.08-5.2-4.87-9.37-8.34Q785.51,1295.88,785.54,1294Z"/><path class="cls-2" d="M965.79,1276.38l1.91,6.4q1.71,5.73-3.12,7.17a4.86,4.86,0,0,1-2,.12,4,4,0,0,1,1,1.78q1.25,4.15-3,5.42l-22.23,6.64-.43,12.48,19.76-5.9q10.62-4.14,13,7l8.74,29.31q4.18,10.74-7,13.09l-38.18,11.4q-10.63,4.14-13-7.13l-8.75-29.3q-4.16-10.63,7-13l10.33-3.09-1.14-12-20.44,6.1q-4.71,1.41-5.92-2.63c-.82-2.77.33-4.63,3.48-5.56l52.33-15.62,1.75-.28a10.42,10.42,0,0,1-1.68-3.17l-1.21-4a4.66,4.66,0,0,0-2.17-3,5.25,5.25,0,0,0-3.81-.27l-70,20.88q-4.26,1.27-3.11,5.94l1.94,6.52q1.71,5.71-3.12,7.17t-6.54-4.29l-2.64-8.87q-4-10.18,7.21-13.53l33-9.85-1.84-6.18q-1.17-3.93,4.11-5.5c3.36-1,5.44-.2,6.22,2.42l1.84,6.17L952.46,1269Q963.58,1265.68,965.79,1276.38ZM897.89,1305q.87,2.93-1.71,17.64l15.75,52.77q1.74,5.85-2.75,7.18-4.26,1.28-5.87-4.11l-11.23-37.62q-4.08,15.4-6.89,16.24-4.28,1.28-5.64-3.33c-.41-1.35-.1-3.19.91-5.53q7.1-16.42,8.41-40.67.09-3.81,3.45-4.82C895.32,1301.82,897.17,1302.57,897.89,1305Zm26.6,24a4.68,4.68,0,0,0-2.82,1.82,3.91,3.91,0,0,0,.06,3.29l2.52,8.42,40.65-12.13-2.52-8.42a4.59,4.59,0,0,0-1.82-2.83,3.93,3.93,0,0,0-3.28.07Zm45.6,21.86a3.78,3.78,0,0,0,0-3.17l-2.82-9.43-40.65,12.13,2.82,9.43a4.4,4.4,0,0,0,1.79,2.71,3.89,3.89,0,0,0,3.28-.06l32.79-9.79A4.59,4.59,0,0,0,970.09,1350.8Z"/><path class="cls-2" d="M1023.35,1302.07q-1.62-2.31,1-8.15a81.5,81.5,0,0,0,6.67-24l-15.45,10.82q-3.95,2.76-6.29-.6t1.58-6.12l20.74-14.51a102.32,102.32,0,0,0-1.44-14.73l-10.56,7.39q-3.95,2.76-6.22-.51l-.68-1.38q-2.28,14.32-5.35,16.48-3.55,2.49-6.31-1.45-1.2-1.72.37-6.84a74.71,74.71,0,0,0,2.88-15.9c.52-5.79,1.36-9.1,2.51-9.9q3.93-2.76,6.22.5,1.62,2.31.25,13.85l1.11-1.07,13.73-9.61q-2.1-6.25-4.19-11.09c-1.94-4.55-1.8-7.61.45-9.18a5.78,5.78,0,0,1,3.51-1.31,3.51,3.51,0,0,1,2.64,1.73q1.68,2.4,5.37,14.41l25.82-18.08,1.57-.82q-13.05-2.29-14.4-4.22c-1.61-2.31-1.14-4.35,1.42-6.15.9-.62,2.84-.65,5.82-.06q6,1.23,9.07,1.51,6.72.6,10.42.58,5.49-.14,7.24,2.37,2.9,4.13-.85,6.75-3,2.09-15.71-.17a4.12,4.12,0,0,1,1.23,1.15q2.28,3.26-1.75,6.08l-11.52,8.07a46.69,46.69,0,0,0,12.39,7.06l22.27-15.59q3.93-2.76,6.29.6c1.57,2.25,1,4.28-1.59,6.12l-17,11.9q14.05,3.32,25.8.68,6.38-1.32,8.19,1.27,3,4.23-.88,6.91c-1.09.77-3,1.28-5.79,1.55a90.33,90.33,0,0,1-11.34.15,82.81,82.81,0,0,1-24.91-4.31l-27.26,19.09a103.46,103.46,0,0,1-4.06,25.87q-3.36,11.94-6.72,14.3Q1026.11,1306,1023.35,1302.07Zm65.07-7.8q-2.82-4,2.07-7.46,8.16-5.7,7.72-9.41-.69-5.67-6.8-14.4c-1.34-1.92-3-2.19-5-.8l-19.1,13.37q3.54,10.4,2.8,18.93a40.51,40.51,0,0,1-6.64,18.09q-6.35,9.73-11,13-3.66,2.57-6.61-1.66-2.14-3.08,1.82-7,17.84-17.64,11.61-35.74l-14.31,10c-2.88,2-5.17,1.81-6.87-.63s-1.05-4.56,1.83-6.57l15.55-10.89-1.83-3.44q-2.37-4.2-2.37-5.63c0-1.35.88-2.62,2.61-3.83q3.93-2.76,6.62,1.08l3.33,6,19.77-13.84q8.92-6.26,14.24,1.33a130.17,130.17,0,0,1,8.21,15q4.23,8.91,1.75,13.94-2.72,5.34-11.35,11.38Q1091.45,1298.6,1088.42,1294.27ZM1047.06,1233l-8.93,6.25a98.83,98.83,0,0,1,2.12,14.26l18.72-13.11A80.17,80.17,0,0,1,1047.06,1233Z"/><path class="cls-2" d="M437.51,1203.44c-178.17-160.69-231-415.39-129.7-633.52,3.25-7-7.12-13.1-10.38-6.07C193.92,786.73,246.58,1047.4,429,1212c5.75,5.18,14.28-3.31,8.51-8.51Z"/><path class="cls-2" d="M1133.38,1203.44c178.17-160.69,231-415.39,129.7-633.52-3.25-7,7.12-13.1,10.39-6.07,103.5,222.88,50.85,483.55-131.58,648.1-5.75,5.18-14.28-3.31-8.51-8.51Z"/><g class="cls-4"><path class="cls-5" d="M611,923.15c1.53-3,2.19-5.73,4-8.55,1.92-3,5.79-4.24,9.1-5.62,3.86-1.61,8-2.92,12.18-2.43,6.56.81,11.87,6.1,14.56,12.12s3.25,12.77,3.76,19.35l1.68,21.56c.73,9.38,1.32,19.42-3.43,27.55-4.11,7-11.86,11.51-19.93,12.73s-16.36-.59-23.79-3.93c-4-1.81-7.93-4.18-10.4-7.81a25.28,25.28,0,0,1-3.45-9.71c-1.46-7.76-1.82-15.87.33-23.48a80,80,0,0,1,6.63-16.55c3-5.36,7.11-11.92,8.77-15.23"/><path class="cls-5" d="M760.89,914.9c-4.81-5.84-5.59-9.56-6.29-17.69s1.27-16.23,3.3-24.13a32.66,32.66,0,0,1,2.35-6.9c3.47-6.68,11.41-10.23,18.93-10a14.22,14.22,0,0,1,4.84.9,17.66,17.66,0,0,1,4.69,3.2,27.16,27.16,0,0,1,4.75,5c2.62,3.81,3.45,8.56,3.8,13.18.58,7.72,0,15.64-2.9,22.8s-8.18,13.57-15.21,16.76a20.62,20.62,0,0,1-10.51,1.51,12.7,12.7,0,0,1-7.75-4.66"/><path class="cls-5" d="M851.87,955.29a27.26,27.26,0,0,1-13-7.17c-4.63-4.64-6.58-11.3-7.44-17.78-1.36-10.36-.19-21.42,5.44-30.22s16.35-14.76,26.61-12.81c8,1.53,14.65,7.56,18.32,14.82s4.67,15.61,4.38,23.74c-.37,10.48-3.68,22.11-12.89,27.12-6.77,3.71-15.59,3.53-21.45,2.3"/><path class="cls-5" d="M690.13,912.87c2.62-8.66,4.71-12.12,10.42-14.53,9.81-4.13,22.27-.56,28.39,8.15a35.42,35.42,0,0,1,5.15,12.89,69.17,69.17,0,0,1-.74,32c-1.57,5.89-3.92,11.62-4.53,17.69s.93,12.81,5.75,16.53c3.65,2.82,8.49,3.45,13.08,4a26.26,26.26,0,0,0,5.46.22c6.93-.69,12.13-6.92,14.56-13.45s2.87-13.64,4.79-20.33c1.63-5.7,4.63-11.4,9.82-14.27a19,19,0,0,1,10.67-2c11.33.89,21.07,9.3,26.13,19.47s6.08,21.88,5.81,33.22c-.24,10.07-1.57,20.51-7,29-8.37,13-24.51,18.51-39.73,21.12-14.11,2.43-28.69,3.15-42.68.12s-27.39-10.09-36.42-21.19c-5.69-7-9.49-15.3-12.26-23.87-8.79-27.2-8.21-58.62,3.35-84.78"/><path class="cls-6" d="M600.73,923.15c1.53-3,2.19-5.73,4-8.55,1.94-3,5.79-4.24,9.12-5.62,3.86-1.61,8-2.92,12.17-2.43,6.56.81,11.87,6.1,14.57,12.12s3.24,12.77,3.76,19.35q.84,10.77,1.67,21.56c.73,9.38,1.32,19.42-3.43,27.55-4.11,7-11.87,11.51-19.92,12.73s-16.37-.59-23.81-3.93c-4-1.81-7.93-4.18-10.39-7.81a25.61,25.61,0,0,1-3.45-9.71c-1.46-7.76-1.82-15.87.33-23.48A80,80,0,0,1,592,938.38c3-5.36,7.11-11.92,8.77-15.23"/><path class="cls-6" d="M750.62,914.9c-4.81-5.84-5.59-9.56-6.29-17.69s1.27-16.23,3.3-24.13a32.66,32.66,0,0,1,2.35-6.9c3.46-6.68,11.41-10.23,18.93-10a14.22,14.22,0,0,1,4.84.9,17.5,17.5,0,0,1,4.69,3.2,27.5,27.5,0,0,1,4.75,5c2.62,3.81,3.45,8.56,3.8,13.18.58,7.72,0,15.64-2.91,22.8s-8.17,13.57-15.2,16.76a20.6,20.6,0,0,1-10.51,1.51,12.7,12.7,0,0,1-7.75-4.66"/><path class="cls-6" d="M841.6,955.29a27.42,27.42,0,0,1-13-7.17c-4.62-4.64-6.56-11.3-7.42-17.78-1.37-10.36-.2-21.42,5.43-30.22s16.35-14.76,26.62-12.81c8,1.53,14.64,7.56,18.31,14.82s4.66,15.61,4.38,23.74c-.37,10.48-3.68,22.11-12.89,27.12-6.78,3.71-15.59,3.53-21.45,2.3"/><path class="cls-6" d="M679.86,912.87c2.63-8.66,4.71-12.12,10.42-14.53,9.81-4.13,22.27-.56,28.39,8.15a35.05,35.05,0,0,1,5.14,12.89,68.77,68.77,0,0,1-.74,32c-1.56,5.89-3.91,11.62-4.52,17.69s.93,12.81,5.75,16.53c3.65,2.82,8.49,3.45,13.07,4a26.38,26.38,0,0,0,5.47.22c6.93-.69,12.13-6.92,14.57-13.45s2.87-13.64,4.78-20.33c1.64-5.7,4.63-11.4,9.83-14.27a18.91,18.91,0,0,1,10.66-2c11.33.89,21.07,9.3,26.13,19.47s6.08,21.88,5.8,33.22c-.23,10.07-1.55,20.51-7,29-8.36,13-24.5,18.51-39.73,21.12-14.1,2.43-28.69,3.15-42.68.12s-27.39-10.09-36.43-21.19c-5.68-7-9.48-15.3-12.25-23.87-8.78-27.2-8.21-58.62,3.35-84.78"/><path class="cls-7" d="M934.89,847.06c-.48-4.81,3.63-9.17,8.29-10.49s9.65-.31,14.29,1.06c2.48.73,5.1,1.67,6.58,3.78a11.74,11.74,0,0,1,1.61,4.19c.86,3.62,1.55,7.5.25,11-1.5,4-5.29,6.57-9.08,8.49-8.57,4.33-18.24,6.53-26.11,12-1.72,1.22-3.46,2.77-3.74,4.86-3.31-7.3-8.6-13.49-12.87-20.28s-7.59-14.78-6.24-22.68a8.37,8.37,0,0,1,1.41-3.71,7.92,7.92,0,0,1,3-2.24,17,17,0,0,1,13.7-.74,14.25,14.25,0,0,1,8.71,10.38"/><path class="cls-8" d="M964.71,928.21c5.6-7.79,3.94-19.4-2.52-26.48s-16.74-9.92-26.28-8.89a22.39,22.39,0,0,0-11.26,4c-7,5.28-8.23,15.06-8.76,23.77q-1.25,20.64-1.14,41.31c0,3.92.13,8,2.11,11.43,3.52,6,11.42,7.5,18.35,8.29,64.52,7.34,129.63,7.93,194.56,6.86,9.46-.15,20.13-.88,26.27-8.07,5-5.8,5.43-14.13,5.6-21.77.21-8.86-.59-19.49-8.33-23.81-4.41-2.44-9.78-2-14.79-1.49a682,682,0,0,1-174.19-5.66"/><path class="cls-8" d="M983.2,773.28l-35.91,0c-3.11,0-6.51.1-8.85,2.13-2,1.71-2.75,4.41-3.34,7A131.83,131.83,0,0,0,932,804.71c-.16,2.86-.17,5.92,1.33,8.37,2.29,3.75,7.21,4.74,11.58,5.25a218.41,218.41,0,0,0,38.86,1.07c1.38-.09,2.92-.15,4,.74s1.33,2.58,1.34,4.06c.06,7.66-2.34,15.11-4.19,22.56a166.21,166.21,0,0,0-5,40.84c0,4.44.28,9.11,2.64,12.87,4.88,7.77,15.86,8.13,25,7.63,2-.14,4.22-.38,5.44-2,.91-1.19,1-2.82,1.05-4.33a43.7,43.7,0,0,1,7.45-22c2.23-3.29,5.08-6.38,8.83-7.63s8.53-.1,10.37,3.42c1.07,2,1,4.48,1,6.8a139.64,139.64,0,0,0,1.57,23.38c.29,1.91.68,4,2.07,5.35,1.83,1.8,4.71,1.84,7.29,1.74l17.44-.6a8,8,0,0,0,4.42-1,7.52,7.52,0,0,0,2.42-3.75c4.17-11.18,5-23.31,5.79-35.21.7-10.46.54-22.82-7.94-29-8-5.83-19.19-2.84-29-4.06a6,6,0,0,1-3.56-1.34c-1.16-1.16-1.28-3-1.32-4.61-.13-4.91-.26-9.84-.4-14.76l32.7,1c2,.05,4.21.07,5.89-1.07,2-1.36,2.7-3.94,3.25-6.29l3.51-15c2.11-9,3.52-20.24-3.77-26-4-3.13-9.43-3.48-14.51-3.69l-34.31-1.46c-1.74-.08-3.61-.2-5-1.25a8,8,0,0,1-2.44-4.21c-2-6.43-2.59-13.32-5.44-19.42s-9-11.49-15.63-10.48c-7,1.06-11.13,8.35-13.47,15A101.13,101.13,0,0,0,986,769.2"/><path class="cls-8" d="M1133.33,709.13c-13.57,19.42-24,40.27-25.95,63.88-.18,2.18-.28,4.5.77,6.43s3.1,3.12,5.07,4.12c26,13.26,56.57,13.82,85.74,12.19,9.42-.53,19.17-1.35,27.43-5.9S1241,776,1239.22,766.71a8.41,8.41,0,0,0-2.14-4.51c-1.84-1.8-4.63-2.1-7.2-2.28a332.31,332.31,0,0,0-40.66-.36c-1.71.09-3.56.15-5-.86-2-1.46-2-4.59-.84-6.79s3.24-3.74,5-5.5a26.94,26.94,0,0,0-6.46-43c-7.4-3.87-16.1-4.1-24.45-3.83-9,.29-19.45,1.86-24.2,9.58"/><path class="cls-8" d="M1210.33,847.11c-.33-7.6-2-25.51-3.62-33-.62-2.85-1.41-5.83-3.5-7.86-2.7-2.62-6.79-3-10.55-3.15q-28.28-1.36-56.6-.73c-2.49.06-5.2.2-7.1,1.82a19,19,0,0,0-4.6,5.93c-1.93,4.28-4.28,8.16-4.19,12.86.13,7.27,8.93,11.11,16.2,11.06s15-2.06,21.56,1c7.12,3.3,9,8,7.1,18.31-.26,1.35-1,4.06-2.19,4.68a7.58,7.58,0,0,1-3.67.52l-34.6-.9c-2.56-.07-5.21-.11-7.56.88-6.62,2.82-7.39,11.73-7.13,18.92.09,2.64.35,5.64,2.43,7.3a8.93,8.93,0,0,0,4.23,1.49,125.73,125.73,0,0,0,49-1.52c3.76,10-4.61,20.31-13.3,26.43-2.76,1.95-5.84,4.06-6.59,7.35-1.29,5.72,5.14,10,10.71,11.81,13.81,4.46,29.43,4.89,42.42-1.57s22.54-20.69,21-35.11c-.64-5.71-2.24-13,2.67-16a12.24,12.24,0,0,1,6-1.26l15.15-.56c2.07-.07,4.26-.2,5.94-1.41a9.15,9.15,0,0,0,2.93-4.59c3.06-8.76,4.19-16.25-3.33-21.7-2.94-2.12-26.57-2.46-38.79-1"/><path class="cls-9" d="M926.47,847.06c-.49-4.81,3.63-9.17,8.29-10.49s9.64-.31,14.29,1.06c2.48.73,5.09,1.67,6.58,3.78a11.73,11.73,0,0,1,1.6,4.19c.86,3.62,1.56,7.5.26,11-1.5,4-5.29,6.57-9.08,8.49-8.57,4.33-18.25,6.53-26.11,12-1.72,1.22-3.46,2.77-3.74,4.86-3.31-7.3-8.6-13.49-12.87-20.28S898.1,846.9,899.45,839a8.35,8.35,0,0,1,1.4-3.71,8.08,8.08,0,0,1,3-2.24,17.07,17.07,0,0,1,13.71-.74,14.24,14.24,0,0,1,8.7,10.38"/><path class="cls-10" d="M956.28,928.21c5.6-7.79,4-19.4-2.51-26.48s-16.74-9.92-26.28-8.89a22.42,22.42,0,0,0-11.27,4c-7,5.28-8.23,15.06-8.75,23.77q-1.25,20.64-1.15,41.31c0,3.92.14,8,2.12,11.43,3.52,6,11.42,7.5,18.36,8.29,64.52,7.34,129.62,7.93,194.55,6.86,9.46-.15,20.12-.88,26.27-8.07,5-5.8,5.43-14.13,5.6-21.77.2-8.86-.59-19.49-8.33-23.81-4.4-2.44-9.78-2-14.78-1.49a681.93,681.93,0,0,1-174.19-5.66"/><path class="cls-10" d="M974.77,773.28l-35.91,0c-3.1,0-6.5.1-8.85,2.13-2,1.71-2.74,4.41-3.33,7a131.83,131.83,0,0,0-3.14,22.37c-.16,2.86-.17,5.92,1.32,8.37,2.3,3.75,7.22,4.74,11.58,5.25a218.54,218.54,0,0,0,38.87,1.07c1.38-.09,2.92-.15,4,.74s1.32,2.58,1.33,4.06c.06,7.66-2.33,15.11-4.19,22.56a166.21,166.21,0,0,0-5,40.84c0,4.44.28,9.11,2.63,12.87,4.88,7.77,15.87,8.13,25,7.63,2-.14,4.23-.38,5.45-2,.91-1.19,1-2.82,1-4.33a43.81,43.81,0,0,1,7.46-22c2.22-3.29,5.07-6.38,8.83-7.63s8.53-.1,10.36,3.42c1.07,2,1,4.48,1,6.8a140.69,140.69,0,0,0,1.56,23.38c.29,1.91.69,4,2.07,5.35,1.83,1.8,4.73,1.84,7.29,1.74q8.73-.28,17.45-.6a8,8,0,0,0,4.42-1,7.5,7.5,0,0,0,2.41-3.75c4.18-11.18,5-23.31,5.8-35.21.69-10.46.55-22.82-7.94-29-8-5.83-19.19-2.84-29.06-4.06a5.92,5.92,0,0,1-3.55-1.34c-1.17-1.16-1.27-3-1.32-4.61-.14-4.91-.27-9.84-.4-14.76l32.69,1c2,.05,4.21.07,5.89-1.07,2-1.36,2.71-3.94,3.26-6.29l3.51-15c2.11-9,3.52-20.24-3.78-26-4-3.13-9.43-3.48-14.5-3.69l-34.31-1.46c-1.74-.08-3.61-.2-5-1.25a8.1,8.1,0,0,1-2.44-4.21c-2-6.43-2.58-13.32-5.43-19.42s-9-11.49-15.63-10.48c-7,1.06-11.13,8.35-13.48,15a100.58,100.58,0,0,0-5.16,23.43"/><path class="cls-10" d="M1124.91,709.13c-13.57,19.42-24,40.27-26,63.88-.19,2.18-.29,4.5.77,6.43s3.09,3.12,5.07,4.12c26,13.26,56.56,13.82,85.74,12.19,9.42-.53,19.16-1.35,27.43-5.9s14.64-13.89,12.83-23.14a8.56,8.56,0,0,0-2.14-4.51c-1.84-1.8-4.63-2.1-7.2-2.28a332.45,332.45,0,0,0-40.67-.36c-1.7.09-3.56.15-4.94-.86-2-1.46-2-4.59-.84-6.79s3.24-3.74,5-5.5a26.94,26.94,0,0,0-6.46-43c-7.4-3.87-16.11-4.1-24.45-3.83-9,.29-19.46,1.86-24.2,9.58"/><path class="cls-10" d="M1201.92,847.11c-.35-7.6-2-25.51-3.63-33-.61-2.85-1.42-5.83-3.5-7.86-2.7-2.62-6.8-3-10.56-3.15q-28.26-1.36-56.59-.73c-2.5.06-5.2.2-7.1,1.82a19.14,19.14,0,0,0-4.61,5.93c-1.92,4.28-4.28,8.16-4.19,12.86.13,7.27,8.93,11.11,16.2,11.06s15-2.06,21.56,1c7.13,3.3,9,8,7.1,18.31-.25,1.35-1,4.06-2.18,4.68a7.58,7.58,0,0,1-3.67.52l-34.61-.9c-2.55-.07-5.2-.11-7.55.88-6.62,2.82-7.4,11.73-7.13,18.92.09,2.64.35,5.64,2.43,7.3a8.89,8.89,0,0,0,4.22,1.49,125.84,125.84,0,0,0,49-1.52c3.74,10-4.62,20.31-13.32,26.43-2.75,1.95-5.83,4.06-6.58,7.35-1.29,5.72,5.14,10,10.71,11.81,13.81,4.46,29.43,4.89,42.43-1.57s22.54-20.69,20.94-35.11c-.63-5.71-2.24-13,2.66-16a12.28,12.28,0,0,1,6-1.26l15.15-.56c2.06-.07,4.26-.2,5.94-1.41a9.28,9.28,0,0,0,2.93-4.59c3.06-8.76,4.19-16.25-3.33-21.7-2.94-2.12-26.57-2.46-38.78-1"/><path class="cls-5" d="M804.08,755.65c-5.62-2.72-9.35-8.63-10.19-14.81A27.55,27.55,0,0,1,798.1,723c1.56-2.54,3.54-5,6.26-6.16a16.36,16.36,0,0,1,7.13-1,25.82,25.82,0,0,1,7,1,19,19,0,0,1,9.85,7.61,28.86,28.86,0,0,1,4.38,11.81c.73,4.64.45,9.82-2.6,13.39s-7.82,4.58-12.31,5.47a37.52,37.52,0,0,1-9.12,1.07,12.89,12.89,0,0,1-8.41-3.2"/><path class="cls-5" d="M925.26,742.66c-20.24,1.55-40.72-5.93-56.27-19s-26.25-31.38-31.61-51c-9.2-33.66-1.83-72.28,22-97.75s64.37-35.09,95.75-19.83a57.44,57.44,0,0,1,16.33,11.51c7.75,8,12.38,18.54,15.73,29.17,6.55,20.82,8.75,42.8,9.06,64.63.13,9.82-.13,19.74-2.56,29.26-4.39,17.19-16,32.26-31,41.67s-33.31,13.28-51,11.64"/><path class="cls-5" d="M643.78,664.31c-5.63-8.58-6.71-17.34-.08-25.17s20-9.35,27.36-2.22c6.08,5.89,6.92,15.23,7,23.69.15,10.4-.47,21.55-6.72,29.86-6.75,9-18.33,12.5-28.54,17.21-3.49,1.62-7,3.49-9.5,6.39-4.34,5-5.09,12.14-4.93,18.77A91.76,91.76,0,0,0,641,776.77a16.39,16.39,0,0,0,4.39,5.34c2.32,1.62,6.38,5.23,9.2,5.53,34.59,3.65,68-8.38,101.68-17.15,4.21-1.1,8.6-2.27,11.9-5.1,6.58-5.62,6.81-15.53,6.51-24.17-.16-4.85-.35-9.81-2.11-14.33s-5.45-8.59-10.22-9.46c-4.17-.77-8.35,1-12.24,2.67L722.94,732c-5.61,2.45-13.85,7.62-19.93,6.85S693.26,730,694.25,724c.76-4.66,9.78-9.17,14.32-10.45s15.42-4,19.35-6.58c14.16-9.37,21.55-15.66,30.06-33,4.66-9.48,8.87-19.32,10.53-29.75,1.84-11.62.44-23.51-1.67-35.08-3.41-18.76-8.91-37.73-20.73-52.7-13.38-17-31.39-33.2-52.47-37.93S655,515,633.45,516.16c-5.92.32-21.25,6.65-26.94,8.3-8.56,2.47-13.44,6.79-20.37,12.38-12.86,10.38-24.65,22.91-30.5,38.38-3.34,8.86-4.61,18.35-5.55,27.77a434,434,0,0,0-2.17,44.44c0,6.36.2,12.9,2.7,18.74,3.39,7.91,10.63,13.56,18.31,17.46a72.35,72.35,0,0,0,62.33,1c4-1.88,8-4.24,10.67-7.8s3.81-8.56,1.85-12.55"/><path class="cls-6" d="M791.23,755.65c-5.62-2.72-9.35-8.63-10.19-14.81s1-12.56,4.22-17.88c1.55-2.54,3.53-5,6.25-6.16a16.38,16.38,0,0,1,7.13-1,25.82,25.82,0,0,1,7,1,18.94,18.94,0,0,1,9.86,7.61,29,29,0,0,1,4.38,11.81c.72,4.64.45,9.82-2.6,13.39S809.47,754.15,805,755a37.58,37.58,0,0,1-9.12,1.07,12.87,12.87,0,0,1-8.41-3.2"/><path class="cls-6" d="M912.41,742.66c-20.23,1.55-40.72-5.93-56.25-19s-26.27-31.38-31.62-51c-9.2-33.66-1.83-72.28,22-97.75s64.36-35.09,95.74-19.83a57.49,57.49,0,0,1,16.34,11.51c7.75,8,12.37,18.54,15.72,29.17,6.55,20.82,8.75,42.8,9.06,64.63.13,9.82-.12,19.74-2.55,29.26-4.4,17.19-16,32.26-31,41.67s-33.31,13.28-51,11.64"/><path class="cls-6" d="M630.93,664.31c-5.62-8.58-6.71-17.34-.08-25.17s20-9.35,27.36-2.22c6.09,5.89,6.92,15.23,7,23.69.14,10.4-.48,21.55-6.72,29.86-6.75,9-18.34,12.5-28.54,17.21-3.5,1.62-7,3.49-9.51,6.39-4.33,5-5.09,12.14-4.93,18.77a91.89,91.89,0,0,0,12.6,43.93,16.36,16.36,0,0,0,4.38,5.34c2.32,1.62,6.38,5.23,9.2,5.53,34.59,3.65,68-8.38,101.68-17.15,4.22-1.1,8.6-2.27,11.92-5.1,6.57-5.62,6.79-15.53,6.5-24.17-.17-4.85-.35-9.81-2.12-14.33s-5.45-8.59-10.21-9.46c-4.18-.77-8.36,1-12.25,2.67Q723.68,726,710.1,732c-5.62,2.45-13.86,7.62-19.93,6.85S680.42,730,681.41,724c.76-4.66,9.77-9.17,14.31-10.45s15.42-4,19.36-6.58c14.15-9.37,21.55-15.66,30.06-33,4.64-9.48,8.87-19.32,10.52-29.75,1.85-11.62.44-23.51-1.67-35.08-3.41-18.76-8.91-37.73-20.72-52.7-13.38-17-31.4-33.2-52.48-37.93s-38.63-3.45-60.18-2.28c-5.93.32-21.25,6.65-27,8.3-8.55,2.47-13.44,6.79-20.36,12.38-12.87,10.38-24.65,22.91-30.5,38.38-3.35,8.86-4.62,18.35-5.56,27.77a436.82,436.82,0,0,0-2.17,44.44c0,6.36.2,12.9,2.71,18.74,3.38,7.91,10.62,13.56,18.31,17.46a72.35,72.35,0,0,0,62.33,1c4-1.88,8-4.24,10.67-7.8s3.8-8.56,1.84-12.55"/><path class="cls-6" d="M903.77,664.25a11.81,11.81,0,0,1-9.2-3.65,20.21,20.21,0,0,1-5.17-9.79c-1.51-6.47-.3-13.89,3.6-18.79s10.53-6.74,15.66-3.81a9.56,9.56,0,0,1,2.67,2.22,14.67,14.67,0,0,1,2.57,5.6,50.63,50.63,0,0,1,1.49,12.42,25.64,25.64,0,0,1-.42,5.62,13.57,13.57,0,0,1-5.07,8,11.94,11.94,0,0,1-8.35,2.24"/><path class="cls-5" d="M898.36,664.25a11.81,11.81,0,0,1-9.2-3.65,20.29,20.29,0,0,1-5.17-9.79c-1.5-6.47-.29-13.89,3.61-18.79s10.52-6.74,15.65-3.81a9.6,9.6,0,0,1,2.68,2.22,14.82,14.82,0,0,1,2.57,5.6A50.62,50.62,0,0,1,910,648.45a24.47,24.47,0,0,1-.42,5.62,13.62,13.62,0,0,1-5.07,8,11.92,11.92,0,0,1-8.34,2.24"/><path class="cls-11" d="M903.77,664.25a11.81,11.81,0,0,1-9.2-3.65,20.21,20.21,0,0,1-5.17-9.79c-1.51-6.47-.3-13.89,3.6-18.79s10.53-6.74,15.66-3.81a9.56,9.56,0,0,1,2.67,2.22,14.67,14.67,0,0,1,2.57,5.6,50.63,50.63,0,0,1,1.49,12.42,25.64,25.64,0,0,1-.42,5.62,13.57,13.57,0,0,1-5.07,8,11.94,11.94,0,0,1-8.35,2.24"/><path class="cls-12" d="M330.37,704.84l54.28-.67c1.65,0,3.54-.16,4.54-1.48a5.48,5.48,0,0,0,.62-3.82q-1.49-18.84-3-37.69c-.46-5.94-.72-12.57,3.17-17.09s10.83-5.29,17-5.54q35.93-1.47,71.89-.45c2.07,0,4.31.19,5.87,1.55s2,3.55,2.28,5.59a98,98,0,0,1-5.17,47.3L548,695.46c1.8.08,3.77.23,5.05,1.49a7.25,7.25,0,0,1,1.63,3.6,211.5,211.5,0,0,1,5.93,49.23c0,2.28-.07,4.69-1.28,6.62a11.43,11.43,0,0,1-4.59,3.67c-14.84,7.8-32.08,9.3-48.79,10.65-4.86.39-11.19-.18-12.49-4.87-.74-2.7.7-5.44,1.59-8.09s.91-6.2-1.54-7.55a7.06,7.06,0,0,0-3.45-.59l-92.15,0a4.13,4.13,0,0,0-2.6.58c-1.19.93-1,2.75-.71,4.23L399.76,780a12.44,12.44,0,0,1,.25,5.55c-1.24,4.53-6.84,6-11.48,6.63-21.63,3-44.58,5.39-64.49-3.57-2.06-.93-4.18-2.08-5.29-4.06a10.53,10.53,0,0,1-.91-5.65c1.12-24.39,11.87-49.63,12.53-74"/><path class="cls-12" d="M392.65,832.7a263.28,263.28,0,0,0-67.32,6.77,6,6,0,0,0-3.43,1.65c-1,1.16-.93,2.8-.84,4.31a235,235,0,0,0,6.1,40.6c.49,2,1.12,4.25,2.85,5.43s4.3,1,6.51.61q21.11-3.47,42.06-7.73c-.24,17.47-.45,35.12,3.26,52.21s11.73,33.77,25.36,44.71c6.72,5.39,14.83,9.31,23.41,10,11.76.94,23.34-4.26,32.45-11.74s16.14-17.14,23.06-26.69a243.93,243.93,0,0,0,3.53,41.88,9.26,9.26,0,0,0,1.73,4.64c1.25,1.42,3.2,1.95,5.05,2.29,17.32,3.17,34.76-3.77,50.66-11.32,1.66-.79,3.42-1.66,4.37-3.25a9.37,9.37,0,0,0,.88-5.07,238.73,238.73,0,0,0-21.67-95c22.19-7.77,47.16-1.67,69.85-7.88,3.76-1,7.58-2.5,10.16-5.43,2.86-3.23,3.73-7.73,4.36-12a204.61,204.61,0,0,0,2.1-36.26c-.13-4.51-.56-9.39-3.55-12.78-3.37-3.81-9-4.57-14-4.92a234.79,234.79,0,0,0-59.58,3.5c-1.36.26-2.88.5-4.08-.21s-1.66-2.11-2.06-3.4a147.83,147.83,0,0,1-4.5-19.37c-.26-1.61-.57-3.37-1.79-4.45a6.8,6.8,0,0,0-3.91-1.29,129.08,129.08,0,0,0-21.8-.52c-8.29.51-18.15,3.16-20.49,11.12-1.9,6.48,2,14.72-2.73,19.55a13,13,0,0,1-4.78,2.78,62.57,62.57,0,0,1-22.14,4.25A98.57,98.57,0,0,0,444.61,795c-.72-1.66-1.58-3.4-3.13-4.34s-3.76-.85-5.7-.66a291.79,291.79,0,0,0-36.68,6.13c-2.21.51-4.57,1.14-6,2.86-1.34,1.55-1.7,3.71-1.92,5.74-.91,8,.16,20.08,1.51,28"/><path class="cls-13" d="M320.09,704.84l54.27-.67c1.66,0,3.55-.16,4.55-1.48.8-1.05.73-2.5.63-3.82q-1.5-18.84-3-37.69c-.46-5.94-.72-12.57,3.16-17.09s10.84-5.29,17-5.54q35.93-1.47,71.89-.45c2.07,0,4.31.19,5.87,1.55s2,3.55,2.28,5.59a97.88,97.88,0,0,1-5.17,47.3l66.22,2.92c1.79.08,3.76.23,5.05,1.49a7.24,7.24,0,0,1,1.62,3.6,211.5,211.5,0,0,1,5.93,49.23c0,2.28-.06,4.69-1.28,6.62a11.36,11.36,0,0,1-4.59,3.67c-14.84,7.8-32.08,9.3-48.79,10.65-4.85.39-11.19-.18-12.48-4.87-.75-2.7.69-5.44,1.58-8.09s.91-6.2-1.54-7.55a7.08,7.08,0,0,0-3.46-.59l-92.14,0a4.15,4.15,0,0,0-2.6.58c-1.19.93-1,2.75-.7,4.23L389.48,780a12.16,12.16,0,0,1,.24,5.55c-1.23,4.53-6.82,6-11.47,6.63-21.62,3-44.59,5.39-64.49-3.57-2.06-.93-4.18-2.08-5.28-4.06a10.44,10.44,0,0,1-.92-5.65c1.11-24.39,11.87-49.63,12.53-74"/><path class="cls-13" d="M382.37,832.7a263.37,263.37,0,0,0-67.32,6.77,6,6,0,0,0-3.43,1.65c-.95,1.16-.93,2.8-.84,4.31a234,234,0,0,0,6.1,40.6c.49,2,1.13,4.25,2.85,5.43s4.3,1,6.51.61q21.09-3.47,42.06-7.73c-.23,17.47-.45,35.12,3.26,52.21s11.74,33.77,25.36,44.71c6.72,5.39,14.83,9.31,23.41,10,11.76.94,23.34-4.26,32.45-11.74s16.14-17.14,23.06-26.69a246,246,0,0,0,3.53,41.88,9.26,9.26,0,0,0,1.73,4.64c1.24,1.42,3.2,1.95,5.06,2.29,17.31,3.17,34.75-3.77,50.65-11.32,1.66-.79,3.42-1.66,4.37-3.25a9.37,9.37,0,0,0,.88-5.07,238.57,238.57,0,0,0-21.68-95c22.21-7.77,47.17-1.67,69.86-7.88,3.76-1,7.59-2.5,10.16-5.43,2.86-3.23,3.73-7.73,4.36-12a205.57,205.57,0,0,0,2.11-36.26c-.14-4.51-.57-9.39-3.56-12.78-3.37-3.81-8.95-4.57-14-4.92a234.73,234.73,0,0,0-59.58,3.5c-1.38.26-2.89.5-4.09-.21s-1.65-2.11-2.06-3.4a147.83,147.83,0,0,1-4.5-19.37c-.26-1.61-.57-3.37-1.79-4.45a6.83,6.83,0,0,0-3.91-1.29,129.18,129.18,0,0,0-21.81-.52c-8.28.51-18.14,3.16-20.48,11.12-1.89,6.48,2,14.72-2.74,19.55a12.8,12.8,0,0,1-4.76,2.78,62.61,62.61,0,0,1-22.14,4.25,99,99,0,0,0-7.1-24.71c-.72-1.66-1.58-3.4-3.14-4.34s-3.75-.85-5.69-.66a291.79,291.79,0,0,0-36.68,6.13c-2.21.51-4.56,1.14-6,2.86-1.33,1.55-1.69,3.71-1.92,5.74-.91,8,.17,20.08,1.51,28"/><path class="cls-11" d="M435,874.74c5.19-.79,10.4-1.57,15.59-2.38S461.32,870.7,466,868q3.18,18.76,5.62,37.65c.36,2.85.6,6.13-1.4,8.21-1.31,1.36-3.28,1.83-5.14,2.19a85.64,85.64,0,0,1-19,1.43,13.31,13.31,0,0,1-5.67-1.13c-4.61-2.39-5.21-8.62-5.22-13.8,0-8.14-.14-19.67-.16-27.8"/><path class="cls-14" d="M450.51,916.71a13.2,13.2,0,0,1-5.68-1.12c-4.6-2.4-5.2-8.62-5.21-13.81,0-8.1-.15-19.59-.17-27.73l-4.49.69c0,8.13.14,19.66.16,27.79,0,5.19.61,11.42,5.22,13.81a13.46,13.46,0,0,0,5.67,1.13,85.64,85.64,0,0,0,19-1.43,4.82,4.82,0,0,0,.52-.11,83.35,83.35,0,0,1-15.06.78"/></g></svg>